<?xml version="1.0" encoding="UTF-8"?>
<svg width="32px" height="32px" viewBox="0 0 32 32" version="1.1" xmlns="http://www.w3.org/2000/svg" xmlns:xlink="http://www.w3.org/1999/xlink">
    <title>logo</title>
    <defs>
        <radialGradient cx="37.2002221%" cy="34.0094694%" fx="37.2002221%" fy="34.0094694%" r="69.3674135%" gradientTransform="translate(0.372002,0.340095),scale(0.979592,1.000000),rotate(50.580184),translate(-0.372002,-0.340095)" id="radialGradient-1">
            <stop stop-color="#FFFFFF" offset="0.37423514%"></stop>
            <stop stop-color="#CCCCCC" offset="69.2061844%"></stop>
            <stop stop-color="#DDDDDD" offset="100%"></stop>
        </radialGradient>
    </defs>
    <g id="Page-1" stroke="none" stroke-width="1" fill="none" fill-rule="evenodd">
        <g id="logo" fill-rule="nonzero">
            <path d="M9.133841,0 L22.866159,0 C26.0421945,0 27.1939017,0.33069124 28.3550128,0.951660256 C29.5161239,1.57262927 30.4273708,2.48387607 31.0483398,3.64498718 C31.6693087,4.80609829 32,5.95780551 32,9.133841 L32,22.866159 C32,26.0421945 31.6693087,27.1939017 31.0483398,28.3550128 C30.4273708,29.5161239 29.5161239,30.4273708 28.3550128,31.0483398 C27.1939017,31.6693087 26.0421945,32 22.866159,32 L9.133841,32 C5.95780551,32 4.80609829,31.6693087 3.64498718,31.0483398 C2.48387607,30.4273708 1.57262927,29.5161239 0.951660256,28.3550128 C0.33069124,27.1939017 0,26.0421945 0,22.866159 L0,9.133841 C0,5.95780551 0.33069124,4.80609829 0.951660256,3.64498718 C1.57262927,2.48387607 2.48387607,1.57262927 3.64498718,0.951660256 C4.80609829,0.33069124 5.95780551,0 9.133841,0 Z" id="trans-bg" fill-opacity="0.01" fill="#FFFFFF"></path>
            <g id="Malteaser" transform="translate(2.250000, 2.500000)">
                <path d="M14.2985808,0.00955452367 C21.905472,0.287948863 27.8403171,6.5530215 27.5524556,14.00367 C27.2707189,21.4543185 20.8765205,27.2688002 13.2696293,26.9904059 C5.66273817,26.7120116 -0.272106892,20.446939 0.00962981844,12.9962905 C0.29749124,5.54564196 6.69168963,-0.268239828 14.2985808,0.00955452367 Z" id="headgradient" fill="url(#radialGradient-1)"></path>
                <path d="M9.3125,15.5625 C14.99171,27.5593751 24.0625,17.8584874 24.0625,17.8584874 C17.5737266,19.6576926 9.3125,15.5625 9.3125,15.5625 Z" id="smile" fill="#FFFFFF"></path>
            </g>
        </g>
    </g>
</svg>