<?xml version="1.0" encoding="UTF-8"?>
<svg width="50px" height="50px" viewBox="0 0 50 50" version="1.1" xmlns="http://www.w3.org/2000/svg" xmlns:xlink="http://www.w3.org/1999/xlink">
    <title>logo</title>
    <defs>
        <radialGradient cx="37.7504003%" cy="34.6927493%" fx="37.7504003%" fy="34.6927493%" r="68.482966%" gradientTransform="translate(0.377504,0.346927),scale(0.979592,1.000000),rotate(50.580179),translate(-0.377504,-0.346927)" id="radialGradient-1">
            <stop stop-color="#A2A2A2" offset="0%"></stop>
            <stop stop-color="#686565" offset="69.8044143%"></stop>
            <stop stop-color="#000000" offset="100%"></stop>
        </radialGradient>
    </defs>
    <g id="Page-1" stroke="none" stroke-width="1" fill="none" fill-rule="evenodd">
        <g id="logo" fill-rule="nonzero">
            <path d="M14.2716266,0 L35.7283734,0 C40.6909289,0 42.4904714,0.516705063 44.3047075,1.48696915 C46.1189436,2.45723323 47.5427669,3.88105636 48.5130309,5.69529247 C49.4832948,7.50952858 50,9.30907111 50,14.2716266 L50,35.7283734 C50,40.6909289 49.4832948,42.4904714 48.5130309,44.3047075 C47.5427669,46.1189436 46.1189436,47.5427669 44.3047075,48.5130309 C42.4904714,49.4832948 40.6909289,50 35.7283734,50 L14.2716266,50 C9.30907111,50 7.50952858,49.4832948 5.69529247,48.5130309 C3.88105636,47.5427669 2.45723323,46.1189436 1.48696915,44.3047075 C0.516705063,42.4904714 0,40.6909289 0,35.7283734 L0,14.2716266 C0,9.30907111 0.516705063,7.50952858 1.48696915,5.69529247 C2.45723323,3.88105636 3.88105636,2.45723323 5.69529247,1.48696915 C7.50952858,0.516705063 9.30907111,0 14.2716266,0 Z" id="trans-bg" fill-opacity="0.01" fill="#FFFFFF"></path>
            <g id="Malteaser" transform="translate(3.515625, 3.906250)">
                <path d="M22.3415325,0.0149289432 C34.2273,0.449920098 43.5004955,10.2390961 43.0507119,21.8807344 C42.6104983,33.5223727 32.6195633,42.6075003 20.7337958,42.1725092 C8.84802839,41.7375181 -0.425167019,31.9483422 0.0150465913,20.3067039 C0.464830063,8.66506556 10.455765,-0.419124731 22.3415325,0.0149289432 Z" id="headgradient" fill="url(#radialGradient-1)"></path>
                <path d="M14.5507813,24.3164062 C23.4245469,43.0615236 37.5976563,27.9038866 37.5976563,27.9038866 C27.4589478,30.7151447 14.5507813,24.3164062 14.5507813,24.3164062 Z" id="smile" fill="#FFFFFF"></path>
            </g>
        </g>
    </g>
</svg>