<?xml version="1.0" encoding="UTF-8"?>
<svg width="850px" height="450px" viewBox="0 0 850 450" version="1.1" xmlns="http://www.w3.org/2000/svg" xmlns:xlink="http://www.w3.org/1999/xlink">
    <title>home</title>
    <defs>
        <radialGradient cx="49.999%" cy="49.9995%" fx="49.999%" fy="49.9995%" r="177.797392%" gradientTransform="translate(0.499990,0.499995),scale(0.390270,1.000000),rotate(180.000000),translate(-0.499990,-0.499995)" id="radialGradient-1">
            <stop stop-color="#DAEFF3" offset="0%"></stop>
            <stop stop-color="#6EC1D4" offset="100%"></stop>
        </radialGradient>
    </defs>
    <g id="Page-1" stroke="none" stroke-width="1" fill="none" fill-rule="evenodd">
        <g id="home" fill-rule="nonzero">
            <polygon id="BluSky" fill="url(#radialGradient-1)" points="0 450 850 447.786073 831.617142 118.270313 12.6672608 118.270313"></polygon>
            <g id="Group" transform="translate(22.500447, 126.778287)">
                <path d="M821.658391,75.4418166 L700.545561,75.4418166 C700.545561,75.4418166 727.656959,73.3468086 761.101976,73.3468086 C794.544559,73.3468086 821.658391,75.4418166 821.658391,75.4418166" id="Fill-9" fill="#A6D4D1"></path>
                <path d="M700.545561,75.4418166 C700.545561,75.4418166 727.656959,76.8400958 761.101976,76.8400958 C794.542125,76.8400958 821.658391,75.4418166 821.658391,75.4418166 L700.545561,75.4418166 Z" id="Fill-10" fill="#DEF0EE"></path>
                <path d="M707.344101,68.8626718 C698.0311,67.2980456 693.211512,58.3297721 696.602262,48.8383493 C700.002749,39.3421048 710.430584,32.9100204 719.879897,34.4770575 C720.595533,34.5975988 721.272222,34.7735891 721.936741,34.9760985 C721.98299,34.8362706 721.992726,34.7012643 722.043843,34.5662581 C723.791552,29.8145196 729.049284,26.5984774 733.781243,27.3844068 C735.385338,27.6471868 736.692469,28.365613 737.690464,29.3516409 C745.228981,20.8583002 756.834937,15.9763771 767.525659,17.7435127 C782.011197,20.139874 789.075057,33.859886 783.349972,48.3875248 C782.685453,50.0823356 781.865149,51.7096433 780.928007,53.2694478 C783.693185,51.8253629 786.779668,51.1889048 789.70063,51.6783025 C796.197337,52.7655852 799.31303,59.0168575 796.669559,65.6345755 C796.03425,67.2281316 795.119015,68.693914 794.016352,69.9909385 C795.167698,69.6220821 796.350687,69.4726108 797.499599,69.6654769 C800.440035,70.164518 802.131758,72.5657009 801.883477,75.4418166 L746.334078,75.4418166 C728.56976,72.4403379 711.479697,69.5618114 707.344101,68.8626718" id="Fill-11" fill="#A6D4D1"></path>
                <path d="M706.058878,68.8626718 C696.473253,67.2980456 689.986283,58.3297721 691.563603,48.8383493 C693.148225,39.3421048 702.195905,32.9100204 711.783964,34.4770575 C712.514204,34.5975988 713.215235,34.7735891 713.904095,34.9760985 C713.923568,34.8362706 713.908964,34.7012643 713.930871,34.5662581 C714.721965,29.8145196 719.25189,26.5984774 724.044702,27.3844068 C725.670705,27.6471868 727.09224,28.365613 728.270361,29.3516409 C733.94433,20.8583002 744.289405,15.9763771 755.096965,17.7435127 C769.765063,20.139874 779.696335,33.859886 777.27437,48.3875248 C776.99201,50.0823356 776.541695,51.7096433 775.962371,53.2694478 C778.374599,51.8253629 781.295561,51.1889048 784.294416,51.6783025 C790.976117,52.7655852 795.501174,59.0168575 794.396077,65.6345755 C794.13319,67.2281316 793.5563,68.693914 792.757904,69.9909385 C793.816753,69.6220821 794.968099,69.4726108 796.155957,69.6654769 C799.208362,70.164518 801.457503,72.5657009 801.883477,75.4418166 L746.334078,75.4418166 C727.956358,72.4403379 710.323482,69.5618114 706.058878,68.8626718" id="Fill-12" fill="#FFFFFE"></path>
                <path d="M432.204067,59.6701914 L307.734565,59.6701914 C307.734565,59.6701914 335.595676,57.5173236 369.968099,57.5173236 C404.338087,57.5173236 432.204067,59.6701914 432.204067,59.6701914" id="Fill-13" fill="#A6D4D1"></path>
                <path d="M432.204067,59.6701914 L307.734565,59.6701914 C307.734565,59.6701914 335.595676,61.104633 369.968099,61.104633 C404.335653,61.104633 432.204067,59.6701914 432.204067,59.6701914" id="Fill-14" fill="#DEF0EE"></path>
                <path d="M119.679124,68.3780957 L0,68.3780957 C0,68.3780957 26.7910653,66.1697789 59.8407789,66.1697789 C92.8870848,66.1697789 119.679124,68.3780957 119.679124,68.3780957" id="Fill-21" fill="#A6D4D1"></path>
                <path d="M119.679124,68.3780957 L0,68.3780957 C0,68.3780957 26.7910653,69.8535214 59.8407789,69.8535214 C92.8870848,69.8535214 119.679124,68.3780957 119.679124,68.3780957" id="Fill-22" fill="#DEF0EE"></path>
                <path d="M22.0617841,57.9946672 C21.7360968,48.0958148 29.7278494,38.8334205 39.9112973,37.300135 C40.6851088,37.1844153 41.444559,37.133788 42.194516,37.1120905 C42.18624,36.9698518 42.1409651,36.8396672 42.1363402,36.6974284 C41.9759307,31.7480022 45.9730241,27.1143942 51.064748,26.3477515 C52.7927406,26.0873822 54.4055985,26.3381082 55.8176403,26.9384039 C59.910882,16.7116791 69.5512744,8.56067565 81.0277348,6.83934573 C96.6096077,4.49602265 109.643184,14.8794512 110.135123,30.0242615 C110.194759,31.7913971 110.063803,33.5488894 109.788259,35.275041 C111.973869,33.069135 114.844201,31.5020979 118.030727,31.0223435 C125.128666,29.9543475 131.063087,34.6819777 131.288975,41.5817623 C131.343499,43.2428216 131.054811,44.8773618 130.497394,46.4178797 C131.514619,45.7115077 132.664018,45.1955908 133.925143,45.0075464 C137.938789,44.402429 141.291566,47.0784461 141.420089,50.9767521 C141.547151,54.8798798 138.401031,58.5274598 134.388603,59.1277556 C131.842741,59.5086661 99.0473941,64.4388057 72.8268901,68.3780957 L26.2930412,68.3780957 C23.7734679,65.7093111 22.1949313,62.131645 22.0617841,57.9946672" id="Fill-23" fill="#A6D4D1"></path>
                <path d="M20.7782646,57.9946672 C19.2330756,48.0958148 26.0790808,38.8334205 36.0770475,37.300135 C36.8355241,37.1844153 37.5866982,37.133788 38.3354382,37.1120905 C38.3069588,36.9698518 38.2485395,36.8396672 38.2261455,36.6974284 C37.4557417,31.7480022 40.878866,27.1143942 45.8778494,26.3477515 C47.5727377,26.0873822 49.2165092,26.3381082 50.7020619,26.9384039 C53.5344215,16.7116791 62.1668385,8.56067565 73.4305556,6.83934573 C88.7247137,4.49602265 103.037185,14.8794512 105.402434,30.0242615 C105.678222,31.7913971 105.76366,33.5488894 105.702076,35.275041 C107.61555,33.069135 110.294559,31.5020979 113.421449,31.0223435 C120.386483,29.9543475 126.905584,34.6819777 127.982446,41.5817623 C128.241438,43.2428216 128.153565,44.8773618 127.785037,46.4178797 C128.715607,45.7115077 129.804396,45.1955908 131.04045,45.0075464 C134.97815,44.402429 138.6627,47.0784461 139.272451,50.9767521 C139.879768,54.8798798 137.183963,58.5274598 133.246506,59.1277556 C130.74811,59.5086661 98.5612973,64.4388057 72.8268901,68.3780957 L26.2930412,68.3780957 C23.4453465,65.7093111 21.4235538,62.131645 20.7782646,57.9946672" id="clouss" fill="#FFFFFE"></path>
            </g>
            <g id="Sun" transform="translate(318.923586, 0.000000)">
                <path d="M195.266323,142.321197 L0,142.321197 C0,142.321197 43.7097652,139.809116 97.6307274,139.809116 C151.554124,139.809116 195.266323,142.321197 195.266323,142.321197" id="Fill-25" fill="#A6D4D1"></path>
                <path d="M195.266323,142.321197 L0,142.321197 C0,142.321197 43.7097652,143.997445 97.6307274,143.997445 C151.554124,143.997445 195.266323,142.321197 195.266323,142.321197" id="Fill-26" fill="#DEF0EE"></path>
                <path d="M190.376146,82.0599439 C196.398196,36.8121109 164.128866,0 118.440149,0 C72.7587343,0 30.6920103,36.8121109 24.6699599,82.0599439 C21.5031501,105.862031 28.9443013,127.318143 43.3446449,142.321197 L155.665378,142.321197 C174.062572,127.318143 187.209336,105.862031 190.376146,82.0599439" id="Fill-27" fill="#90CBC9"></path>
                <path d="M182.35567,82.0599439 C182.35567,36.8121109 145.193729,0 99.5050115,0 C53.8187285,0 16.6519187,36.8121109 16.6519187,82.0599439 C16.6519187,105.862031 26.9458763,127.318143 43.3446449,142.321197 L155.665378,142.321197 C172.066581,127.318143 182.35567,105.862031 182.35567,82.0599439" id="Fill-28" fill="#FFFFFE"></path>
                <path d="M170.260453,82.0599439 C170.260453,43.3548522 138.585052,11.9798776 99.5050115,11.9798776 C60.4274055,11.9798776 28.7495705,43.3548522 28.7495705,82.0599439 C28.7495705,107.696188 42.6557847,130.104576 63.3946163,142.321197 L135.617841,142.321197 C156.356672,130.104576 170.260453,107.696188 170.260453,82.0599439" id="Fill-29" fill="#F8CC24"></path>
                <path d="M36.5972222,49.9964373 C31.5926403,59.6067139 28.7495705,70.5002732 28.7495705,82.0599439 C28.7495705,83.1947198 28.7812142,84.3234686 28.8347652,85.4488423 C66.8876002,59.4514567 83.9508878,69.4571087 99.5050115,82.0599439 C92.3973368,63.4442671 82.6754009,46.3259544 36.5972222,49.9964373" id="Fill-30" fill="#FCEB24"></path>
                <path d="M62.8785796,78.3718619 C53.5826174,81.6443174 43.0817583,89.3570326 31.4563288,101.242888 C34.8957617,113.235784 41.4703608,123.913816 50.2624571,132.356529 C54.3298969,116.312963 59.5267755,104.43892 65.9236827,97.0027269 C75.3462199,85.4760846 87.4243986,83.7713894 99.5050115,82.0599439 C88.1838488,77.5584491 76.8578179,73.0545436 62.8785796,78.3718619" id="Fill-31" fill="#FCEB24"></path>
                <path d="M99.5050115,82.0599439 C80.9958477,88.9898638 63.9715063,98.4624822 66.9922681,142.321197 L96.6741123,142.321197 C78.534937,111.321829 87.935567,96.0680496 99.5050115,82.0599439" id="Fill-33" fill="#FCEB24"></path>
                <path d="M103.226804,45.7844829 C99.9236827,36.5768143 92.1368843,26.1777154 80.136598,14.6604753 C68.0267755,18.0681782 57.2459908,24.5815074 48.7240836,33.2865187 C64.9232532,37.3159736 76.9089347,42.4626054 84.4182417,48.8004264 C96.0558419,58.1329758 97.7767755,70.0952544 99.5050115,82.0599439 C104.049542,70.843816 108.596506,59.63034 103.226804,45.7844829" id="Fill-34" fill="#FCEB24"></path>
                <path d="M170.175258,78.6720098 C132.119989,104.669636 115.061569,94.6601271 99.5050115,82.0599439 C106.612686,100.67321 116.337056,117.791522 162.415235,114.12345 C167.417383,104.510763 170.260453,93.6172037 170.260453,82.0599439 C170.260453,80.9227571 170.231243,79.7949726 170.175258,78.6720098" id="Fill-35" fill="#FCEB24"></path>
                <path d="M136.131443,85.7468204 C145.42984,82.4743649 155.928265,74.7604442 167.556128,62.8757942 C164.116695,50.8816927 157.539662,40.2048667 148.75,31.7609478 C144.68256,47.8045141 139.483247,59.6797619 133.083906,67.11475 C123.661369,78.6438031 111.58319,80.3494627 99.5050115,82.0599439 C110.828608,86.5590277 122.149771,91.0629333 136.131443,85.7468204" id="Fill-36" fill="#FCEB24"></path>
                <path d="M128.03551,59.0158204 C132.273339,50.1905088 134.191438,37.3842 133.928551,20.8370121 C122.933562,14.7638998 110.660653,11.8197988 98.4169531,12.00712 C106.992411,26.2001361 111.79496,38.236427 112.581186,47.976406 C114.148769,62.726323 106.82689,72.3918075 99.5050115,82.0599439 C110.72394,77.3113395 121.947738,72.5673156 128.03551,59.0158204" id="Fill-37" fill="#FCEB24"></path>
                <path d="M150.288373,130.832164 C134.089204,126.801503 122.101088,121.653666 114.594215,115.319461 C102.956615,105.986912 101.230813,94.0222225 99.5050115,82.0599439 C94.9629153,93.2746253 90.4159508,104.489548 95.7832188,118.334199 C98.3877434,125.599465 103.798826,133.608953 111.855813,142.321197 L135.581329,142.321197 C140.989977,139.142764 145.93614,135.277004 150.288373,130.832164" id="Fill-32" fill="#FCEB24"></path>
            </g>
        </g>
    </g>
</svg>