<?xml version="1.0" encoding="UTF-8"?>
<svg width="755px" height="293px" viewBox="0 0 755 293" version="1.1" xmlns="http://www.w3.org/2000/svg" xmlns:xlink="http://www.w3.org/1999/xlink">
    <title>timemachine</title>
    <g id="Page-1" stroke="none" stroke-width="1" fill="none" fill-rule="evenodd">
        <g id="timemachine" fill-rule="nonzero">
            <path d="M673.673232,62 C670.370197,62 667.69234,59.3155264 667.69234,56.0043287 C667.69234,55.8925273 667.696034,55.781431 667.702015,55.6712165 C666.464673,56.0568792 665.149053,56.2647881 663.785234,56.2647881 C662.797859,56.2647881 661.837398,56.1524571 660.912119,55.9461356 C655.019884,54.6313204 650.613374,49.3634181 650.613374,43.060557 C650.613374,35.7680574 656.510534,29.8561494 663.785234,29.8561494 C663.987001,29.8561494 664.187537,29.8626741 664.387193,29.8714913 C663.461914,29.6649933 662.501453,29.552839 661.514078,29.552839 C654.239554,29.552839 648.342394,35.4645707 648.342394,42.7570703 C648.342394,45.5566958 649.214021,48.1507051 650.696579,50.287104 C649.135214,51.2293058 647.306996,51.7720904 645.351947,51.7720904 C642.466167,51.7720904 639.856211,50.5902381 637.975045,48.6844961 C636.442177,50.1587259 634.362937,51.0667173 632.070848,51.0667173 C627.35896,51.0667173 623.539281,47.2374236 623.539281,42.5140689 C623.539281,40.8030104 624.04238,39.210807 624.905739,37.8739487 C622.000081,36.4397489 620,33.4431478 620,29.9771209 C620,25.7052053 623.03759,22.1457164 627.065017,21.3472341 C626.15944,20.0177822 625.629075,18.4111188 625.629075,16.6797805 C625.629075,12.102262 629.33072,8.391647 633.896779,8.391647 C635.233861,8.391647 636.495829,8.71171 637.613552,9.2767139 C638.220965,6.8747423 640.391501,5.0973785 642.976654,5.0973785 C644.225429,5.0973785 645.377279,5.5124905 646.303437,6.2120443 C646.275995,6.50883 646.260163,6.8087899 646.260163,7.1128056 C646.260163,9.2266324 646.938819,11.1805158 648.086799,12.7718374 L648.078179,12.7938803 L648.113185,12.8086932 C648.510914,13.3548283 648.963703,13.8577593 649.464515,14.308669 C648.711802,12.9314281 648.283288,11.3508634 648.283288,9.669783 C648.283288,4.3292272 652.601845,0 657.929237,0 C660.405326,0 662.662761,0.9363828 664.370834,2.4739197 C665.469207,3.4626764 666.338195,4.7007825 666.893011,6.0988319 C668.345137,4.2576318 670.591138,3.0747212 673.114371,3.0747212 C676.316962,3.0747212 679.069229,4.9822263 680.320466,7.722248 C681.490083,5.2215241 684.016482,3.4857774 686.953804,3.4857774 C690.527211,3.4857774 693.499714,6.0503375 694.14829,9.4431819 C695.358189,8.3380387 696.961772,7.6584117 698.727718,7.6584117 C702.488116,7.6584117 705.536612,10.7144405 705.536612,14.4843069 C705.536612,15.0225065 705.468184,15.5436009 705.350501,16.0460029 C704.692779,15.9275002 704.016762,15.8622532 703.324914,15.8622532 C700.937482,15.8622532 698.722617,16.6000734 696.892112,17.8591643 C694.363954,13.2573104 689.480731,10.1383271 683.869774,10.1383271 C675.663638,10.1383271 669.011654,16.8069241 669.011654,25.0331611 C669.011654,25.4719031 669.034347,25.9051785 669.071463,26.3342217 C669.883281,18.877194 676.184152,13.0733844 683.838814,13.0733844 C688.632675,13.0733844 692.893182,15.3513867 695.609914,18.8837187 C693.353359,20.9696832 691.938526,23.9571145 691.938526,27.2769528 C691.938526,27.7588989 691.971772,28.2327333 692.029646,28.6989849 C692.728531,23.0664046 697.517291,18.7064937 703.324914,18.7064937 C709.132888,18.7064937 713.921824,23.0664046 714.620533,28.6989849 C714.678407,28.2327333 714.711653,27.7588989 714.711653,27.2769528 C714.711653,26.2051384 714.561076,25.1694744 714.285603,24.186008 C715.80387,23.1489333 717.637717,22.5419598 719.613523,22.5419598 C723.652911,22.5419598 727.099841,25.0775996 728.462253,28.6467873 C727.685968,29.7554574 727.226319,31.1036017 727.226319,32.5610788 C727.226319,32.6538353 727.236522,32.7444758 727.240215,32.8365269 C728.053265,29.9788843 730.671489,27.884279 733.783136,27.884279 C737.451358,27.884279 740.433009,30.7935902 740.579013,34.434726 C740.747885,33.8386858 740.844635,33.2116091 740.844635,32.5610788 C740.844635,28.7912124 737.796139,25.7351836 734.035213,25.7351836 C732.028975,25.7351836 730.231189,26.6103753 728.985053,27.9944935 C728.526283,24.8606973 726.541331,22.2255999 723.810878,20.8702256 C724.907492,20.1130076 726.234722,19.6675645 727.667146,19.6675645 C730.206387,19.6675645 732.416678,21.0638505 733.587174,23.1295355 C734.34833,22.5257362 735.307032,22.1624691 736.353689,22.1624691 C738.816409,22.1624691 740.814731,24.1646705 740.814731,26.6347106 C740.814731,27.1166568 740.735572,27.5799105 740.594845,28.0149494 C741.022303,27.9306573 741.463833,27.884279 741.915919,27.884279 C744.957378,27.884279 747.53268,29.884188 748.405187,32.6432547 C748.997999,32.3693937 749.654138,32.2120955 750.350736,32.2120955 C752.919002,32.2120955 755,34.2992943 755,36.873906 C755,39.4486941 752.919002,41.5358929 750.350736,41.5358929 C749.729778,41.5358929 749.140485,41.4122765 748.600445,41.1911419 C748.586372,43.1413221 747.006713,44.7183598 745.057646,44.7183598 C743.940626,44.7183598 742.944984,44.1993815 742.295881,43.3903188 C741.868423,46.2564258 739.403943,48.4548975 736.425811,48.4548975 C734.056674,48.4548975 732.01244,47.0639015 731.059895,45.0527068 C730.107526,47.0639015 728.063292,48.4548975 725.694859,48.4548975 C724.183628,48.4548975 722.805208,47.8877774 721.757145,46.955627 C721.981252,46.2107532 722.103157,45.4212641 722.103157,44.6030313 C722.103157,40.1080415 718.468006,36.4640843 713.984271,36.4640843 C713.530779,36.4640843 713.086434,36.5032325 712.653171,36.5748279 C716.868644,36.8707319 720.197363,40.3901908 720.197363,44.6913795 C720.197363,48.7314035 717.259865,52.0824546 713.409578,52.7194066 C712.976315,52.791002 712.53197,52.8299737 712.078477,52.8299737 C709.454976,52.8299737 707.12366,51.5814634 705.639343,49.6459198 C707.254008,47.3763818 707.664403,44.3349897 706.451513,41.6041378 C706.267161,41.1886731 706.050969,40.7975437 705.809271,40.429868 C707.254184,44.4108174 705.400635,48.890818 701.48104,50.6399668 C700.408701,51.1183861 699.288339,51.3449873 698.18592,51.3449873 C696.297365,51.3449873 694.461231,50.6803494 693.008754,49.4794517 C692.940853,49.6921215 692.865036,49.9010887 692.784118,50.1075862 C691.293293,53.9039045 687.605897,56.5920812 683.289628,56.5920812 C682.524777,56.5920812 681.78086,56.5051438 681.064032,56.3450241 C676.500083,55.3268181 673.086929,51.2462351 673.086929,46.3641715 C673.086929,40.7155441 677.654748,36.1362621 683.289628,36.1362621 C683.44601,36.1362621 683.601162,36.1410234 683.755961,36.1480772 C683.03931,35.9881338 682.295216,35.9011966 681.530541,35.9011966 C675.895662,35.9011966 671.327843,40.4803022 671.327843,46.1291059 C671.327843,51.1333753 674.913915,55.2952526 679.649551,56.1806721 C679.556495,59.4100464 676.917339,62 673.673232,62" id="cloud3" fill="#E7E7E7"></path>
            <path d="M81.1062179,138 C76.1149638,138 72.0684249,133.929992 72.0684249,128.909789 C72.0684249,128.740283 72.0740067,128.571847 72.0830449,128.404748 C70.2132843,128.989462 68.2252363,129.304679 66.1643534,129.304679 C64.6723201,129.304679 63.220957,129.13437 61.8227574,128.82156 C52.9189363,126.828131 46.2602089,118.841311 46.2602089,109.285361 C46.2602089,98.22899 55.1714733,89.265775 66.1643534,89.265775 C66.4692459,89.265775 66.7722776,89.275667 67.073981,89.289035 C65.6757813,88.975958 64.2244175,88.805917 62.7323842,88.805917 C51.73977,88.805917 42.8285063,97.768865 42.8285063,108.825236 C42.8285063,113.069829 44.1456315,117.002682 46.3859412,120.241738 C44.0265455,121.670238 41.2639049,122.493169 38.3096094,122.493169 C33.9488746,122.493169 30.0049409,120.701329 27.1622896,117.811978 C24.8459561,120.0471 21.7039941,121.423733 18.2403928,121.423733 C11.1202069,121.423733 5.3482469,115.618029 5.3482469,108.456814 C5.3482469,105.862629 6.1084848,103.448643 7.4131168,101.421793 C3.0223443,99.247361 0,94.704127 0,89.449183 C0,82.972408 4.5901356,77.575764 10.6760259,76.365161 C9.3075977,74.349541 8.5061581,71.913632 8.5061581,69.2887 C8.5061581,62.348591 14.0997544,56.72282 20.9995777,56.72282 C23.0200563,56.72282 24.9270306,57.208077 26.6160346,58.064695 C27.5339025,54.422996 30.8138234,51.728284 34.7202766,51.728284 C36.6073144,51.728284 38.3478876,52.357647 39.7474163,53.418261 C39.7059483,53.868226 39.6820248,54.323004 39.6820248,54.783931 C39.6820248,57.988765 40.7075486,60.951105 42.4422734,63.363754 L42.4292483,63.397173 L42.4821458,63.419632 C43.0831592,64.247643 43.7673731,65.010151 44.5241558,65.693788 C43.3867227,63.605714 42.7391914,61.209374 42.7391914,58.660639 C42.7391914,50.563667 49.2650099,44 57.3152907,44 C61.0569371,44 64.4681721,45.419677 67.0492597,47.750781 C68.7090237,49.249864 70.0221621,51.126993 70.8605504,53.246616 C73.0548733,50.455119 76.4488303,48.661674 80.2617159,48.661674 C85.101188,48.661674 89.260168,51.553698 91.150927,55.707924 C92.918347,51.916504 96.736017,49.284888 101.174637,49.284888 C106.574452,49.284888 111.066235,53.173092 112.046305,58.317082 C113.874597,56.641542 116.297789,55.61114 118.96633,55.61114 C124.648709,55.61114 129.255325,60.244474 129.255325,65.960078 C129.255325,66.776058 129.151922,67.566105 128.974091,68.327811 C127.980199,68.148145 126.958663,68.049223 125.913203,68.049223 C122.305529,68.049223 118.958621,69.167853 116.192525,71.076798 C112.372197,64.099793 104.993105,59.371012 96.514325,59.371012 C84.113942,59.371012 74.0620554,69.481466 74.0620554,81.953502 C74.0620554,82.618692 74.096346,83.275593 74.1524333,83.926078 C75.3791806,72.620262 84.9004959,63.820938 96.467541,63.820938 C103.711598,63.820938 110.149697,67.274683 114.254982,72.630154 C110.845075,75.792745 108.707105,80.322077 108.707105,85.35538 C108.707105,86.086073 108.757345,86.804467 108.844799,87.511364 C109.900892,78.971646 117.13724,72.361458 125.913203,72.361458 C134.689698,72.361458 141.926311,78.971646 142.982138,87.511364 C143.069592,86.804467 143.119832,86.086073 143.119832,85.35538 C143.119832,83.730371 142.892292,82.160171 142.476022,80.669109 C144.770292,79.09677 147.541439,78.17652 150.527101,78.17652 C156.631066,78.17652 161.839759,82.020877 163.898515,87.432226 C162.725463,89.113113 162.030882,91.157073 162.030882,93.366797 C162.030882,93.507428 162.046299,93.64485 162.051881,93.784412 C163.28049,89.451857 167.236916,86.276165 171.938961,86.276165 C177.482053,86.276165 181.987658,90.687056 182.208287,96.207488 C182.463471,95.303814 182.609671,94.353085 182.609671,93.366797 C182.609671,87.651193 178.003054,83.017859 172.319877,83.017859 C169.28823,83.017859 166.571575,84.344762 164.688525,86.443264 C163.995273,81.692025 160.995788,77.696877 156.869771,75.641955 C158.526876,74.493915 160.532469,73.818566 162.69702,73.818566 C166.534095,73.818566 169.874091,75.935515 171.642841,79.06736 C172.793032,78.151923 174.241737,77.601163 175.823352,77.601163 C179.544795,77.601163 182.564482,80.636758 182.564482,84.381658 C182.564482,85.112351 182.444864,85.814703 182.23221,86.474278 C182.878146,86.34648 183.545348,86.276165 184.228499,86.276165 C188.824482,86.276165 192.71605,89.308285 194.034504,93.491386 C194.930309,93.076177 195.921808,92.837693 196.974445,92.837693 C200.85538,92.837693 204,96.002156 204,99.905599 C204,103.80931 200.85538,106.973773 196.974445,106.973773 C196.036109,106.973773 195.145621,106.786355 194.329562,106.451086 C194.308296,109.407811 191.921255,111.798803 188.975998,111.798803 C187.288058,111.798803 185.783531,111.011965 184.802665,109.785322 C184.156728,114.13071 180.432626,117.463877 175.932336,117.463877 C172.352307,117.463877 169.263242,115.354947 167.823841,112.305717 C166.384706,115.354947 163.295641,117.463877 159.716675,117.463877 C157.433038,117.463877 155.350092,116.60405 153.766352,115.190789 C154.105003,114.061464 154.289215,112.864497 154.289215,111.623951 C154.289215,104.808966 148.796098,99.284257 142.020677,99.284257 C141.335399,99.284257 140.663944,99.343611 140.009236,99.452158 C146.379285,99.900787 151.409348,105.236741 151.409348,111.757898 C151.409348,117.883096 146.970463,122.963721 141.152251,123.929423 C140.497543,124.037971 139.826088,124.097057 139.14081,124.097057 C135.176409,124.097057 131.653531,122.204154 129.410563,119.26962 C131.850501,115.828708 132.470653,111.217565 130.637842,107.077241 C130.359265,106.447343 130.032576,105.85434 129.667343,105.296897 C131.850767,111.33253 129.049848,118.124789 123.126904,120.776724 C121.506481,121.502069 119.81349,121.845626 118.147612,121.845626 C115.293796,121.845626 112.519194,120.837949 110.324339,119.017233 C110.221733,119.339668 110.107166,119.656489 109.98489,119.969566 C107.732087,125.725275 102.160022,129.800897 95.637659,129.800897 C94.481885,129.800897 93.357743,129.669089 92.274537,129.426327 C85.377904,127.882595 80.2202479,121.695905 80.2202479,114.294067 C80.2202479,105.730018 87.12273,98.787236 95.637659,98.787236 C95.873971,98.787236 96.108422,98.794455 96.342342,98.805149 C95.259402,98.562654 94.134994,98.430846 92.979485,98.430846 C84.4645553,98.430846 77.5620734,105.373361 77.5620734,113.937677 C77.5620734,121.524795 82.9810277,127.834738 90.137099,129.177148 C89.996482,134.073296 86.008423,138 81.1062179,138" id="cloud1" fill="#E7E7E7"></path>
            <path d="M291.383674,255 C287.175362,255 283.763574,251.579461 283.763574,247.360354 C283.763574,247.217898 283.76828,247.07634 283.775901,246.935905 C282.199436,247.427314 280.523238,247.69223 278.785631,247.69223 C277.527642,247.69223 276.303944,247.549099 275.12507,247.286205 C267.617927,245.610876 262.003706,238.898549 262.003706,230.867484 C262.003706,221.575428 269.517125,214.042513 278.785631,214.042513 C279.042698,214.042513 279.298195,214.050827 279.552572,214.062061 C278.373698,213.798943 277.149999,213.656037 275.89201,213.656037 C266.623728,213.656037 259.110309,221.188727 259.110309,230.480783 C259.110309,234.048048 260.220827,237.353318 262.109715,240.075503 C260.120421,241.276051 257.791135,241.967664 255.300259,241.967664 C251.623561,241.967664 248.298284,240.461755 245.901538,238.033471 C243.948551,239.911925 241.299446,241.068882 238.379155,241.068882 C232.375861,241.068882 227.509306,236.18962 227.509306,230.171152 C227.509306,227.990933 228.150291,225.962157 229.250275,224.258741 C225.548251,222.431293 223,218.613043 223,214.196654 C223,208.753407 226.870114,204.217929 232.001355,203.200508 C230.847582,201.506529 230.171859,199.459329 230.171859,197.253269 C230.171859,191.420624 234.888028,186.692583 240.705526,186.692583 C242.409067,186.692583 244.016908,187.100405 245.44097,187.820329 C246.214859,184.759752 248.980282,182.495047 252.273959,182.495047 C253.864991,182.495047 255.332533,183.02398 256.512527,183.915347 C256.477564,184.293509 256.457393,184.675716 256.457393,185.063091 C256.457393,187.756515 257.322051,190.246141 258.784662,192.273793 L258.77368,192.30188 L258.81828,192.320754 C259.325017,193.016636 259.901903,193.657467 260.539975,194.232014 C259.580962,192.477142 259.035005,190.463197 259.035005,188.321175 C259.035005,181.516273 264.537165,176 271.324657,176 C274.479378,176 277.355518,177.193133 279.531729,179.152252 C280.931138,180.41212 282.038293,181.989707 282.74517,183.771092 C284.595285,181.425047 287.456857,179.91779 290.671643,179.91779 C294.751982,179.91779 298.258573,182.348321 299.852742,185.839639 C301.34292,182.653232 304.56174,180.441555 308.304105,180.441555 C312.856891,180.441555 316.644081,183.709301 317.470414,188.032441 C319.011915,186.624275 321.054998,185.758299 323.304945,185.758299 C328.095971,185.758299 331.97998,189.652271 331.97998,194.45581 C331.97998,195.141581 331.892797,195.805556 331.742861,196.445713 C330.904874,196.294718 330.043578,196.211581 329.162112,196.211581 C326.120348,196.211581 323.298445,197.151706 320.966247,198.756032 C317.745186,192.892379 311.523598,188.918191 304.374823,188.918191 C293.919598,188.918191 285.444478,197.415274 285.444478,207.897092 C285.444478,208.456135 285.47339,209.008211 285.520679,209.554895 C286.554995,200.053199 294.582771,192.658022 304.335378,192.658022 C310.443112,192.658022 315.871313,195.560638 319.332632,200.061513 C316.457612,202.719435 314.65501,206.526001 314.65501,210.756117 C314.65501,211.37021 314.697369,211.973967 314.771105,212.568061 C315.661536,205.391064 321.762771,199.835694 329.162112,199.835694 C336.561902,199.835694 342.663361,205.391064 343.553567,212.568061 C343.627303,211.973967 343.669662,211.37021 343.669662,210.756117 C343.669662,209.390418 343.477815,208.070782 343.126842,206.817655 C345.061227,205.496221 347.397684,204.72282 349.915006,204.72282 C355.061487,204.72282 359.45313,207.953716 361.188944,212.501552 C360.1999,213.914212 359.614273,215.632009 359.614273,217.489117 C359.614273,217.607306 359.627272,217.7228 359.631978,217.840091 C360.667864,214.198901 364.003674,211.529968 367.968143,211.529968 C372.641731,211.529968 376.440574,215.236994 376.626595,219.876506 C376.84175,219.117035 376.965016,218.318018 376.965016,217.489117 C376.965016,212.685577 373.081007,208.791605 368.289308,208.791605 C365.733213,208.791605 363.442701,209.906768 361.855031,211.670403 C361.270524,207.67734 358.741547,204.319716 355.262748,202.592707 C356.659915,201.627864 358.350905,201.060284 360.175919,201.060284 C363.4111,201.060284 366.227175,202.839422 367.718473,205.471505 C368.688243,204.702148 369.9097,204.239275 371.243218,204.239275 C374.380906,204.239275 376.926916,206.790467 376.926916,209.937776 C376.926916,210.551869 376.826062,211.142144 376.646765,211.696468 C377.191378,211.589063 377.753921,211.529968 378.329911,211.529968 C382.204956,211.529968 385.486081,214.07824 386.597719,217.593825 C387.353006,217.244873 388.188975,217.044444 389.076493,217.044444 C392.348654,217.044444 395,219.70394 395,222.984493 C395,226.265271 392.348654,228.924767 389.076493,228.924767 C388.285347,228.924767 387.534544,228.767256 386.846493,228.485487 C386.828563,230.970394 384.81596,232.979845 382.332704,232.979845 C380.909539,232.979845 379.641017,232.318567 378.814011,231.287664 C378.269398,234.939639 375.129469,237.740918 371.335107,237.740918 C368.316651,237.740918 365.712146,235.96852 364.498533,233.405868 C363.285144,235.96852 360.680639,237.740918 357.663079,237.740918 C355.737659,237.740918 353.98145,237.018297 352.64614,235.830557 C352.931669,234.881444 353.086985,233.875482 353.086985,232.832895 C353.086985,227.105408 348.455533,222.462301 342.742924,222.462301 C342.16514,222.462301 341.599012,222.512183 341.047003,222.60341 C346.417828,222.980449 350.658862,227.46492 350.658862,232.945467 C350.658862,238.09324 346.916273,242.363128 342.010721,243.174728 C341.458712,243.265954 340.892584,243.315612 340.314801,243.315612 C336.972266,243.315612 334.001996,241.724768 332.110867,239.258511 C334.16807,236.36668 334.690943,232.491358 333.145632,229.011724 C332.910753,228.482342 332.635309,227.983967 332.327367,227.515477 C334.168294,232.587977 331.806735,238.296365 326.81288,240.525119 C325.446641,241.134718 324.019217,241.423452 322.614653,241.423452 C320.208495,241.423452 317.869124,240.576574 316.01856,239.046398 C315.93205,239.317381 315.835454,239.583645 315.732358,239.846763 C313.832936,244.684007 309.134921,248.109265 303.635674,248.109265 C302.661197,248.109265 301.713391,247.99849 300.8001,247.794466 C294.985291,246.497075 290.63668,241.297622 290.63668,235.076928 C290.63668,227.879484 296.456419,222.044592 303.635674,222.044592 C303.834917,222.044592 304.032591,222.050659 304.229818,222.059647 C303.31675,221.855848 302.36872,221.745073 301.394468,221.745073 C294.215213,221.745073 288.395474,227.57974 288.395474,234.777409 C288.395474,241.153817 292.964396,246.456854 298.997947,247.58505 C298.879387,251.699898 295.516906,255 291.383674,255" id="cloud2" fill="#E7E7E7"></path>
            <g id="Machine" transform="translate(399.379329, 105.872472)">
                <g id="controls" transform="translate(90.624787, 97.262041) rotate(-2.000000) translate(-90.624787, -97.262041) translate(52.949081, 83.225325)">
                    <g id="buttons" transform="translate(50.100170, 18.967786)">
                        <polygon id="Fill-120" fill="#FFFFFE" points="0 1.55149249 1.56207542 1.55149249 1.56207542 0 0 0"></polygon>
                        <polygon id="Fill-121" fill="#F4E92A" points="2.92438275 1.55149249 4.48368361 1.55149249 4.48368361 0 2.92438275 0"></polygon>
                        <polygon id="Fill-122" fill="#FFFFFE" points="5.84599095 1.55149249 7.40806637 1.55149249 7.40806637 0 5.84599095 0"></polygon>
                        <polygon id="Fill-123" fill="#F4E92A" points="8.7703737 1.55149249 10.3296746 1.55149249 10.3296746 0 8.7703737 0"></polygon>
                        <polygon id="Fill-124" fill="#F4E92A" points="11.6919819 1.55149249 13.2540573 1.55149249 13.2540573 0 11.6919819 0"></polygon>
                        <polygon id="Fill-125" fill="#FFFFFE" points="14.6163647 1.55149249 16.1756655 1.55149249 16.1756655 0 14.6163647 0"></polygon>
                        <polygon id="Fill-126" fill="#FFFFFE" points="17.5407474 1.55149249 19.1000483 1.55149249 19.1000483 0 17.5407474 0"></polygon>
                        <polygon id="Fill-127" fill="#F4E92A" points="20.4623556 1.55149249 22.024431 1.55149249 22.024431 0 20.4623556 0"></polygon>
                    </g>
                    <g id="levers" transform="translate(6.550728, -0.000000)" fill="#0A0B09">
                        <path d="M62.2194338,10.4929141 C62.2194338,9.47734159 61.3898414,8.65429206 60.3688045,8.65429206 C59.3477676,8.65429206 58.5209497,9.47734159 58.5209497,10.4929141 C58.5209497,11.3162394 59.0647629,12.012963 59.8138932,12.2474108 L59.8138932,20.422466 L60.9237158,20.422466 L60.9237158,12.2474108 C61.6756207,12.012963 62.2194338,11.3162394 62.2194338,10.4929141" id="Fill-88"></path>
                        <path d="M55.4911338,10.4929141 C55.4911338,9.47734159 54.6615414,8.65429206 53.6405045,8.65429206 C52.6194677,8.65429206 51.7926498,9.47734159 51.7926498,10.4929141 C51.7926498,11.3162394 52.3364629,12.012963 53.0855932,12.2474108 L53.0855932,20.422466 L54.1954159,20.422466 L54.1954159,12.2474108 C54.9473207,12.012963 55.4911338,11.3162394 55.4911338,10.4929141" id="Fill-89"></path>
                        <path d="M13.0903585,4.9982862 C13.1375259,3.9840928 12.3495518,3.12297999 11.3312895,3.07526298 C10.3102527,3.02754596 9.44459098,3.81142893 9.39464896,4.82562233 C9.35580516,5.64812021 9.8663236,6.36939183 10.6071302,6.63859302 L10.2186923,14.804822 L11.328515,14.8566764 L11.7141784,6.69044735 C12.4744069,6.49130467 13.0515147,5.82078409 13.0903585,4.9982862" id="Fill-90"></path>
                        <path d="M6.40367684,2.61657284 C6.83373313,1.69615854 6.43419697,0.601977084 5.50749503,0.172799783 C4.58356765,-0.256377517 3.48206865,0.141356202 3.0492378,1.0617705 C2.69964366,1.807866 2.89663719,2.66815135 3.47651953,3.19579671 L1.77635672e-15,10.6046216 L1.00716408,11.0707589 L4.48368361,3.66220983 C5.26333404,3.76536684 6.05130814,3.36266834 6.40367684,2.61657284" id="Fill-91"></path>
                    </g>
                    <path d="M1.78681451,3.48264997 L3.44169138e-15,4.90423082 C5.04969318,10.3914115 13.7229574,15.7191678 23.3756402,19.8553778 L22.7347176,15.618769 L1.78681451,3.48264997" id="Fill-9" fill="#126A71"></path>
                    <path d="M35.2673901,24.1857658 C52.9218944,29.5231757 70.6873809,30.1343948 74.0085252,21.1081563 C74.5440147,19.6496154 74.9907183,18.1797659 75.3514107,16.7049517 L49.0930061,16.859963 L35.2673901,24.1857658" id="Fill-10" fill="#126A71"></path>
                </g>
                <g id="man" transform="translate(95.019510, 88.349198) rotate(-2.000000) translate(-95.019510, -88.349198) translate(67.134486, 69.396589)">
                    <path d="M20.5525797,5.97453542 C20.6829839,2.54939164 23.579621,-0.123312753 27.0256205,0.00439231798 C30.4716199,0.13237321 33.1601653,3.01249491 33.0297611,6.43763869 C32.9021315,9.86278246 30.0054943,12.5357627 26.5594949,12.4077818 C23.1134955,12.2798009 20.4249501,9.3996792 20.5525797,5.97453542" id="Fill-128" fill="#006D73"></path>
                    <path d="M31.3927727,8.21861416 C28.4572917,9.05573055 24.7199638,7.15035986 24.7199638,7.15035986 C27.2892033,12.7321472 31.3927727,8.21861416 31.3927727,8.21861416" id="Fill-129" fill="#FFFFFE"></path>
                    <path d="M32.6773924,13.4216994 L50.9006808,8.8596219 C51.5998691,8.68502728 51.5138578,7.13601717 51.081027,5.94805661 L55.1457525,4.93082918 C55.586907,4.82022501 55.856039,4.37422263 55.7450568,3.93483996 C55.6312999,3.49545729 55.1845963,3.22873849 54.7406672,3.33961848 L47.607282,5.12583455 L47.5379181,5.15093425 L33.1823618,8.74377713 C32.2834054,10.9975096 30.2219098,12.6642952 27.6804158,12.9903155 C27.3030761,13.0385842 26.9174127,13.0556851 26.5345239,13.0416182 C24.6977674,12.9734904 22.9997387,12.1984337 21.7484136,10.8590475 C21.3682994,10.4516601 21.0436762,10.006761 20.7773188,9.53372815 L20.2806731,9.47249591 C20.0503849,9.41733173 19.8034494,9.39719681 19.5537393,9.42174487 C18.0804497,9.56324098 16.3935192,10.4899992 14.8453166,11.6120385 C13.4663619,12.6132684 12.1928404,13.7700612 11.2772367,14.6637208 C7.74522599,13.3566056 3.63333298,12.2869722 1.5884847,13.3828086 C0.769990466,13.8219155 0.220628243,14.5506343 0.0430566153,15.4351918 C-0.19555526,16.6300479 0.581320613,17.792633 1.78547822,18.0317697 C2.59842333,18.1928491 3.3947211,17.8913768 3.90246498,17.3093948 C5.16488827,17.3375285 8.24742076,18.1859536 11.0081047,19.2930986 C11.2772367,19.4012204 11.5574669,19.4539022 11.8376971,19.4539022 C12.4397759,19.4539022 13.0279819,19.210904 13.4552637,18.7582819 C14.1627756,18.0091524 14.9923681,17.2244419 15.8275096,16.5042736 C16.3297044,16.0687524 16.8346737,15.6594342 17.3174466,15.2956265 L15.4751409,30.0363221 C15.4529445,30.216709 15.4584936,30.3940618 15.4779155,30.5667257 C15.4862392,30.9674935 15.5611522,31.3737776 15.7220765,31.7679257 L18.1997556,37.9052162 L30.4189033,31.4769346 L32.6773924,13.4216994" id="Fill-3" fill="#006D73"></path>
                    <path d="M24.925281,16.7323775 L25.0307142,16.6656288 L25.3525628,14.9323704 L24.5618141,14.5704934 L23.7710655,14.2083405 L22.6556937,15.579722 L22.672341,15.7030139 C22.8721091,16.12171 23.210605,16.4391799 23.6101412,16.6231524 C24.0124519,16.8065733 24.4730283,16.8537387 24.925281,16.7323775" id="Fill-4" fill="#FFFFFE"></path>
                    <path d="M22.1978918,16.5553005 C22.1756954,16.7020372 22.159048,17.1408682 22.1396261,17.2870533 C19.0016025,20.6939929 16.4906287,22.4032549 13.5440495,24.5579677 C13.5495986,25.9903056 12.7311044,28.7548583 12.7311044,28.7548583 C12.7311044,28.7548583 15.69988,28.1077825 17.1925915,27.8079652 C19.3373239,24.7750387 21.7317663,22.098197 23.8459785,17.9755022 C23.9958045,17.8679321 24.1456306,17.7565004 24.2926821,17.6420348 C23.55465,17.615556 22.6029771,17.2925697 22.1978918,16.5553005" id="Fill-5" fill="#FFFFFE"></path>
                </g>
                <g id="machine" transform="translate(73.740825, 101.219883) rotate(-4.000000) translate(-73.740825, -101.219883) translate(5.482993, 20.234340)">
                    <path d="M64.5572519,89.7025082 C63.9579477,91.3342646 62.1406131,92.1730359 60.5008501,91.5761595 C58.8583125,90.9792831 58.0148473,89.1734838 58.6141515,87.5417274 C59.2162303,85.9105227 61.0307904,85.0717514 62.6733279,85.6683519 C64.3130909,86.2652283 65.1565562,88.0713035 64.5572519,89.7025082" id="Fill-84" fill="#FFFFFE"></path>
                    <path d="M95.5046573,100.954621 C94.9025785,102.585826 93.0852438,103.424597 91.4454808,102.827997 C89.8057178,102.231396 88.959478,100.425045 89.5615568,98.7938405 C90.1608611,97.16236 91.9781957,96.3235886 93.6179587,96.9201892 C95.2604963,97.5170656 96.1039615,99.3231408 95.5046573,100.954621" id="Fill-85" fill="#FFFFFE"></path>
                    <path d="M110.501137,13.0805691 C110.764719,13.1760031 111.058822,13.0405751 111.153157,12.7793727 C111.250267,12.5184461 111.114314,12.2269034 110.850731,12.1314694 L108.66438,11.3357262 L109.557787,8.8999519 C111.555468,9.10543847 113.514305,7.95719611 114.23569,5.99776453 C115.087479,3.682524 113.88887,1.1193205 111.561017,0.272826198 C109.233164,-0.573943926 106.652826,0.616223202 105.801038,2.93146373 C105.079653,4.89089531 105.831558,7.02436987 107.490743,8.14806417 L106.594561,10.5838384 L104.405436,9.78837098 C104.144627,9.69266113 103.850524,9.82836501 103.753415,10.0892916 C103.65908,10.3502181 103.795033,10.6417608 104.058616,10.7371948 L106.244967,11.5329381 L105.709477,12.9912031 L103.520352,12.1957357 C103.259544,12.1000258 102.965441,12.2354539 102.868331,12.4966563 C102.773996,12.7575828 102.909949,13.0491255 103.170758,13.1445595 L105.359883,13.9403028 L104.824394,15.398292 L102.635268,14.6028246 C102.371685,14.5073905 102.080357,14.6428186 101.983248,14.9037452 C101.886138,15.1649475 102.022091,15.4564902 102.285674,15.5519242 L104.474799,16.3473917 L103.936535,17.8056567 L101.750185,17.0101893 C101.486602,16.9147552 101.192499,17.0501833 101.098164,17.3111099 C101.001054,17.5723122 101.137008,17.8638549 101.400591,17.9592889 L103.586941,18.7547564 L103.051452,20.2130214 L100.862327,19.417554 C100.601518,19.3221199 100.307415,19.457548 100.21308,19.7184746 C100.115971,19.9794011 100.251924,20.2712196 100.515507,20.3666536 L102.701858,21.1621211 L100.349034,27.5597866 L102.416078,28.3119501 L104.771677,21.9142846 L106.958028,22.7097521 C107.221611,22.8051861 107.515714,22.6697581 107.610049,22.4088315 C107.707158,22.1479049 107.571205,21.8560864 107.307622,21.7606524 L105.121271,20.965185 L105.656761,19.5069199 L107.843111,20.3023874 C108.106694,20.3978214 108.400797,20.2623933 108.495132,20.0014668 C108.592242,19.7405402 108.456288,19.4487217 108.192705,19.3532877 L106.006355,18.5578203 L106.541844,17.0995552 L108.730969,17.8950227 C108.991778,17.9904567 109.285881,17.8553045 109.38299,17.5941021 C109.477325,17.3331755 109.341372,17.041357 109.080564,16.945923 L106.891438,16.1504556 L107.426928,14.6921905 L109.616053,15.4879338 C109.879636,15.5833678 110.170964,15.4479398 110.268074,15.1867374 C110.365183,14.9258108 110.226455,14.6342681 109.965647,14.5388341 L107.776522,13.7430909 L108.314786,12.2851017 L110.501137,13.0805691" id="antenna" fill="#126A71"></path>
                    <path d="M107.712707,3.6257049 L106.755485,3.2784464 C107.41583,1.49085124 109.41351,0.567954547 111.211423,1.22192587 L110.861829,2.17102554 C109.591082,1.70847392 108.176058,2.36106613 107.712707,3.6257049" id="Fill-87" fill="#FFFFFE"></path>
                    <path d="M59.9043204,140.67145 L59.9043204,140.67145 C58.6141515,140.202279 57.9454833,138.769389 58.417158,137.487374 L68.7107633,109.511137 C69.1824379,108.228846 70.6224329,107.563566 71.9126017,108.032737 C73.2027706,108.501632 73.8714388,109.934246 73.3997641,111.216537 L63.1089333,139.192498 C62.6372587,140.475066 61.1944892,141.140345 59.9043204,140.67145" id="Fill-11" fill="#126A71"></path>
                    <path d="M1.38891973,119.417796 L1.38891973,119.417796 C2.92602414,120.572382 5.13457126,120.266772 6.29433596,118.738449 L29.7310163,87.9030528 C30.8935556,86.3744534 30.5855798,84.1789192 29.0484754,83.0240571 C27.511371,81.8691951 25.3028239,82.1745288 24.1402846,83.7031281 L0.703604228,114.538524 C-0.456160469,116.067124 -0.150959233,118.262658 1.38891973,119.417796" id="Fill-12" fill="#126A71"></path>
                    <polyline id="Fill-13" fill="#126A71" points="24.11018 92.7835003 41.8562446 90.5653487 41.3734717 86.7471602 23.6274071 88.9653117 24.11018 92.7835003"></polyline>
                    <path d="M44.8246047,57.2618346 C52.9651541,35.1332765 77.6975524,23.7151192 99.9578206,31.8085315 C122.21809,39.9022196 133.704754,64.489721 125.56143,86.6185549 C117.420881,108.746837 36.6812809,79.3906686 44.8246047,57.2618346 Z M102.818389,24.0375538 C76.2048409,14.3612055 46.7390489,27.9638642 37.005904,54.4197762 C27.2727591,80.8756882 40.9540982,110.166487 67.5676459,119.842836 C94.1811937,129.519184 123.646986,115.916801 133.380131,89.4608891 C143.113276,63.0049771 129.429162,33.7139022 102.818389,24.0375538 L102.818389,24.0375538 Z" id="Fill-20" fill="#126A71"></path>
                    <path d="M118.408623,161.965926 L118.408623,161.965926 C116.483081,161.862217 114.993144,160.211981 115.098577,158.299163 L117.204466,119.708511 C117.309899,117.795417 118.969084,116.315087 120.894626,116.419071 C122.817394,116.52278 124.307331,118.17274 124.201898,120.085834 L122.096009,158.676486 C121.990576,160.58958 120.331391,162.06991 118.408623,161.965926" id="Fill-16" fill="#126A71"></path>
                    <polyline id="Fill-17" fill="#126A71" points="120.192663 122.282471 108.073399 109.204976 110.920095 106.597365 123.039358 119.674861 120.192663 122.282471"></polyline>
                    <path d="M27.0785401,87.8754707 C26.8010845,88.6268068 25.9659429,89.0126802 25.2084889,88.7379626 C24.4538095,88.4635208 24.0653716,87.6319208 24.3428273,86.8808606 C24.6175084,86.1295245 25.4554245,85.7436511 26.2101039,86.0183687 C26.9647833,86.2930863 27.3532213,87.1246862 27.0785401,87.8754707" id="Fill-14" fill="#FFFFFE"></path>
                    <path d="M26.2517223,87.5756534 C26.1435145,87.8738158 25.8105677,88.0268964 25.5109156,87.9179471 C25.2112635,87.808722 25.0586629,87.4788403 25.1668706,87.1809537 C25.2778529,86.8827913 25.6080251,86.7294349 25.9076772,86.83866 C26.2073293,86.9476092 26.3627045,87.277491 26.2517223,87.5756534" id="Fill-15" fill="#0A0B09"></path>
                    <path d="M119.252088,121.389639 C118.974633,122.140699 119.363071,122.972575 120.11775,123.247017 C120.875204,123.521735 121.710346,123.135585 121.987801,122.384525 C122.262482,121.633465 121.874044,120.801865 121.119365,120.527147 C120.364686,120.25243 119.52677,120.638579 119.252088,121.389639" id="Fill-18" fill="#FFFFFE"></path>
                    <path d="M120.076132,121.689732 C119.965149,121.987619 120.120525,122.317777 120.420177,122.426726 C120.719829,122.535951 121.052776,122.382594 121.160983,122.084432 C121.271966,121.786545 121.11659,121.456388 120.816938,121.347439 C120.517286,121.238214 120.187114,121.39157 120.076132,121.689732" id="Fill-19" fill="#126A71"></path>
                </g>
                <g id="clock-middle" transform="translate(79.453011, 127.216952) rotate(-4.000000) translate(-79.453011, -127.216952) translate(65.416182, 113.262950)">
                    <path d="M23.964193,4.0874587 C29.4439425,9.53795525 29.4439425,18.3727741 23.9614185,23.8216157 C18.4788945,29.2707332 9.59198937,29.2701815 4.10946535,23.819685 C-1.37028412,18.3700159 -1.37028412,9.53519705 4.1122399,4.08663124 C9.59476392,-1.36276202 18.481669,-1.36193456 23.964193,4.0874587" id="Fill-21" fill="#126A71"></path>
                    <path d="M25.6677708,18.1824577 C23.3177213,24.5677112 16.2065325,27.8502556 9.78343378,25.5148801 C3.3631096,23.1797805 0.0586125755,16.1104912 2.40866209,9.72523764 C4.75871161,3.34025992 11.8699004,0.0577155428 18.2902246,2.39281517 C24.7133233,4.72819063 28.0178204,11.7977558 25.6677708,18.1824577" id="Fill-22" fill="#FFFFFE"></path>
                    <polyline id="Fill-23" fill="#0A0B09" points="17.4523085 5.72583477 16.7697675 5.47732015 18.0682601 1.94846773 18.750801 2.19725817 17.4523085 5.72583477"></polyline>
                    <polyline id="Fill-24" fill="#0A0B09" points="10.0081729 25.9600551 9.32285737 25.7115404 10.6213499 22.182688 11.3066654 22.4314784 10.0081729 25.9600551"></polyline>
                    <polyline id="Fill-25" fill="#0A0B09" points="12.5829615 3.56781215 11.8643513 3.69275902 11.5064335 1.6602349 12.2250437 1.53528804 12.5829615 3.56781215"></polyline>
                    <polyline id="Fill-26" fill="#0A0B09" points="16.5672249 26.2480121 15.8513893 26.3726831 15.4934715 24.3409864 16.2120816 24.2157638 16.5672249 26.2480121"></polyline>
                    <polyline id="Fill-27" fill="#0A0B09" points="7.5526902 5.68225507 6.9950043 6.14728909 5.66321709 4.56462884 6.22090299 4.10042229 7.5526902 5.68225507"></polyline>
                    <polyline id="Fill-28" fill="#0A0B09" points="22.4132158 23.3427907 21.8527554 23.8078247 20.5209682 22.2257161 21.0814286 21.7609579 22.4132158 23.3427907"></polyline>
                    <polyline id="Fill-29" fill="#0A0B09" points="3.59062324 15.4010799 3.7154783 16.1149043 1.67063001 16.4701616 1.54577496 15.7560613 3.59062324 15.4010799"></polyline>
                    <polyline id="Fill-30" fill="#0A0B09" points="26.4030284 11.438637 26.530658 12.1521856 24.4858097 12.5077187 24.3609546 11.7938943 26.4030284 11.438637"></polyline>
                    <polyline id="Fill-31" fill="#0A0B09" points="5.71593367 20.4003334 6.18483375 20.9563883 4.59223821 22.279777 4.12611269 21.7239979 5.71593367 20.4003334"></polyline>
                    <polyline id="Fill-32" fill="#0A0B09" points="23.4814202 5.62819418 23.9503202 6.18480073 22.3577247 7.50846517 21.8915992 6.95268608 23.4814202 5.62819418"></polyline>
                    <polyline id="Fill-33" fill="#0A0B09" points="5.76032658 10.5587684 5.51061647 11.2392185 1.95918391 9.94865256 2.21166857 9.26847825 5.76032658 10.5587684"></polyline>
                    <polyline id="Fill-34" fill="#0A0B09" points="26.1144745 17.9595944 25.8647644 18.6400445 22.3161064 17.3497544 22.5658165 16.6695801 26.1144745 17.9595944"></polyline>
                    <polyline id="Fill-35" fill="#0A0B09" points="12.610707 12.436557 13.5929001 11.9158071 17.9545032 20.0318367 16.9750847 20.5528624 12.610707 12.436557"></polyline>
                    <polyline id="Fill-36" fill="#0A0B09" points="14.0590256 11.6645343 14.8525489 11.8209247 12.6606491 22.8545877 11.8671259 22.6987489 14.0590256 11.6645343"></polyline>
                </g>
                <g id="clock-left" transform="translate(47.893125, 117.757205) rotate(-4.000000) translate(-47.893125, -117.757205) translate(33.483240, 103.432686)">
                    <path d="M28.258294,18.2732815 C26.0636196,25.8768359 18.0839946,30.2714901 10.4373163,28.0897469 C2.78786355,25.9085553 -1.63200526,17.9781531 0.562669081,10.3745987 C2.75734342,2.77242344 10.7341939,-1.62195493 18.3836467,0.558960826 C26.030325,2.73987658 30.4501938,10.6705545 28.258294,18.2732815" id="Fill-37" fill="#126A71"></path>
                    <path d="M26.3466244,18.6641197 C23.9355347,25.217624 16.635676,28.5862244 10.0461039,26.1896168 C3.45375715,23.7930091 0.0632488765,16.5380923 2.47433864,9.984588 C4.88542841,3.43191119 12.1852871,0.0627590498 18.7748592,2.45936674 C25.3672059,4.85597443 28.7577142,12.1114429 26.3466244,18.6641197" id="Fill-38" fill="#FFFFFE"></path>
                    <polyline id="Fill-39" fill="#0A0B09" points="17.9147466 5.88009738 17.2127838 5.62468724 18.544571 2.00315899 19.2465338 2.25856913 17.9147466 5.88009738"></polyline>
                    <polyline id="Fill-40" fill="#0A0B09" points="10.2736175 26.646652 9.57165466 26.3912418 10.9062164 22.7697136 11.6081793 23.0251237 10.2736175 26.646652"></polyline>
                    <polyline id="Fill-41" fill="#0A0B09" points="12.91777 3.66525566 12.1797379 3.79323655 11.8134965 1.70720318 12.548754 1.57894647 12.91777 3.66525566"></polyline>
                    <polyline id="Fill-42" fill="#0A0B09" points="17.0074666 26.9420561 16.2694345 27.0703129 15.903193 24.9848311 16.6412251 24.8565744 17.0074666 26.9420561"></polyline>
                    <polyline id="Fill-43" fill="#0A0B09" points="7.75432003 5.8354144 7.17998679 6.31230871 5.8149049 4.68827533 6.38923813 4.21193265 7.75432003 5.8354144"></polyline>
                    <polyline id="Fill-44" fill="#0A0B09" points="23.0060582 23.9604323 22.4317249 24.4376025 21.066643 22.8138449 21.6382017 22.3369506 23.0060582 23.9604323"></polyline>
                    <polyline id="Fill-45" fill="#0A0B09" points="3.68681992 15.8096493 3.81722408 16.5422296 1.71688467 16.9068648 1.58925506 16.1740087 3.68681992 15.8096493"></polyline>
                    <polyline id="Fill-46" fill="#0A0B09" points="27.1013038 11.7429462 27.231708 12.4755264 25.1341431 12.8401616 25.003739 12.1075814 27.1013038 11.7429462"></polyline>
                    <polyline id="Fill-47" fill="#0A0B09" points="5.87039603 20.9404695 6.35039434 21.5111429 4.71618045 22.8692849 4.23618214 22.2988873 5.87039603 20.9404695"></polyline>
                    <polyline id="Fill-48" fill="#0A0B09" points="24.1047826 5.78025022 24.5847809 6.35092363 22.950567 7.7093415 22.4705687 7.13921973 24.1047826 5.78025022"></polyline>
                    <polyline id="Fill-49" fill="#0A0B09" points="5.91478894 10.8401844 5.65675517 11.5385629 2.01376223 10.214071 2.271796 9.51569249 5.91478894 10.8401844"></polyline>
                    <polyline id="Fill-50" fill="#0A0B09" points="26.8044263 18.43574 26.5491671 19.1341185 22.9061741 17.8096266 23.1614333 17.1115239 26.8044263 18.43574"></polyline>
                    <polyline id="Fill-51" fill="#0A0B09" points="12.6930309 15.5994738 12.2685238 14.5472171 21.0888395 11.0349139 21.5133467 12.0877223 12.6930309 15.5994738"></polyline>
                    <polyline id="Fill-52" fill="#0A0B09" points="15.7561415 16.2548242 14.9986875 16.592429 10.2541956 6.05689857 11.0116496 5.7192938 15.7561415 16.2548242"></polyline>
                </g>
                <g id="clock-right" transform="translate(111.341592, 136.006616) rotate(-4.000000) translate(-111.341592, -136.006616) translate(96.932360, 121.681830)">
                    <path d="M18.486334,28.0601542 C10.8563031,30.2989924 2.84338334,25.9639155 0.59321786,18.3780136 C-1.65972217,10.7921118 2.70188095,2.82833531 10.3319118,0.58922135 C17.9619428,-1.64906515 25.9748625,2.68546009 28.225028,10.2710861 C30.477968,17.8572638 26.1191394,25.8215919 18.486334,28.0601542" id="Fill-53" fill="#126A71"></path>
                    <path d="M26.3466531,18.6645915 C23.9355633,25.2180958 16.6357047,28.5866963 10.043358,26.1900886 C3.45378581,23.7934809 0.0632775328,16.5382883 2.4743673,9.98505987 C4.88545706,3.43210723 12.1853157,0.0632309181 18.7748879,2.45956278 C25.3672346,4.85644629 28.7577428,12.1119147 26.3466531,18.6645915" id="Fill-54" fill="#FFFFFE"></path>
                    <polyline id="Fill-55" fill="#0A0B09" points="17.9147753 5.88056925 17.2128124 5.62515911 18.5445997 2.00363086 19.2465625 2.259041 17.9147753 5.88056925"></polyline>
                    <polyline id="Fill-56" fill="#0A0B09" points="10.2736462 26.6471238 9.57168332 26.3917137 10.9034705 22.7701854 11.6082079 23.0255956 10.2736462 26.6471238"></polyline>
                    <polyline id="Fill-57" fill="#0A0B09" points="12.9177987 3.66572752 12.1797666 3.79370842 11.8135251 1.70767505 12.5487826 1.57941833 12.9177987 3.66572752"></polyline>
                    <polyline id="Fill-58" fill="#0A0B09" points="17.0074952 26.942528 16.2694632 27.0705089 15.9032217 24.9850272 16.6412538 24.8570463 17.0074952 26.942528"></polyline>
                    <polyline id="Fill-59" fill="#0A0B09" points="7.75434868 6.38752804 7.18001545 6.86442235 5.81493355 5.24038897 6.38926679 4.7640463 7.75434868 6.38752804"></polyline>
                    <polyline id="Fill-60" fill="#0A0B09" points="23.0060868 23.9609042 22.4317536 24.4377985 21.0638971 22.8143168 21.6382304 22.3374225 23.0060868 23.9609042"></polyline>
                    <polyline id="Fill-61" fill="#0A0B09" points="3.68684857 15.8101212 3.81447818 16.5427015 1.71691332 16.9073367 1.58928371 16.1744806 3.68684857 15.8101212"></polyline>
                    <polyline id="Fill-62" fill="#0A0B09" points="27.1013325 11.743418 27.2317367 12.4757225 25.1313972 12.8406335 25.0037676 12.1080532 27.1013325 11.743418"></polyline>
                    <polyline id="Fill-63" fill="#0A0B09" points="5.87042469 20.9409413 6.350423 21.5116147 4.71620911 22.8697568 4.2362108 22.2993592 5.87042469 20.9409413"></polyline>
                    <polyline id="Fill-64" fill="#0A0B09" points="24.1020367 5.78044627 24.5848096 6.3513955 22.9478211 7.70981337 22.4705974 7.1396916 24.1020367 5.78044627"></polyline>
                    <polyline id="Fill-65" fill="#0A0B09" points="5.9148176 10.8403804 5.65678382 11.5387589 2.01379089 10.214267 2.27182466 9.51588854 5.9148176 10.8403804"></polyline>
                    <polyline id="Fill-66" fill="#0A0B09" points="26.8044549 18.4362118 26.5464212 19.1345903 22.9062028 17.8100984 23.161462 17.1119958 26.8044549 18.4362118"></polyline>
                    <polyline id="Fill-67" fill="#0A0B09" points="16.3970928 15.1269128 15.7090027 16.0318812 8.12336472 10.3439028 8.81145478 9.43865869 16.3970928 15.1269128"></polyline>
                    <polyline id="Fill-68" fill="#0A0B09" points="13.0176827 12.4255231 13.7695876 12.0710932 18.755466 22.4957437 18.0035611 22.8507251 13.0176827 12.4255231"></polyline>
                </g>
                <g id="cog-left" transform="translate(58.814708, 139.067701) rotate(-4.000000) translate(-58.814708, -139.067701) translate(48.245056, 128.560591)">
                    <path d="M20.4928533,14.1154521 C18.4896234,19.5637421 12.4216679,22.364979 6.93914391,20.3721731 C1.45939444,18.3793672 -1.35955515,12.3474402 0.646449332,6.89915021 C2.64967926,1.4505844 8.71763475,-1.35092835 14.2001588,0.642153383 C19.6799082,2.63495929 22.4988578,8.66688627 20.4928533,14.1154521" id="Fill-69" fill="#126A71"></path>
                    <path d="M8.99786497,14.7754915 C6.55348053,13.8862449 5.27440989,11.254362 6.14007158,8.89692089 C7.00850783,6.53947977 9.6942787,5.34903682 12.1386631,6.23855918 C14.5858222,7.12808154 15.8648928,9.75996445 14.9992311,12.1174056 C14.1307949,14.4745709 11.445024,15.664738 8.99786497,14.7754915 Z M16.9663918,13.3704599 L17.3132114,12.4219118 L16.2783017,12.0451405 C16.3199201,11.8884742 16.3559893,11.731808 16.3837349,11.5745901 L17.4769102,11.6802295 L17.5601469,10.6710008 L16.4669716,10.5661889 C16.464197,10.404282 16.4558734,10.2429268 16.439226,10.0826749 L17.5185286,9.90973519 L17.3298587,8.90933283 L16.2477816,9.08254835 C16.2033887,8.9261579 16.1534467,8.77169821 16.095181,8.6197209 L17.0884723,8.18006241 L16.6389941,7.25661408 L15.6457028,7.69599675 C15.5624661,7.55560392 15.4709057,7.41879676 15.3765708,7.28557527 L16.2117124,6.60926245 L15.5347205,5.82482785 L14.699579,6.50058902 C14.580273,6.38557171 14.4581925,6.2744159 14.3305629,6.16850068 L14.9492891,5.30380219 L14.0891765,4.71271803 L13.4676758,5.57934726 C13.3233989,5.49825592 13.1763474,5.42185353 13.0237467,5.35151921 L13.3927628,4.3530476 L12.4077951,3.99503209 L12.0387791,4.9935037 C11.8778548,4.949924 11.7169305,4.91323982 11.5532317,4.88317534 L11.6392429,3.82154075 L10.5987842,3.72141777 L10.5127729,4.78084579 C10.3462995,4.77919087 10.1798261,4.78581057 10.0161273,4.79767087 L9.8163592,3.74569 L8.78699867,3.91035507 L8.9895413,4.9631634 C8.82861702,5.00370907 8.67046729,5.04977116 8.51509211,5.10272877 L8.04341747,4.13101178 L7.1000682,4.54832878 L7.57174284,5.52059741 C7.43024044,5.59948219 7.29151261,5.68498666 7.15555933,5.77573173 L6.43972371,4.95019982 L5.64620049,5.59258666 L6.35926156,6.41756694 C6.24273018,6.52982604 6.13174791,6.64677409 6.0235402,6.76923857 L5.12180928,6.14836575 L4.5308287,6.97196692 L5.43533418,7.59421884 C5.35487204,7.73212928 5.27995901,7.87390122 5.20782053,8.02036211 L4.17291089,7.64359078 L3.82331675,8.59213881 L4.86100095,8.96891014 C4.8193826,9.12530059 4.78331336,9.28224267 4.75556779,9.43946058 L3.6596179,9.334097 L3.57915576,10.342774 L4.67233109,10.4481376 C4.67233109,10.6100444 4.68342932,10.7711238 4.70007666,10.9313758 L3.61799955,11.1043155 L3.80944396,12.1047178 L4.88874651,11.9317781 C4.93591398,12.0878927 4.985856,12.2423524 5.04412169,12.3943297 L4.05083039,12.8337124 L4.50030858,13.7577124 L5.49359987,13.3180539 C5.57683657,13.4584467 5.66839694,13.5949781 5.76273187,13.7284754 L4.92759031,14.405064 L5.60458214,15.188947 L6.43972371,14.5134616 C6.55902964,14.6282031 6.68111014,14.7396347 6.80873975,14.8452741 L6.18723905,15.7102484 L7.04735162,16.3016084 L7.67162688,15.4347034 C7.81590382,15.5160705 7.96295533,15.5919213 8.11555595,15.6625314 L7.74653991,16.661003 L8.73150753,17.0187427 L9.09774902,16.0202711 C9.26144786,16.0641266 9.42237215,16.1008108 9.58607099,16.1305995 L9.50005974,17.1925099 L10.5405185,17.2923571 L10.6265298,16.232929 C10.7930032,16.2348598 10.9594766,16.2282401 11.1231754,16.2163798 L11.3229435,17.2680848 L12.3495295,17.1039714 L12.1497614,16.0506114 C12.3106857,16.0106174 12.4688354,15.9645553 12.6242106,15.911046 L13.0958852,16.8833147 L14.0392345,16.465446 L13.5675598,15.4934532 C13.7090622,15.4145685 13.8477901,15.329064 13.9837433,15.2383189 L14.6968044,16.063575 L15.4931022,15.4211882 L14.7800411,14.5967595 C14.8937979,14.4842246 15.0075548,14.3675524 15.1129879,14.2448121 L16.0174934,14.8654091 L16.608474,14.0418079 L15.7039685,13.4198318 C15.7844306,13.2819214 15.8593437,13.1401494 15.9287076,12.9936885 L16.9663918,13.3704599 L16.9663918,13.3704599 Z" id="Fill-70" fill="#FFFFFE"></path>
                    <path d="M10.2103462,8.00408868 C9.98838171,8.60510239 10.3157794,9.27589879 10.9400547,9.50262356 C11.5615554,9.72934833 12.2468709,9.42622117 12.4688354,8.82520746 C12.6880254,8.22419375 12.3634022,7.55339735 11.739127,7.32639676 C11.1148517,7.09994781 10.4323108,7.40335079 10.2103462,8.00408868" id="Fill-71" fill="#E5E5E0"></path>
                    <path d="M10.9289564,13.009962 C11.1481464,12.4089482 10.8235233,11.7381518 10.199248,11.5111513 C9.57497277,11.2847023 8.89243182,11.5881053 8.67046729,12.1888432 C8.44850275,12.7898569 8.77590044,13.4609291 9.4001757,13.6873781 C10.0216764,13.9141028 10.7069919,13.6109757 10.9289564,13.009962" id="Fill-72" fill="#FFFFFE"></path>
                    <path d="M9.5278053,10.1281853 C9.74699528,9.52717162 9.42237215,8.85637522 8.79809689,8.62965045 C8.17382164,8.40292568 7.49128069,8.70632866 7.26931616,9.30706655 C7.04735162,9.90808026 7.37474931,10.5788767 7.99902457,10.8058773 C8.62052526,11.0323262 9.30584077,10.7289232 9.5278053,10.1281853" id="Fill-73" fill="#FFFFFE"></path>
                    <path d="M13.1402781,10.2084492 C12.5160029,9.98144862 11.8334619,10.2851274 11.6114974,10.8858653 C11.3895328,11.4866032 11.7169305,12.1576754 12.3412058,12.3844002 C12.9627065,12.611125 13.648022,12.307722 13.8699865,11.7067083 C14.0891765,11.1059704 13.7645534,10.4348982 13.1402781,10.2084492" id="Fill-74" fill="#FFFFFE"></path>
                </g>
                <g id="cog-right" transform="translate(90.716551, 148.243551) rotate(-4.000000) translate(-90.716551, -148.243551) translate(80.146807, 137.736496)">
                    <path d="M20.4944881,14.1153445 C18.4884836,19.5636345 12.4205281,22.3648714 6.94077864,20.3720655 C1.45825461,18.3792596 -1.35792043,12.3473326 0.645309506,6.89876683 C2.65131399,1.45047685 8.71926948,-1.35076008 14.1990189,0.642045829 C19.6787684,2.63485174 22.497718,8.66677872 20.4944881,14.1153445" id="Fill-75" fill="#126A71"></path>
                    <path d="M8.9994997,14.7756597 C6.5523407,13.8861374 5.27327007,11.2539786 6.14170631,8.89653752 C7.007368,6.5390964 9.69313888,5.34920509 12.1402979,6.23872745 C14.5874569,7.12797399 15.8665275,9.75985689 14.9980913,12.117298 C14.129655,14.4747391 11.4438841,15.6646304 8.9994997,14.7756597 Z M16.965252,13.3703523 L17.3148461,12.4218043 L16.2799365,12.0450329 C16.3215548,11.8886425 16.3548495,11.7319762 16.3825951,11.5744825 L17.478545,11.6801219 L17.5617817,10.6711691 L16.4686063,10.5660813 C16.4658318,10.4041745 16.4547335,10.2428193 16.4408607,10.0825673 L17.5201633,9.90962764 L17.3287189,8.90922528 L16.2494163,9.0824408 C16.2050234,8.92632617 16.1550814,8.77159066 16.0968157,8.61961335 L17.0873325,8.18023067 L16.6378543,7.25650652 L15.6473375,7.69616502 C15.5613263,7.55577219 15.4725405,7.41896503 15.375431,7.28546772 L16.2105725,6.6091549 L15.5335807,5.82499612 L14.6984391,6.50075729 C14.5819078,6.38573998 14.4570527,6.27430834 14.3294231,6.16866894 L14.9509238,5.30369464 L14.0908112,4.71261048 L13.466536,5.57951553 C13.3250336,5.49814837 13.1779821,5.4220218 13.0253815,5.35168748 L13.3916229,4.35321587 L12.4066553,3.99520035 L12.0404138,4.99367196 C11.8794895,4.94981644 11.7157907,4.91340809 11.5520919,4.88334361 L11.6408777,3.82170902 L10.6004189,3.72158603 L10.5116331,4.78073824 C10.3451597,4.77935914 10.1814609,4.78570302 10.0149875,4.79783914 L9.81521937,3.74558245 L8.78863339,3.91024752 L8.98840148,4.96333167 C8.82747719,5.00360152 8.66932746,5.04966361 8.51395228,5.10262122 L8.04227764,4.13090423 L7.09892837,4.54849705 L7.57337756,5.52048986 C7.42910061,5.59937463 7.29037278,5.68515493 7.1544195,5.7759 L6.44135843,4.95036809 L5.64783522,5.59275493 L6.36089629,6.41745938 C6.24436491,6.52971849 6.13060808,6.64639072 6.02517493,6.76913102 L5.12066945,6.1482582 L4.52968887,6.97213519 L5.43419435,7.59438711 C5.35373221,7.73202173 5.27881918,7.87379367 5.20945526,8.02053038 L4.17454562,7.64348323 L3.82495147,8.59230708 L4.85986112,8.96880259 C4.81824277,9.12519303 4.78494809,9.28241094 4.75720252,9.43935302 L3.66125263,9.33398944 L3.57801593,10.3426664 L4.67119126,10.44803 C4.67396582,10.6099369 4.68228949,10.7710163 4.69893683,10.9312682 L3.61963428,11.1042079 L3.80830413,12.1046103 L4.89038124,11.9316706 C4.93477415,12.088061 4.98471617,12.2422449 5.04298186,12.3942222 L4.05246512,12.8338807 L4.49916875,13.7576048 L5.49246004,13.3182222 C5.57569674,13.4583392 5.66725712,13.5948705 5.7643666,13.7286436 L4.92645048,14.4049565 L5.60621687,15.1891152 L6.44135843,14.5133541 C6.55788981,14.6283714 6.67997031,14.739803 6.81037447,14.8454424 L6.18887377,15.7101409 L7.04898635,16.3015009 L7.67048705,15.4345958 C7.814764,15.515963 7.9618155,15.5920896 8.11441612,15.6626997 L7.74817463,16.6611713 L8.7303677,17.018911 L9.09938374,16.0201636 C9.26030803,16.0642949 9.42400688,16.1007033 9.58493116,16.1307677 L9.49891991,17.1924023 L10.5393787,17.2925253 L10.6253899,16.2330973 C10.7946379,16.2347522 10.9583367,16.2281325 11.1248101,16.2159964 L11.3245782,17.2682531 L12.3511642,17.1038638 L12.1513961,16.0507797 C12.3095458,16.0105098 12.4676956,15.9641719 12.6230707,15.9112143 L13.0975199,16.8832071 L14.0408692,16.4656143 L13.56642,15.4933457 C13.710697,15.4144609 13.8494248,15.3289564 13.9853781,15.2382114 L14.6984391,16.0637433 L15.4919624,15.4213564 L14.7789013,14.596652 C14.8954327,14.484117 15.0064149,14.3674448 15.1146227,14.2449803 L16.0163536,14.8655773 L16.6101087,14.0419762 L15.7028287,13.4200001 C15.7860654,13.2820896 15.8609784,13.1400419 15.9303423,12.9938568 L16.965252,13.3703523 L16.965252,13.3703523 Z" id="Fill-76" fill="#FFFFFE"></path>
                    <path d="M10.2092064,8.00425695 C9.99001644,8.60527066 10.3146396,9.27579124 10.9389148,9.50279183 C11.5631901,9.7295166 12.2485056,9.4258378 12.4676956,8.82537573 C12.6896601,8.22436202 12.3622624,7.5532898 11.7407617,7.32656503 C11.1164865,7.10011608 10.431171,7.40324323 10.2092064,8.00425695" id="Fill-77" fill="#E5E5E0"></path>
                    <path d="M10.9278166,13.0098544 C11.1497811,12.4091165 10.8223834,11.7380443 10.2008827,11.5113195 C9.57660749,11.2845948 8.89129199,11.5879977 8.67210201,12.1890114 C8.45013748,12.7900252 8.77476061,13.4608216 9.39903587,13.6872705 C10.0233111,13.9142711 10.7086266,13.6108681 10.9278166,13.0098544" id="Fill-78" fill="#FFFFFE"></path>
                    <path d="M9.52666547,10.1280778 C9.74863001,9.52706407 9.42123232,8.85626767 8.79973162,8.62981872 C8.17545636,8.40281813 7.49014086,8.70622111 7.27095088,9.30723482 C7.04898635,9.90797271 7.37360948,10.5790449 7.99788474,10.8057697 C8.62215999,11.0322186 9.3074755,10.7290915 9.52666547,10.1280778" id="Fill-79" fill="#FFFFFE"></path>
                    <path d="M13.1419128,10.2083417 C12.5176376,9.98161689 11.8323221,10.284744 11.6131321,10.8857578 C11.3911676,11.4867715 11.7157907,12.1578437 12.340066,12.3845685 C12.9643412,12.6110174 13.6496567,12.3076144 13.8688467,11.7068765 C14.0908112,11.1058628 13.7634135,10.4347906 13.1419128,10.2083417" id="Fill-80" fill="#FFFFFE"></path>
                </g>
                <g id="zaps" transform="translate(101.664601, 9.188613) rotate(-4.000000) translate(-101.664601, -9.188613) translate(91.832959, 0.665058)" fill="#126A71">
                    <polyline id="Fill-81" points="13.2984502 14.5608605 11.2480528 6.67072815 8.66494055 8.87867436 5.73223412 0.541988043 7.27488765 0 9.21707733 7.00833292 12.2524424 4.76204762 13.656368 14.4524628 13.2984502 14.5608605"></polyline>
                    <polyline id="Fill-82" points="16.5973981 14.6427793 16.2894223 14.5729966 18.1206298 7.92543737 15.2878074 8.46632213 16.6612129 1.12038444 18.0235203 1.36834742 16.4836413 7.32414784 19.6632833 6.94241173 16.5973981 14.6427793"></polyline>
                    <polyline id="Fill-83" points="10.7486326 17.0471099 6.36205849 11.8473346 5.21339202 14.4290181 1.19949929e-24 9.2093836 0.965545729 8.25090602 4.95535825 12.8262229 6.4258733 10.0547746 10.9789208 16.8399684 10.7486326 17.0471099"></polyline>
                </g>
            </g>
        </g>
    </g>
</svg>