<?xml version="1.0" encoding="UTF-8"?>
<svg width="512px" height="512px" viewBox="0 0 512 512" version="1.1" xmlns="http://www.w3.org/2000/svg" xmlns:xlink="http://www.w3.org/1999/xlink">
    <title>logo512</title>
    <defs>
        <linearGradient x1="50%" y1="0.105574324%" x2="50%" y2="100%" id="linearGradient-1">
            <stop stop-color="#4C979C" offset="0%"></stop>
            <stop stop-color="#134448" offset="99.9480988%"></stop>
        </linearGradient>
    </defs>
    <g id="logo512" stroke="none" stroke-width="1" fill="none" fill-rule="evenodd">
        <path d="M146.141456,0 L365.858544,0 C416.675112,0 435.102427,5.29105984 453.680205,15.2265641 C472.257983,25.1620684 486.837932,39.7420171 496.773436,58.3197949 C506.70894,76.8975727 512,95.3248882 512,146.141456 L512,365.858544 C512,416.675112 506.70894,435.102427 496.773436,453.680205 C486.837932,472.257983 472.257983,486.837932 453.680205,496.773436 C435.102427,506.70894 416.675112,512 365.858544,512 L146.141456,512 C95.3248882,512 76.8975727,506.70894 58.3197949,496.773436 C39.7420171,486.837932 25.1620684,472.257983 15.2265641,453.680205 C5.29105984,435.102427 0,416.675112 0,365.858544 L0,146.141456 C0,95.3248882 5.29105984,76.8975727 15.2265641,58.3197949 C25.1620684,39.7420171 39.7420171,25.1620684 58.3197949,15.2265641 C76.8975727,5.29105984 95.3248882,0 146.141456,0 Z" id="background" fill="url(#linearGradient-1)" fill-rule="nonzero"></path>
        <g id="hand-gesture" transform="translate(92.215792, 47.303327)" fill="#FFFFFF">
            <path d="M190.165585,46.3680369 C191.801664,62.7319432 190.985182,75.8236915 188.800627,86.4628795 C194.25734,87.2793609 210.892368,89.4607995 210.892368,82.9164835 C210.892368,72.2804119 210.892368,46.3680369 190.165585,46.3680369" id="Fill-5"></path>
            <path d="M258.076887,26.068192 L234.623305,4.52181071 C231.896506,8.33932837 228.621232,14.8867607 235.168664,19.249638 C240.896499,23.3413937 246.350096,25.5228323 250.987211,26.068192 C253.714009,26.6135517 256.169686,26.6135517 258.076887,26.068192" id="Fill-6"></path>
            <path d="M8.51718746,363.293678 C25.4295698,366.294715 164.256326,388.115334 218.804758,341.476175 L226.714031,334.928743 C283.443902,286.382384 345.627369,233.195793 344.53665,184.920555 C343.174809,136.645318 320.26347,87.8247205 317.536672,81.8257642 L263.5336,32.1855693 C260.261442,34.0927699 255.350088,34.9123676 249.622254,33.8216483 C244.168657,33.0020506 237.895463,30.5494903 231.34803,25.912375 C218.804758,17.457742 225.349074,6.27319432 229.44083,0.819597669 L228.621232,0 C223.712995,2.72991467 211.711966,12.001029 220.440837,33.8216483 L220.440837,34.0927699 C224.258355,36.5484466 227.804751,40.0948426 230.802671,44.7319579 C235.439786,51.8216336 239.26042,59.1855472 241.71298,67.0948205 C243.894419,73.0968932 248.805772,76.3690512 248.805772,76.3690512 C249.622254,76.9144109 250.167613,77.7340085 250.441851,78.5504899 C254.804729,101.461828 275.80575,114.827815 276.079988,114.827815 C277.441829,115.644296 277.987189,117.554613 277.441829,119.190692 C269.532556,136.919556 276.35111,151.373145 277.170708,153.009224 C277.987189,154.374181 277.716067,156.284498 276.35111,157.375218 L247.715053,180.8288 C247.440815,181.103038 246.624334,181.374159 246.078974,181.648397 C246.078974,181.648397 218.804758,185.465915 231.622268,137.190677 C237.075865,116.189656 239.26042,99.5515115 238.166584,85.3690439 C236.804743,71.4608142 232.441866,59.7309069 225.077952,48.5494756 C213.893405,31.3659716 195.34806,35.7319653 188.529506,38.1845256 C188.800627,39.2752449 189.074865,40.3659643 189.074865,41.7309216 C217.714039,40.3659643 217.714039,72.2772955 217.714039,85.0979222 C217.714039,99.0061518 193.711981,96.2793535 187.164548,95.1886342 C182.256311,112.917498 174.347038,120.826771 172.982081,122.191728 C169.709923,126.009246 127.433642,179.192721 127.433642,200.193742 C127.433642,223.650441 113.796534,259.37929 113.525412,259.653528 C112.980052,261.289607 111.069735,262.106088 109.159418,261.560728 C107.523339,261.015369 106.43262,258.83393 107.252218,257.197851 C107.252218,257.197851 108.888297,252.834974 111.069735,246.287541 C84.8862387,253.106095 23.5192528,249.562816 5.79038913,248.197858 C2.51823114,267.288563 -6.75599952,331.930823 8.51718746,363.293678" id="Fill-7"></path>
        </g>
    </g>
</svg>