<?xml version="1.0" encoding="UTF-8"?>
<svg width="100px" height="85px" viewBox="0 0 100 85" version="1.1" xmlns="http://www.w3.org/2000/svg" xmlns:xlink="http://www.w3.org/1999/xlink">
    <title>flashIconBlack</title>
    <g id="Page-1" stroke="none" stroke-width="1" fill="none" fill-rule="evenodd">
        <path d="M51.2805586,1.80113835 L45.7658755,21.3801393 L40.1319648,23.1818182 L47.3244667,0.600559636 L49.7219674,0 C51.1607914,0.240007631 51.5200928,0.840567268 51.2805586,1.80113835 Z M35.9205604,31.244231 L36.6422287,34.6480938 L0.793233274,17.2649788 C-0.0491642511,16.7786345 -0.168810686,16.1708409 0.191752779,15.1986994 C1.15433813,14.5909059 2.2371113,14.5909059 2.83859179,14.9558008 L35.9205604,30.7589809 L35.9205604,31.244231 L35.9205604,31.244231 Z M36.2057791,28.6656891 L20.5744563,1.96348706 C20.2107216,1.11796445 20.5744563,0.513320634 21.7861783,0.271898101 C22.9979003,0.151186835 23.8458876,0.513320634 24.4522939,1.35938699 L38.3870968,24.6784112 L36.2057791,28.6656891 L36.2057791,28.6656891 Z M46.8621701,21.6271097 L72.9836594,10.7091577 C74.0721455,10.2291587 75.2819978,10.4692082 76.4902174,11.4288862 C77.4584257,12.5087489 77.4584257,13.2284774 76.4902174,13.8283412 L55.3273265,23.3062962 L56.2944463,23.6664304 L92.211222,31.2249294 C94.0257284,31.7049284 95.2355807,32.6649264 95.5980465,34.1043834 C95.8391462,35.6642451 94.9933925,36.2641088 92.9372423,35.9039746 L62.9456406,29.6650678 L97.0489985,51.8605659 C99.2259707,53.3000229 100.072269,54.8598846 98.9837825,56.6600158 C98.2588508,58.2198774 96.5657107,58.2198774 94.1470946,56.6600158 L63.9127605,36.2641088 L63.7924828,33.5045196 C62.7039967,28.8254745 60.2848364,25.7062911 56.2944463,23.6664304 L54.8434944,23.3062962 L55.3273265,23.3062962 C53.5128201,22.4667029 51.2155702,21.8662992 48.6755879,21.6265697 L46.8621701,21.6265697 L46.8621701,21.6271097 L46.8621701,21.6271097 Z M4.47489558,53.0381793 L38.714369,37.1407625 C40.5355711,39.7905126 43.0851448,41.8375787 46.3636364,43.0418628 L9.57458927,61.4687098 C6.29609767,63.0344958 3.86782822,62.4318118 2.04662614,59.6617417 C0.468578846,56.6510315 1.1969504,54.4831034 4.47489558,53.0381793 L4.47489558,53.0381793 Z M84.5522531,78.1580931 C82.1272243,79.1256987 80.1857822,78.1580931 78.367147,75.1333046 L59.3255132,42.5853818 C61.5087487,41.3754664 63.20676,39.5605933 63.8136995,37.1407625 L85.6438708,72.2288541 C87.4635976,75.2536427 86.9783735,77.0690603 84.5522531,78.1580931 Z M57.3313783,43.6217009 L48.6688983,81.1427315 C47.8269609,84.6409516 45.6612056,85.8479272 42.2929145,84.4004252 C38.8038826,82.9518374 37.4806061,80.7811275 38.4427429,77.4023561 L48.3083,43.6217009 L51.6765911,44.2249172 L57.3313783,43.6217009 L57.3313783,43.6217009 Z" id="flashIconBlack" fill="#000000" fill-rule="nonzero"></path>
    </g>
</svg>