<?xml version="1.0" encoding="UTF-8"?>
<svg width="512px" height="512px" viewBox="0 0 512 512" version="1.1" xmlns="http://www.w3.org/2000/svg" xmlns:xlink="http://www.w3.org/1999/xlink">
    <title>logo512</title>
    <g id="logo512" stroke="none" stroke-width="1" fill="none" fill-rule="evenodd">
        <path d="M146.141456,0 L365.858544,0 C416.675112,0 435.102427,5.29105984 453.680205,15.2265641 C472.257983,25.1620684 486.837932,39.7420171 496.773436,58.3197949 C506.70894,76.8975727 512,95.3248882 512,146.141456 L512,365.858544 C512,416.675112 506.70894,435.102427 496.773436,453.680205 C486.837932,472.257983 472.257983,486.837932 453.680205,496.773436 C435.102427,506.70894 416.675112,512 365.858544,512 L146.141456,512 C95.3248882,512 76.8975727,506.70894 58.3197949,496.773436 C39.7420171,486.837932 25.1620684,472.257983 15.2265641,453.680205 C5.29105984,435.102427 0,416.675112 0,365.858544 L0,146.141456 C0,95.3248882 5.29105984,76.8975727 15.2265641,58.3197949 C25.1620684,39.7420171 39.7420171,25.1620684 58.3197949,15.2265641 C76.8975727,5.29105984 95.3248882,0 146.141456,0 Z" id="background" fill="#FFFFFF" fill-rule="nonzero"></path>
        <path d="M261.725535,104.225743 L239.601924,182.772088 L217,190 L245.854625,99.409304 L255.472834,97 C261.245057,97.9628541 262.68649,100.372158 261.725535,104.225743 Z M200.104837,222.344503 L203,236 L59.1822653,166.263032 C55.8027646,164.311934 55.3227712,161.873609 56.769267,157.973606 C60.630933,155.535281 64.9747641,155.535281 67.3877624,156.999154 L200.104837,220.397794 L200.104837,222.344503 L200.104837,222.344503 Z M201.249067,212 L138.539878,104.877048 C137.08066,101.48501 138.539878,99.0593216 143.401021,98.0907912 C148.262165,97.606526 151.66409,99.0593216 154.09685,102.453541 L210,196.003979 L201.249067,212 L201.249067,212 Z M244,183.762875 L348.793269,139.962621 C353.160019,138.036978 358.013662,139 362.860754,142.850002 C366.744979,147.182157 366.744979,150.069539 362.860754,152.476051 L277.960216,190.499376 L281.840073,191.94415 L425.929726,222.26707 C433.209098,224.192713 438.062741,228.043999 439.516869,233.818761 C440.484104,240.07656 437.091139,242.483072 428.842348,241.038298 L308.523099,216.009272 L445.337747,305.052388 C454.071247,310.827151 457.466395,317.084949 453.099645,324.306651 C450.19139,330.56445 443.39891,330.56445 433.695991,324.306651 L312.402957,242.483072 L311.920431,231.412249 C307.553681,212.641021 297.848579,200.127591 281.840073,191.94415 L276.019195,190.499376 L277.960216,190.499376 C270.680843,187.131126 261.464817,184.722448 251.275006,183.760709 L244,183.760709 L244,183.762875 L244,183.762875 Z M73.9522282,309.776696 L211.312939,246 C218.619174,256.630174 228.847463,264.842522 242,269.673826 L94.4109993,343.598 C81.2584624,349.879566 71.5168167,347.461739 64.2105825,336.34887 C57.8798281,324.270609 60.8018834,315.573391 73.9522282,309.776696 L73.9522282,309.776696 Z M395.203745,410.551879 C385.4751,414.433686 377.686491,410.551879 370.390555,398.417139 L294,267.842532 C302.758627,262.988636 309.570649,255.707792 312.005547,246 L399.583058,386.765168 C406.883374,398.899908 404.936769,406.182936 395.203745,410.551879 Z M286,272 L251.248168,422.525546 C247.870514,436.559582 239.182013,441.401684 225.669222,435.594647 C211.672047,429.783254 206.363373,421.074876 210.223239,407.52004 L249.801533,272 L263.314324,274.419962 L286,272 L286,272 Z" id="flashIconBlack" fill="#000000" fill-rule="nonzero"></path>
    </g>
</svg>