<?xml version="1.0" encoding="UTF-8"?>
<svg width="850px" height="440px" viewBox="0 0 850 440" version="1.1" xmlns="http://www.w3.org/2000/svg" xmlns:xlink="http://www.w3.org/1999/xlink">
    <title>featured</title>
    <defs>
        <radialGradient cx="49.999%" cy="49.9995%" fx="49.999%" fy="49.9995%" r="177.797392%" gradientTransform="translate(0.499990,0.499995),scale(0.390270,1.000000),rotate(180.000000),translate(-0.499990,-0.499995)" id="radialGradient-1">
            <stop stop-color="#DAEFF3" offset="0%"></stop>
            <stop stop-color="#6EC1D4" offset="100%"></stop>
        </radialGradient>
    </defs>
    <g id="Page-1" stroke="none" stroke-width="1" fill="none" fill-rule="evenodd">
        <g id="featured" fill-rule="nonzero">
            <polygon id="BluSky" fill="url(#radialGradient-1)" points="0 440 850 437.786073 831.617142 108.270313 12.6672608 108.270313"></polygon>
            <g id="Group" transform="translate(22.500447, 116.778287)">
                <path d="M821.658391,75.4418166 L700.545561,75.4418166 C700.545561,75.4418166 727.656959,73.3468086 761.101976,73.3468086 C794.544559,73.3468086 821.658391,75.4418166 821.658391,75.4418166" id="Fill-9" fill="#A6D4D1"></path>
                <path d="M700.545561,75.4418166 C700.545561,75.4418166 727.656959,76.8400958 761.101976,76.8400958 C794.542125,76.8400958 821.658391,75.4418166 821.658391,75.4418166 L700.545561,75.4418166 Z" id="Fill-10" fill="#DEF0EE"></path>
                <path d="M707.344101,68.8626718 C698.0311,67.2980456 693.211512,58.3297721 696.602262,48.8383493 C700.002749,39.3421048 710.430584,32.9100204 719.879897,34.4770575 C720.595533,34.5975988 721.272222,34.7735891 721.936741,34.9760985 C721.98299,34.8362706 721.992726,34.7012643 722.043843,34.5662581 C723.791552,29.8145196 729.049284,26.5984774 733.781243,27.3844068 C735.385338,27.6471868 736.692469,28.365613 737.690464,29.3516409 C745.228981,20.8583002 756.834937,15.9763771 767.525659,17.7435127 C782.011197,20.139874 789.075057,33.859886 783.349972,48.3875248 C782.685453,50.0823356 781.865149,51.7096433 780.928007,53.2694478 C783.693185,51.8253629 786.779668,51.1889048 789.70063,51.6783025 C796.197337,52.7655852 799.31303,59.0168575 796.669559,65.6345755 C796.03425,67.2281316 795.119015,68.693914 794.016352,69.9909385 C795.167698,69.6220821 796.350687,69.4726108 797.499599,69.6654769 C800.440035,70.164518 802.131758,72.5657009 801.883477,75.4418166 L746.334078,75.4418166 C728.56976,72.4403379 711.479697,69.5618114 707.344101,68.8626718" id="Fill-11" fill="#A6D4D1"></path>
                <path d="M706.058878,68.8626718 C696.473253,67.2980456 689.986283,58.3297721 691.563603,48.8383493 C693.148225,39.3421048 702.195905,32.9100204 711.783964,34.4770575 C712.514204,34.5975988 713.215235,34.7735891 713.904095,34.9760985 C713.923568,34.8362706 713.908964,34.7012643 713.930871,34.5662581 C714.721965,29.8145196 719.25189,26.5984774 724.044702,27.3844068 C725.670705,27.6471868 727.09224,28.365613 728.270361,29.3516409 C733.94433,20.8583002 744.289405,15.9763771 755.096965,17.7435127 C769.765063,20.139874 779.696335,33.859886 777.27437,48.3875248 C776.99201,50.0823356 776.541695,51.7096433 775.962371,53.2694478 C778.374599,51.8253629 781.295561,51.1889048 784.294416,51.6783025 C790.976117,52.7655852 795.501174,59.0168575 794.396077,65.6345755 C794.13319,67.2281316 793.5563,68.693914 792.757904,69.9909385 C793.816753,69.6220821 794.968099,69.4726108 796.155957,69.6654769 C799.208362,70.164518 801.457503,72.5657009 801.883477,75.4418166 L746.334078,75.4418166 C727.956358,72.4403379 710.323482,69.5618114 706.058878,68.8626718" id="Fill-12" fill="#FFFFFE"></path>
                <path d="M432.204067,59.6701914 L307.734565,59.6701914 C307.734565,59.6701914 335.595676,57.5173236 369.968099,57.5173236 C404.338087,57.5173236 432.204067,59.6701914 432.204067,59.6701914" id="Fill-13" fill="#A6D4D1"></path>
                <path d="M432.204067,59.6701914 L307.734565,59.6701914 C307.734565,59.6701914 335.595676,61.104633 369.968099,61.104633 C404.335653,61.104633 432.204067,59.6701914 432.204067,59.6701914" id="Fill-14" fill="#DEF0EE"></path>
                <path d="M119.679124,68.3780957 L0,68.3780957 C0,68.3780957 26.7910653,66.1697789 59.8407789,66.1697789 C92.8870848,66.1697789 119.679124,68.3780957 119.679124,68.3780957" id="Fill-21" fill="#A6D4D1"></path>
                <path d="M119.679124,68.3780957 L0,68.3780957 C0,68.3780957 26.7910653,69.8535214 59.8407789,69.8535214 C92.8870848,69.8535214 119.679124,68.3780957 119.679124,68.3780957" id="Fill-22" fill="#DEF0EE"></path>
                <path d="M22.0617841,87.9946672 C21.7360968,78.0958148 29.7278494,68.8334205 39.9112973,67.300135 C40.6851088,67.1844153 41.444559,67.133788 42.194516,67.1120905 C42.18624,66.9698518 42.1409651,66.8396672 42.1363402,66.6974284 C41.9759307,61.7480022 45.9730241,57.1143942 51.064748,56.3477515 C52.7927406,56.0873822 54.4055985,56.3381082 55.8176403,56.9384039 C59.910882,46.7116791 69.5512744,38.5606757 81.0277348,36.8393457 C96.6096077,34.4960226 109.643184,44.8794512 110.135123,60.0242615 C110.194759,61.7913971 110.063803,63.5488894 109.788259,65.275041 C111.973869,63.069135 114.844201,61.5020979 118.030727,61.0223435 C125.128666,59.9543475 131.063087,64.6819777 131.288975,71.5817623 C131.343499,73.2428216 131.054811,74.8773618 130.497394,76.4178797 C131.514619,75.7115077 132.664018,75.1955908 133.925143,75.0075464 C137.938789,74.402429 141.291566,77.0784461 141.420089,80.9767521 C141.547151,84.8798798 138.401031,88.5274598 134.388603,89.1277556 C131.842741,89.5086661 99.0473941,94.4388057 72.8268901,98.3780957 L26.2930412,98.3780957 C23.7734679,95.7093111 22.1949313,92.131645 22.0617841,87.9946672" id="Fill-23" fill="#A6D4D1"></path>
                <path d="M20.7782646,87.9946672 C19.2330756,78.0958148 26.0790808,68.8334205 36.0770475,67.300135 C36.8355241,67.1844153 37.5866982,67.133788 38.3354382,67.1120905 C38.3069588,66.9698518 38.2485395,66.8396672 38.2261455,66.6974284 C37.4557417,61.7480022 40.878866,57.1143942 45.8778494,56.3477515 C47.5727377,56.0873822 49.2165092,56.3381082 50.7020619,56.9384039 C53.5344215,46.7116791 62.1668385,38.5606757 73.4305556,36.8393457 C88.7247137,34.4960226 103.037185,44.8794512 105.402434,60.0242615 C105.678222,61.7913971 105.76366,63.5488894 105.702076,65.275041 C107.61555,63.069135 110.294559,61.5020979 113.421449,61.0223435 C120.386483,59.9543475 126.905584,64.6819777 127.982446,71.5817623 C128.241438,73.2428216 128.153565,74.8773618 127.785037,76.4178797 C128.715607,75.7115077 129.804396,75.1955908 131.04045,75.0075464 C134.97815,74.402429 138.6627,77.0784461 139.272451,80.9767521 C139.879768,84.8798798 137.183963,88.5274598 133.246506,89.1277556 C130.74811,89.5086661 98.5612973,94.4388057 72.8268901,98.3780957 L26.2930412,98.3780957 C23.4453465,95.7093111 21.4235538,92.131645 20.7782646,87.9946672" id="clouss" fill="#FFFFFE"></path>
            </g>
            <g id="Sun" transform="translate(428.923586, 0.000000)">
                <path d="M195.266323,142.321197 L0,142.321197 C0,142.321197 43.7097652,139.809116 97.6307274,139.809116 C151.554124,139.809116 195.266323,142.321197 195.266323,142.321197" id="Fill-25" fill="#A6D4D1"></path>
                <path d="M195.266323,142.321197 L0,142.321197 C0,142.321197 43.7097652,143.997445 97.6307274,143.997445 C151.554124,143.997445 195.266323,142.321197 195.266323,142.321197" id="Fill-26" fill="#DEF0EE"></path>
                <path d="M190.376146,82.0599439 C196.398196,36.8121109 164.128866,0 118.440149,0 C72.7587343,0 30.6920103,36.8121109 24.6699599,82.0599439 C21.5031501,105.862031 28.9443013,127.318143 43.3446449,142.321197 L155.665378,142.321197 C174.062572,127.318143 187.209336,105.862031 190.376146,82.0599439" id="Fill-27" fill="#90CBC9"></path>
                <path d="M182.35567,82.0599439 C182.35567,36.8121109 145.193729,0 99.5050115,0 C53.8187285,0 16.6519187,36.8121109 16.6519187,82.0599439 C16.6519187,105.862031 26.9458763,127.318143 43.3446449,142.321197 L155.665378,142.321197 C172.066581,127.318143 182.35567,105.862031 182.35567,82.0599439" id="Fill-28" fill="#FFFFFE"></path>
                <path d="M170.260453,82.0599439 C170.260453,43.3548522 138.585052,11.9798776 99.5050115,11.9798776 C60.4274055,11.9798776 28.7495705,43.3548522 28.7495705,82.0599439 C28.7495705,107.696188 42.6557847,130.104576 63.3946163,142.321197 L135.617841,142.321197 C156.356672,130.104576 170.260453,107.696188 170.260453,82.0599439" id="Fill-29" fill="#F8CC24"></path>
                <path d="M36.5972222,49.9964373 C31.5926403,59.6067139 28.7495705,70.5002732 28.7495705,82.0599439 C28.7495705,83.1947198 28.7812142,84.3234686 28.8347652,85.4488423 C66.8876002,59.4514567 83.9508878,69.4571087 99.5050115,82.0599439 C92.3973368,63.4442671 82.6754009,46.3259544 36.5972222,49.9964373" id="Fill-30" fill="#FCEB24"></path>
                <path d="M62.8785796,78.3718619 C53.5826174,81.6443174 43.0817583,89.3570326 31.4563288,101.242888 C34.8957617,113.235784 41.4703608,123.913816 50.2624571,132.356529 C54.3298969,116.312963 59.5267755,104.43892 65.9236827,97.0027269 C75.3462199,85.4760846 87.4243986,83.7713894 99.5050115,82.0599439 C88.1838488,77.5584491 76.8578179,73.0545436 62.8785796,78.3718619" id="Fill-31" fill="#FCEB24"></path>
                <path d="M99.5050115,82.0599439 C80.9958477,88.9898638 63.9715063,98.4624822 66.9922681,142.321197 L96.6741123,142.321197 C78.534937,111.321829 87.935567,96.0680496 99.5050115,82.0599439" id="Fill-33" fill="#FCEB24"></path>
                <path d="M103.226804,45.7844829 C99.9236827,36.5768143 92.1368843,26.1777154 80.136598,14.6604753 C68.0267755,18.0681782 57.2459908,24.5815074 48.7240836,33.2865187 C64.9232532,37.3159736 76.9089347,42.4626054 84.4182417,48.8004264 C96.0558419,58.1329758 97.7767755,70.0952544 99.5050115,82.0599439 C104.049542,70.843816 108.596506,59.63034 103.226804,45.7844829" id="Fill-34" fill="#FCEB24"></path>
                <path d="M170.175258,78.6720098 C132.119989,104.669636 115.061569,94.6601271 99.5050115,82.0599439 C106.612686,100.67321 116.337056,117.791522 162.415235,114.12345 C167.417383,104.510763 170.260453,93.6172037 170.260453,82.0599439 C170.260453,80.9227571 170.231243,79.7949726 170.175258,78.6720098" id="Fill-35" fill="#FCEB24"></path>
                <path d="M136.131443,85.7468204 C145.42984,82.4743649 155.928265,74.7604442 167.556128,62.8757942 C164.116695,50.8816927 157.539662,40.2048667 148.75,31.7609478 C144.68256,47.8045141 139.483247,59.6797619 133.083906,67.11475 C123.661369,78.6438031 111.58319,80.3494627 99.5050115,82.0599439 C110.828608,86.5590277 122.149771,91.0629333 136.131443,85.7468204" id="Fill-36" fill="#FCEB24"></path>
                <path d="M128.03551,59.0158204 C132.273339,50.1905088 134.191438,37.3842 133.928551,20.8370121 C122.933562,14.7638998 110.660653,11.8197988 98.4169531,12.00712 C106.992411,26.2001361 111.79496,38.236427 112.581186,47.976406 C114.148769,62.726323 106.82689,72.3918075 99.5050115,82.0599439 C110.72394,77.3113395 121.947738,72.5673156 128.03551,59.0158204" id="Fill-37" fill="#FCEB24"></path>
                <path d="M150.288373,130.832164 C134.089204,126.801503 122.101088,121.653666 114.594215,115.319461 C102.956615,105.986912 101.230813,94.0222225 99.5050115,82.0599439 C94.9629153,93.2746253 90.4159508,104.489548 95.7832188,118.334199 C98.3877434,125.599465 103.798826,133.608953 111.855813,142.321197 L135.581329,142.321197 C140.989977,139.142764 145.93614,135.277004 150.288373,130.832164" id="Fill-32" fill="#FCEB24"></path>
            </g>
            <g id="balance" transform="translate(377.000000, 200.000000)">
                <path d="M70.7302586,80 C71.8989126,86.4260573 74.3123328,93.6891625 72.549763,101.070829 C70.4300047,109.945783 68.8202585,118.292544 68.7171772,125.566913 C89.191395,131.612386 103.921829,148.454705 103.921829,168.28656 C103.921829,170.228605 104.044687,192.518844 103.982359,194.658887 C103.801368,200.913029 102.0364,207 90.990523,207 L12.9789761,207 C1.96486209,207 0.200494267,200.901766 0.0177048031,194.652366 C-0.0446234077,192.512323 0.0776357747,170.223863 0.0776357747,168.28656 C0.0776357747,148.498571 14.7439432,131.688266 35.1468433,125.608409 C35.0149952,118.323963 33.9500218,109.962382 31.4497016,101.070829 C29.3874769,93.7377727 32.100552,86.4260573 33.2692059,80 L70.7302586,80" id="Fill-149" fill="#F5A479"></path>
                <path d="M17,88 C11.1110549,86.6537735 5.57931732,78.5624072 4.18782614,68.7805265 C3.23319846,62.0727339 6.00124538,60.2450867 10.58769,60 C11.1994233,70.2288728 13.4683755,79.7574973 17,88" id="Fill-150" fill="#F49A6A"></path>
                <path d="M87,88 C92.8889452,86.6537735 98.4206826,78.5624072 99.8121738,68.7805265 C100.766802,62.0727339 97.9987546,60.2450867 93.4123099,60 C92.8005769,70.2288728 90.5316247,79.7574973 87,88" id="Fill-151" fill="#F49A6A"></path>
                <path d="M82.8789867,133 C81.2122282,152.91324 67.5875144,168.442962 51.0237301,168.442962 C34.6313667,168.442962 21.1169793,153.23443 19.221857,133.619397 C7.56700288,141.840703 3.07683817,154.416058 3.07683817,168.513093 C3.07683817,170.439059 2.95583504,192.597097 3.0175229,194.724619 C3.19843443,200.93745 1.97891282,207 12.8798701,207 L90.0899423,207 C101.022337,207 99.803408,200.948648 99.9825404,194.731101 C100.044228,192.60358 99.9226318,170.443774 99.9226318,168.513093 C99.9226318,154.057149 95.0486978,141.200679 82.8789867,133 Z" id="Fill-152" fill="#15868F"></path>
                <path d="M94.7815759,141.154666 C93.5408356,139.700445 92.2023479,138.313185 90.7733077,137 L84.0838662,137 C83.8206059,138.415112 83.4967781,139.801185 83.1147816,141.154666 L94.7815759,141.154666 Z M75.3746988,156.282371 C74.1399556,157.794074 72.8062646,159.183704 71.38682,160.436444 L100,160.436444 L100,156.282371 L75.3746988,156.282371 Z M33.6494929,160.436444 C32.2306476,159.183704 30.8975567,157.794074 29.6628134,156.282371 L6,156.282371 L6,160.436444 L33.6494929,160.436444 Z M21.9209314,141.154666 C21.5389346,139.801778 21.2151068,138.415112 20.9518469,137 L15.2260925,137 C13.7976523,138.313185 12.4591642,139.700445 11.2184242,141.154666 L21.9209314,141.154666 Z M6,199 L100,199 L100,194.845926 L6,194.845926 L6,199 Z M6,179.718222 L100,179.718222 L100,175.564148 L6,175.564148 L6,179.718222 Z" id="Fill-153" fill="#EDF6F5"></path>
                <path d="M102.92258,168.210683 C102.92258,157.538794 98.7119571,147.732916 91.6754558,140.000594 C89.1558483,147.612934 87.748548,156.095443 87.748548,165.040062 C87.748548,166.298094 87.7242127,187.70008 87.7052194,207 L90.1156141,207 C101.055281,207 102.803277,200.901099 102.982529,194.634698 C103.044258,192.490461 102.92258,170.156534 102.92258,168.210683 Z M11.3246073,140 C4.28751258,147.732322 0.0768892768,157.538794 0.0768892768,168.210683 C0.0768892768,170.151782 -0.0441943365,192.483928 0.0175345646,194.628165 C0.198566437,200.889813 1.94596918,207 12.8541782,207 L15.294844,207 C15.2764441,187.70008 15.2521087,166.298094 15.2521087,165.040062 C15.2521087,156.095443 13.8442149,147.612934 11.3246073,140 L11.3246073,140 Z" id="Fill-154" fill="#FFBE8E"></path>
                <path d="M84.8821486,33.1494185 C85.8818948,38.7131192 94,46.591905 94,52.6583677 C94,88.1932268 75.6441608,117 53.0002974,117 C35.8107299,117 21.0928726,100.39993 14.9986438,76.8587705 C13.0651667,69.3881443 12,61.2190059 12,52.6583677 C12,43.2088228 15.7515757,34.2352653 18.082929,26.1523998 C30.0251673,26.451677 82.6037263,20.4691071 84.8821486,33.1494185" id="Fill-155" fill="#FBBB91"></path>
                <path d="M27.9841009,126 C28.1094162,125.801531 23.4259869,102.011094 38.7935825,85.3808756 C45.2062408,78.4409188 54.7805585,73.3042672 60.9210013,67.2206152 C69.1168521,59.0998531 73.189295,50.7817989 77.2923172,41.233469 C80.1619738,56.7541428 84.964123,66.7553601 89.8574099,79.1276121 C95.090067,61.4008044 102.837422,20.8252611 75.2315122,16.5714161 C67.9440463,2.20151239 43.2803447,7.84405532 37.872606,9.40413219 C29.5052711,11.8175693 22.8251938,18.2039314 18.1777403,25.6156216 C10.6432415,35.4266145 8.04340172,54.078043 9.304348,72.8101546 C11.305793,102.529353 16.1409194,102.99932 27.9841009,126" id="Fill-156" fill="#2A2A2A"></path>
                <path d="M64.828934,53.3633765 C56.3503459,65.7319438 44.3642551,69.600686 34.2620316,81.7517808 C29.9418225,86.9479334 24.3447568,99.4519746 25.1355306,113 C21.4395228,98.5404941 27.644192,86.3097784 31.2174935,80.488542 C39.3291485,67.2738554 50.5967852,61.2488132 60.0771786,50.0608933 C65.6914349,43.4363183 70.8931135,36.8456119 78,30 C73.5499712,38.6073722 69.616257,46.3799137 64.828934,53.3633765 Z" id="Fill-157" fill="#15868F"></path>
                <path d="M40.7103235,13 C39.3783176,8.83055296 33.1470636,8.61881577 29,6.58258895 C36.4183045,5.15558192 47.0329359,6.3214042 55,10.3970276 C48.8107709,11.9241978 46.8995526,11.4721959 40.7103235,13" id="Fill-158" fill="#2A2A2A"></path>
                <path d="M47.9734969,11.2455518 C47.8531156,6.92614266 39.3196789,3.13980145 36,0 C43.3017517,0.839815837 55.666043,6.81641169 62,13 C55.8166681,12.6171887 54.156236,11.6289866 47.9734969,11.2455518" id="Fill-159" fill="#2A2A2A"></path>
                <path d="M39.1101471,20.7716181 C37.0543459,22.6483707 36.8895221,22.4918744 33.8939262,22.076557 C31.7949711,21.785835 29.7391699,21.2742123 27.6402149,20.9834901 C24.4941799,20.5477079 24.6703913,22.0223852 25.5694297,24.9609054 C26.4528849,27.8458558 27.2889906,30.7223793 28.0178111,33.60432 C28.867702,36.9629728 29.335202,36.4597768 31.5330513,34.127379 C33.195673,32.3631835 34.4789005,30.8397516 36.1079581,29.0442568 C38.6846022,26.202042 38.577317,26.7046361 42.5336853,27.2343161 C44.5067751,27.4985541 46.4810633,27.7621903 48.454153,28.0264285 C50.8156272,28.3430326 51.5624285,28.5302264 50.5764831,25.8204316 C49.5006337,22.8638541 48.3366787,19.4853384 47.26023,16.5287609 C46.8322877,15.3526305 45.7726211,14.2673884 44.2250763,15.6433526 C42.4983232,17.1782208 40.8476887,19.1855877 39.1101471,20.7716181 Z" id="Fill-160" fill="#EDF6F5"></path>
                <path d="M84,50.0709383 C80.0851402,52.267981 83.3021307,63.445309 83.7875758,71 C78.6754177,64.4561522 75.5569813,45.5140645 77.669234,37 C80.819634,42.5725048 80.8496,44.4978349 84,50.0709383" id="Fill-161" fill="#2A2A2A"></path>
            </g>
        </g>
    </g>
</svg>