<?xml version="1.0" encoding="UTF-8"?>
<svg width="850px" height="440px" viewBox="0 0 850 440" version="1.1" xmlns="http://www.w3.org/2000/svg" xmlns:xlink="http://www.w3.org/1999/xlink">
    <title>featured</title>
    <defs>
        <radialGradient cx="49.999%" cy="49.9995%" fx="49.999%" fy="49.9995%" r="177.797392%" gradientTransform="translate(0.499990,0.499995),scale(0.390270,1.000000),rotate(180.000000),translate(-0.499990,-0.499995)" id="radialGradient-1">
            <stop stop-color="#DAEFF3" offset="0%"></stop>
            <stop stop-color="#6EC1D4" offset="100%"></stop>
        </radialGradient>
    </defs>
    <g id="Page-1" stroke="none" stroke-width="1" fill="none" fill-rule="evenodd">
        <g id="featured" fill-rule="nonzero">
            <polygon id="BluSky" fill="url(#radialGradient-1)" points="0 440 850 437.786073 831.617142 108.270313 12.6672608 108.270313"></polygon>
            <g id="Group" transform="translate(22.500447, 116.778287)">
                <path d="M821.658391,75.4418166 L700.545561,75.4418166 C700.545561,75.4418166 727.656959,73.3468086 761.101976,73.3468086 C794.544559,73.3468086 821.658391,75.4418166 821.658391,75.4418166" id="Fill-9" fill="#A6D4D1"></path>
                <path d="M700.545561,75.4418166 C700.545561,75.4418166 727.656959,76.8400958 761.101976,76.8400958 C794.542125,76.8400958 821.658391,75.4418166 821.658391,75.4418166 L700.545561,75.4418166 Z" id="Fill-10" fill="#DEF0EE"></path>
                <path d="M707.344101,68.8626718 C698.0311,67.2980456 693.211512,58.3297721 696.602262,48.8383493 C700.002749,39.3421048 710.430584,32.9100204 719.879897,34.4770575 C720.595533,34.5975988 721.272222,34.7735891 721.936741,34.9760985 C721.98299,34.8362706 721.992726,34.7012643 722.043843,34.5662581 C723.791552,29.8145196 729.049284,26.5984774 733.781243,27.3844068 C735.385338,27.6471868 736.692469,28.365613 737.690464,29.3516409 C745.228981,20.8583002 756.834937,15.9763771 767.525659,17.7435127 C782.011197,20.139874 789.075057,33.859886 783.349972,48.3875248 C782.685453,50.0823356 781.865149,51.7096433 780.928007,53.2694478 C783.693185,51.8253629 786.779668,51.1889048 789.70063,51.6783025 C796.197337,52.7655852 799.31303,59.0168575 796.669559,65.6345755 C796.03425,67.2281316 795.119015,68.693914 794.016352,69.9909385 C795.167698,69.6220821 796.350687,69.4726108 797.499599,69.6654769 C800.440035,70.164518 802.131758,72.5657009 801.883477,75.4418166 L746.334078,75.4418166 C728.56976,72.4403379 711.479697,69.5618114 707.344101,68.8626718" id="Fill-11" fill="#A6D4D1"></path>
                <path d="M706.058878,68.8626718 C696.473253,67.2980456 689.986283,58.3297721 691.563603,48.8383493 C693.148225,39.3421048 702.195905,32.9100204 711.783964,34.4770575 C712.514204,34.5975988 713.215235,34.7735891 713.904095,34.9760985 C713.923568,34.8362706 713.908964,34.7012643 713.930871,34.5662581 C714.721965,29.8145196 719.25189,26.5984774 724.044702,27.3844068 C725.670705,27.6471868 727.09224,28.365613 728.270361,29.3516409 C733.94433,20.8583002 744.289405,15.9763771 755.096965,17.7435127 C769.765063,20.139874 779.696335,33.859886 777.27437,48.3875248 C776.99201,50.0823356 776.541695,51.7096433 775.962371,53.2694478 C778.374599,51.8253629 781.295561,51.1889048 784.294416,51.6783025 C790.976117,52.7655852 795.501174,59.0168575 794.396077,65.6345755 C794.13319,67.2281316 793.5563,68.693914 792.757904,69.9909385 C793.816753,69.6220821 794.968099,69.4726108 796.155957,69.6654769 C799.208362,70.164518 801.457503,72.5657009 801.883477,75.4418166 L746.334078,75.4418166 C727.956358,72.4403379 710.323482,69.5618114 706.058878,68.8626718" id="Fill-12" fill="#FFFFFE"></path>
                <path d="M432.204067,59.6701914 L307.734565,59.6701914 C307.734565,59.6701914 335.595676,57.5173236 369.968099,57.5173236 C404.338087,57.5173236 432.204067,59.6701914 432.204067,59.6701914" id="Fill-13" fill="#A6D4D1"></path>
                <path d="M432.204067,59.6701914 L307.734565,59.6701914 C307.734565,59.6701914 335.595676,61.104633 369.968099,61.104633 C404.335653,61.104633 432.204067,59.6701914 432.204067,59.6701914" id="Fill-14" fill="#DEF0EE"></path>
                <path d="M119.679124,68.3780957 L0,68.3780957 C0,68.3780957 26.7910653,66.1697789 59.8407789,66.1697789 C92.8870848,66.1697789 119.679124,68.3780957 119.679124,68.3780957" id="Fill-21" fill="#A6D4D1"></path>
                <path d="M119.679124,68.3780957 L0,68.3780957 C0,68.3780957 26.7910653,69.8535214 59.8407789,69.8535214 C92.8870848,69.8535214 119.679124,68.3780957 119.679124,68.3780957" id="Fill-22" fill="#DEF0EE"></path>
                <path d="M22.0617841,87.9946672 C21.7360968,78.0958148 29.7278494,68.8334205 39.9112973,67.300135 C40.6851088,67.1844153 41.444559,67.133788 42.194516,67.1120905 C42.18624,66.9698518 42.1409651,66.8396672 42.1363402,66.6974284 C41.9759307,61.7480022 45.9730241,57.1143942 51.064748,56.3477515 C52.7927406,56.0873822 54.4055985,56.3381082 55.8176403,56.9384039 C59.910882,46.7116791 69.5512744,38.5606757 81.0277348,36.8393457 C96.6096077,34.4960226 109.643184,44.8794512 110.135123,60.0242615 C110.194759,61.7913971 110.063803,63.5488894 109.788259,65.275041 C111.973869,63.069135 114.844201,61.5020979 118.030727,61.0223435 C125.128666,59.9543475 131.063087,64.6819777 131.288975,71.5817623 C131.343499,73.2428216 131.054811,74.8773618 130.497394,76.4178797 C131.514619,75.7115077 132.664018,75.1955908 133.925143,75.0075464 C137.938789,74.402429 141.291566,77.0784461 141.420089,80.9767521 C141.547151,84.8798798 138.401031,88.5274598 134.388603,89.1277556 C131.842741,89.5086661 99.0473941,94.4388057 72.8268901,98.3780957 L26.2930412,98.3780957 C23.7734679,95.7093111 22.1949313,92.131645 22.0617841,87.9946672" id="Fill-23" fill="#A6D4D1"></path>
                <path d="M20.7782646,87.9946672 C19.2330756,78.0958148 26.0790808,68.8334205 36.0770475,67.300135 C36.8355241,67.1844153 37.5866982,67.133788 38.3354382,67.1120905 C38.3069588,66.9698518 38.2485395,66.8396672 38.2261455,66.6974284 C37.4557417,61.7480022 40.878866,57.1143942 45.8778494,56.3477515 C47.5727377,56.0873822 49.2165092,56.3381082 50.7020619,56.9384039 C53.5344215,46.7116791 62.1668385,38.5606757 73.4305556,36.8393457 C88.7247137,34.4960226 103.037185,44.8794512 105.402434,60.0242615 C105.678222,61.7913971 105.76366,63.5488894 105.702076,65.275041 C107.61555,63.069135 110.294559,61.5020979 113.421449,61.0223435 C120.386483,59.9543475 126.905584,64.6819777 127.982446,71.5817623 C128.241438,73.2428216 128.153565,74.8773618 127.785037,76.4178797 C128.715607,75.7115077 129.804396,75.1955908 131.04045,75.0075464 C134.97815,74.402429 138.6627,77.0784461 139.272451,80.9767521 C139.879768,84.8798798 137.183963,88.5274598 133.246506,89.1277556 C130.74811,89.5086661 98.5612973,94.4388057 72.8268901,98.3780957 L26.2930412,98.3780957 C23.4453465,95.7093111 21.4235538,92.131645 20.7782646,87.9946672" id="clouss" fill="#FFFFFE"></path>
            </g>
            <g id="Sun" transform="translate(428.923586, 0.000000)">
                <path d="M195.266323,142.321197 L0,142.321197 C0,142.321197 43.7097652,139.809116 97.6307274,139.809116 C151.554124,139.809116 195.266323,142.321197 195.266323,142.321197" id="Fill-25" fill="#A6D4D1"></path>
                <path d="M195.266323,142.321197 L0,142.321197 C0,142.321197 43.7097652,143.997445 97.6307274,143.997445 C151.554124,143.997445 195.266323,142.321197 195.266323,142.321197" id="Fill-26" fill="#DEF0EE"></path>
                <path d="M190.376146,82.0599439 C196.398196,36.8121109 164.128866,0 118.440149,0 C72.7587343,0 30.6920103,36.8121109 24.6699599,82.0599439 C21.5031501,105.862031 28.9443013,127.318143 43.3446449,142.321197 L155.665378,142.321197 C174.062572,127.318143 187.209336,105.862031 190.376146,82.0599439" id="Fill-27" fill="#90CBC9"></path>
                <path d="M182.35567,82.0599439 C182.35567,36.8121109 145.193729,0 99.5050115,0 C53.8187285,0 16.6519187,36.8121109 16.6519187,82.0599439 C16.6519187,105.862031 26.9458763,127.318143 43.3446449,142.321197 L155.665378,142.321197 C172.066581,127.318143 182.35567,105.862031 182.35567,82.0599439" id="Fill-28" fill="#FFFFFE"></path>
                <path d="M170.260453,82.0599439 C170.260453,43.3548522 138.585052,11.9798776 99.5050115,11.9798776 C60.4274055,11.9798776 28.7495705,43.3548522 28.7495705,82.0599439 C28.7495705,107.696188 42.6557847,130.104576 63.3946163,142.321197 L135.617841,142.321197 C156.356672,130.104576 170.260453,107.696188 170.260453,82.0599439" id="Fill-29" fill="#F8CC24"></path>
                <path d="M36.5972222,49.9964373 C31.5926403,59.6067139 28.7495705,70.5002732 28.7495705,82.0599439 C28.7495705,83.1947198 28.7812142,84.3234686 28.8347652,85.4488423 C66.8876002,59.4514567 83.9508878,69.4571087 99.5050115,82.0599439 C92.3973368,63.4442671 82.6754009,46.3259544 36.5972222,49.9964373" id="Fill-30" fill="#FCEB24"></path>
                <path d="M62.8785796,78.3718619 C53.5826174,81.6443174 43.0817583,89.3570326 31.4563288,101.242888 C34.8957617,113.235784 41.4703608,123.913816 50.2624571,132.356529 C54.3298969,116.312963 59.5267755,104.43892 65.9236827,97.0027269 C75.3462199,85.4760846 87.4243986,83.7713894 99.5050115,82.0599439 C88.1838488,77.5584491 76.8578179,73.0545436 62.8785796,78.3718619" id="Fill-31" fill="#FCEB24"></path>
                <path d="M99.5050115,82.0599439 C80.9958477,88.9898638 63.9715063,98.4624822 66.9922681,142.321197 L96.6741123,142.321197 C78.534937,111.321829 87.935567,96.0680496 99.5050115,82.0599439" id="Fill-33" fill="#FCEB24"></path>
                <path d="M103.226804,45.7844829 C99.9236827,36.5768143 92.1368843,26.1777154 80.136598,14.6604753 C68.0267755,18.0681782 57.2459908,24.5815074 48.7240836,33.2865187 C64.9232532,37.3159736 76.9089347,42.4626054 84.4182417,48.8004264 C96.0558419,58.1329758 97.7767755,70.0952544 99.5050115,82.0599439 C104.049542,70.843816 108.596506,59.63034 103.226804,45.7844829" id="Fill-34" fill="#FCEB24"></path>
                <path d="M170.175258,78.6720098 C132.119989,104.669636 115.061569,94.6601271 99.5050115,82.0599439 C106.612686,100.67321 116.337056,117.791522 162.415235,114.12345 C167.417383,104.510763 170.260453,93.6172037 170.260453,82.0599439 C170.260453,80.9227571 170.231243,79.7949726 170.175258,78.6720098" id="Fill-35" fill="#FCEB24"></path>
                <path d="M136.131443,85.7468204 C145.42984,82.4743649 155.928265,74.7604442 167.556128,62.8757942 C164.116695,50.8816927 157.539662,40.2048667 148.75,31.7609478 C144.68256,47.8045141 139.483247,59.6797619 133.083906,67.11475 C123.661369,78.6438031 111.58319,80.3494627 99.5050115,82.0599439 C110.828608,86.5590277 122.149771,91.0629333 136.131443,85.7468204" id="Fill-36" fill="#FCEB24"></path>
                <path d="M128.03551,59.0158204 C132.273339,50.1905088 134.191438,37.3842 133.928551,20.8370121 C122.933562,14.7638998 110.660653,11.8197988 98.4169531,12.00712 C106.992411,26.2001361 111.79496,38.236427 112.581186,47.976406 C114.148769,62.726323 106.82689,72.3918075 99.5050115,82.0599439 C110.72394,77.3113395 121.947738,72.5673156 128.03551,59.0158204" id="Fill-37" fill="#FCEB24"></path>
                <path d="M150.288373,130.832164 C134.089204,126.801503 122.101088,121.653666 114.594215,115.319461 C102.956615,105.986912 101.230813,94.0222225 99.5050115,82.0599439 C94.9629153,93.2746253 90.4159508,104.489548 95.7832188,118.334199 C98.3877434,125.599465 103.798826,133.608953 111.855813,142.321197 L135.581329,142.321197 C140.989977,139.142764 145.93614,135.277004 150.288373,130.832164" id="Fill-32" fill="#FCEB24"></path>
            </g>
            <g id="Machine" transform="translate(351.379329, 185.872472)">
                <g id="controls" transform="translate(90.624787, 97.262040) rotate(-2.000000) translate(-90.624787, -97.262040) translate(52.949081, 83.225325)">
                    <g id="buttons" transform="translate(50.100170, 18.967786)">
                        <polygon id="Fill-120" fill="#FFFFFE" points="0 1.55149249 1.56207542 1.55149249 1.56207542 0 0 0"></polygon>
                        <polygon id="Fill-121" fill="#F4E92A" points="2.92438275 1.55149249 4.48368361 1.55149249 4.48368361 0 2.92438275 0"></polygon>
                        <polygon id="Fill-122" fill="#FFFFFE" points="5.84599095 1.55149249 7.40806637 1.55149249 7.40806637 0 5.84599095 0"></polygon>
                        <polygon id="Fill-123" fill="#F4E92A" points="8.7703737 1.55149249 10.3296746 1.55149249 10.3296746 0 8.7703737 0"></polygon>
                        <polygon id="Fill-124" fill="#F4E92A" points="11.6919819 1.55149249 13.2540573 1.55149249 13.2540573 0 11.6919819 0"></polygon>
                        <polygon id="Fill-125" fill="#FFFFFE" points="14.6163647 1.55149249 16.1756655 1.55149249 16.1756655 0 14.6163647 0"></polygon>
                        <polygon id="Fill-126" fill="#FFFFFE" points="17.5407474 1.55149249 19.1000483 1.55149249 19.1000483 0 17.5407474 0"></polygon>
                        <polygon id="Fill-127" fill="#F4E92A" points="20.4623556 1.55149249 22.024431 1.55149249 22.024431 0 20.4623556 0"></polygon>
                    </g>
                    <g id="levers" transform="translate(6.550728, 0.000000)" fill="#0A0B09">
                        <path d="M62.2194338,10.4929141 C62.2194338,9.47734159 61.3898414,8.65429206 60.3688045,8.65429206 C59.3477676,8.65429206 58.5209497,9.47734159 58.5209497,10.4929141 C58.5209497,11.3162394 59.0647629,12.012963 59.8138932,12.2474108 L59.8138932,20.422466 L60.9237158,20.422466 L60.9237158,12.2474108 C61.6756207,12.012963 62.2194338,11.3162394 62.2194338,10.4929141" id="Fill-88"></path>
                        <path d="M55.4911338,10.4929141 C55.4911338,9.47734159 54.6615414,8.65429206 53.6405045,8.65429206 C52.6194677,8.65429206 51.7926498,9.47734159 51.7926498,10.4929141 C51.7926498,11.3162394 52.3364629,12.012963 53.0855932,12.2474108 L53.0855932,20.422466 L54.1954159,20.422466 L54.1954159,12.2474108 C54.9473207,12.012963 55.4911338,11.3162394 55.4911338,10.4929141" id="Fill-89"></path>
                        <path d="M13.0903585,4.9982862 C13.1375259,3.9840928 12.3495518,3.12297999 11.3312895,3.07526298 C10.3102527,3.02754596 9.44459098,3.81142893 9.39464896,4.82562233 C9.35580516,5.64812021 9.8663236,6.36939183 10.6071302,6.63859302 L10.2186923,14.804822 L11.328515,14.8566764 L11.7141784,6.69044735 C12.4744069,6.49130467 13.0515147,5.82078409 13.0903585,4.9982862" id="Fill-90"></path>
                        <path d="M6.40367684,2.61657284 C6.83373313,1.69615854 6.43419697,0.601977084 5.50749503,0.172799783 C4.58356765,-0.256377517 3.48206865,0.141356202 3.0492378,1.0617705 C2.69964366,1.807866 2.89663719,2.66815135 3.47651953,3.19579671 L1.77635672e-15,10.6046216 L1.00716408,11.0707589 L4.48368361,3.66220983 C5.26333404,3.76536684 6.05130814,3.36266834 6.40367684,2.61657284" id="Fill-91"></path>
                    </g>
                    <path d="M1.78681451,3.48264997 L3.44169138e-15,4.90423082 C5.04969318,10.3914115 13.7229574,15.7191678 23.3756402,19.8553778 L22.7347176,15.618769 L1.78681451,3.48264997" id="Fill-9" fill="#126A71"></path>
                    <path d="M35.2673901,24.1857658 C52.9218944,29.5231757 70.6873809,30.1343948 74.0085252,21.1081563 C74.5440147,19.6496154 74.9907183,18.1797659 75.3514107,16.7049517 L49.0930061,16.859963 L35.2673901,24.1857658" id="Fill-10" fill="#126A71"></path>
                </g>
                <g id="man" transform="translate(95.019511, 88.349197) rotate(-2.000000) translate(-95.019511, -88.349197) translate(67.134486, 69.396589)">
                    <path d="M20.5525797,5.97453542 C20.6829839,2.54939164 23.579621,-0.123312753 27.0256205,0.00439231798 C30.4716199,0.13237321 33.1601653,3.01249491 33.0297611,6.43763869 C32.9021315,9.86278246 30.0054943,12.5357627 26.5594949,12.4077818 C23.1134955,12.2798009 20.4249501,9.3996792 20.5525797,5.97453542" id="Fill-128" fill="#006D73"></path>
                    <path d="M31.3927727,8.21861416 C28.4572917,9.05573055 24.7199638,7.15035986 24.7199638,7.15035986 C27.2892033,12.7321472 31.3927727,8.21861416 31.3927727,8.21861416" id="Fill-129" fill="#FFFFFE"></path>
                    <path d="M32.6773924,13.4216994 L50.9006808,8.8596219 C51.5998691,8.68502728 51.5138578,7.13601717 51.081027,5.94805661 L55.1457525,4.93082918 C55.586907,4.82022501 55.856039,4.37422263 55.7450568,3.93483996 C55.6312999,3.49545729 55.1845963,3.22873849 54.7406672,3.33961848 L47.607282,5.12583455 L47.5379181,5.15093425 L33.1823618,8.74377713 C32.2834054,10.9975096 30.2219098,12.6642952 27.6804158,12.9903155 C27.3030761,13.0385842 26.9174127,13.0556851 26.5345239,13.0416182 C24.6977674,12.9734904 22.9997387,12.1984337 21.7484136,10.8590475 C21.3682994,10.4516601 21.0436762,10.006761 20.7773188,9.53372815 L20.2806731,9.47249591 C20.0503849,9.41733173 19.8034494,9.39719681 19.5537393,9.42174487 C18.0804497,9.56324098 16.3935192,10.4899992 14.8453166,11.6120385 C13.4663619,12.6132684 12.1928404,13.7700612 11.2772367,14.6637208 C7.74522599,13.3566056 3.63333298,12.2869722 1.5884847,13.3828086 C0.769990466,13.8219155 0.220628243,14.5506343 0.0430566152,15.4351918 C-0.19555526,16.6300479 0.581320613,17.792633 1.78547822,18.0317697 C2.59842333,18.1928491 3.3947211,17.8913768 3.90246498,17.3093948 C5.16488827,17.3375285 8.24742076,18.1859536 11.0081047,19.2930986 C11.2772367,19.4012204 11.5574669,19.4539022 11.8376971,19.4539022 C12.4397759,19.4539022 13.0279819,19.210904 13.4552637,18.7582819 C14.1627756,18.0091524 14.9923681,17.2244419 15.8275096,16.5042736 C16.3297044,16.0687524 16.8346737,15.6594342 17.3174466,15.2956265 L15.4751409,30.0363221 C15.4529445,30.216709 15.4584936,30.3940618 15.4779155,30.5667257 C15.4862392,30.9674935 15.5611522,31.3737776 15.7220765,31.7679257 L18.1997556,37.9052162 L30.4189033,31.4769346 L32.6773924,13.4216994" id="Fill-3" fill="#006D73"></path>
                    <path d="M24.925281,16.7323775 L25.0307142,16.6656288 L25.3525628,14.9323704 L24.5618141,14.5704934 L23.7710655,14.2083405 L22.6556937,15.579722 L22.672341,15.7030139 C22.8721091,16.12171 23.210605,16.4391799 23.6101412,16.6231524 C24.0124519,16.8065733 24.4730283,16.8537387 24.925281,16.7323775" id="Fill-4" fill="#FFFFFE"></path>
                    <path d="M22.1978918,16.5553005 C22.1756954,16.7020372 22.159048,17.1408682 22.1396261,17.2870533 C19.0016025,20.6939929 16.4906287,22.4032549 13.5440495,24.5579677 C13.5495986,25.9903056 12.7311044,28.7548583 12.7311044,28.7548583 C12.7311044,28.7548583 15.69988,28.1077825 17.1925915,27.8079652 C19.3373239,24.7750387 21.7317663,22.098197 23.8459785,17.9755022 C23.9958045,17.8679321 24.1456306,17.7565004 24.2926821,17.6420348 C23.55465,17.615556 22.6029771,17.2925697 22.1978918,16.5553005" id="Fill-5" fill="#FFFFFE"></path>
                </g>
                <g id="machine" transform="translate(73.740825, 101.219883) rotate(-4.000000) translate(-73.740825, -101.219883) translate(5.482993, 20.234340)">
                    <path d="M64.5572519,89.7025082 C63.9579477,91.3342646 62.1406131,92.1730359 60.5008501,91.5761595 C58.8583125,90.9792831 58.0148473,89.1734838 58.6141515,87.5417274 C59.2162303,85.9105227 61.0307904,85.0717514 62.6733279,85.6683519 C64.3130909,86.2652283 65.1565562,88.0713035 64.5572519,89.7025082" id="Fill-84" fill="#FFFFFE"></path>
                    <path d="M95.5046573,100.954621 C94.9025785,102.585826 93.0852438,103.424597 91.4454808,102.827997 C89.8057178,102.231396 88.959478,100.425045 89.5615568,98.7938405 C90.1608611,97.16236 91.9781957,96.3235886 93.6179587,96.9201892 C95.2604963,97.5170656 96.1039615,99.3231408 95.5046573,100.954621" id="Fill-85" fill="#FFFFFE"></path>
                    <path d="M110.501137,13.0805691 C110.764719,13.1760031 111.058822,13.0405751 111.153157,12.7793727 C111.250267,12.5184461 111.114314,12.2269034 110.850731,12.1314694 L108.66438,11.3357262 L109.557787,8.8999519 C111.555468,9.10543847 113.514305,7.95719611 114.23569,5.99776453 C115.087479,3.682524 113.88887,1.1193205 111.561017,0.272826198 C109.233164,-0.573943926 106.652826,0.616223202 105.801038,2.93146373 C105.079653,4.89089531 105.831558,7.02436987 107.490743,8.14806417 L106.594561,10.5838384 L104.405436,9.78837098 C104.144627,9.69266113 103.850524,9.82836501 103.753415,10.0892916 C103.65908,10.3502181 103.795033,10.6417608 104.058616,10.7371948 L106.244967,11.5329381 L105.709477,12.9912031 L103.520352,12.1957357 C103.259544,12.1000258 102.965441,12.2354539 102.868331,12.4966563 C102.773996,12.7575828 102.909949,13.0491255 103.170758,13.1445595 L105.359883,13.9403028 L104.824394,15.398292 L102.635268,14.6028246 C102.371685,14.5073905 102.080357,14.6428186 101.983248,14.9037452 C101.886138,15.1649475 102.022091,15.4564902 102.285674,15.5519242 L104.474799,16.3473917 L103.936535,17.8056567 L101.750185,17.0101893 C101.486602,16.9147552 101.192499,17.0501833 101.098164,17.3111099 C101.001054,17.5723122 101.137008,17.8638549 101.400591,17.9592889 L103.586941,18.7547564 L103.051452,20.2130214 L100.862327,19.417554 C100.601518,19.3221199 100.307415,19.457548 100.21308,19.7184746 C100.115971,19.9794011 100.251924,20.2712196 100.515507,20.3666536 L102.701858,21.1621211 L100.349034,27.5597866 L102.416078,28.3119501 L104.771677,21.9142846 L106.958028,22.7097521 C107.221611,22.8051861 107.515714,22.6697581 107.610049,22.4088315 C107.707158,22.1479049 107.571205,21.8560864 107.307622,21.7606524 L105.121271,20.965185 L105.656761,19.5069199 L107.843111,20.3023874 C108.106694,20.3978214 108.400797,20.2623933 108.495132,20.0014668 C108.592242,19.7405402 108.456288,19.4487217 108.192705,19.3532877 L106.006355,18.5578203 L106.541844,17.0995552 L108.730969,17.8950227 C108.991778,17.9904567 109.285881,17.8553045 109.38299,17.5941021 C109.477325,17.3331755 109.341372,17.041357 109.080564,16.945923 L106.891438,16.1504556 L107.426928,14.6921905 L109.616053,15.4879338 C109.879636,15.5833678 110.170964,15.4479398 110.268074,15.1867374 C110.365183,14.9258108 110.226455,14.6342681 109.965647,14.5388341 L107.776522,13.7430909 L108.314786,12.2851017 L110.501137,13.0805691" id="antenna" fill="#126A71"></path>
                    <path d="M107.712707,3.6257049 L106.755485,3.2784464 C107.41583,1.49085124 109.41351,0.567954547 111.211423,1.22192587 L110.861829,2.17102554 C109.591082,1.70847392 108.176058,2.36106613 107.712707,3.6257049" id="Fill-87" fill="#FFFFFE"></path>
                    <path d="M59.9043204,140.67145 L59.9043204,140.67145 C58.6141515,140.202279 57.9454833,138.769389 58.417158,137.487374 L68.7107633,109.511137 C69.1824379,108.228846 70.6224329,107.563566 71.9126017,108.032737 C73.2027706,108.501632 73.8714388,109.934246 73.3997641,111.216537 L63.1089333,139.192498 C62.6372587,140.475066 61.1944892,141.140345 59.9043204,140.67145" id="Fill-11" fill="#126A71"></path>
                    <path d="M1.38891973,119.417796 L1.38891973,119.417796 C2.92602414,120.572382 5.13457126,120.266772 6.29433596,118.738449 L29.7310163,87.9030528 C30.8935556,86.3744534 30.5855798,84.1789192 29.0484754,83.0240571 C27.511371,81.8691951 25.3028239,82.1745288 24.1402846,83.7031281 L0.703604228,114.538524 C-0.456160469,116.067124 -0.150959233,118.262658 1.38891973,119.417796" id="Fill-12" fill="#126A71"></path>
                    <polyline id="Fill-13" fill="#126A71" points="24.11018 92.7835003 41.8562446 90.5653487 41.3734717 86.7471602 23.6274071 88.9653117 24.11018 92.7835003"></polyline>
                    <path d="M44.8246047,57.2618346 C52.9651541,35.1332765 77.6975524,23.7151192 99.9578206,31.8085315 C122.21809,39.9022196 133.704754,64.489721 125.56143,86.6185549 C117.420881,108.746837 36.6812809,79.3906686 44.8246047,57.2618346 Z M102.818389,24.0375538 C76.2048409,14.3612055 46.7390489,27.9638642 37.005904,54.4197762 C27.2727591,80.8756882 40.9540982,110.166487 67.5676459,119.842836 C94.1811937,129.519184 123.646986,115.916801 133.380131,89.4608891 C143.113276,63.0049771 129.429162,33.7139022 102.818389,24.0375538 L102.818389,24.0375538 Z" id="Fill-20" fill="#126A71"></path>
                    <path d="M118.408623,161.965926 L118.408623,161.965926 C116.483081,161.862217 114.993144,160.211981 115.098577,158.299163 L117.204466,119.708511 C117.309899,117.795417 118.969084,116.315087 120.894626,116.419071 C122.817394,116.52278 124.307331,118.17274 124.201898,120.085834 L122.096009,158.676486 C121.990576,160.58958 120.331391,162.06991 118.408623,161.965926" id="Fill-16" fill="#126A71"></path>
                    <polyline id="Fill-17" fill="#126A71" points="120.192663 122.282471 108.073399 109.204976 110.920095 106.597365 123.039358 119.674861 120.192663 122.282471"></polyline>
                    <path d="M27.0785401,87.8754707 C26.8010845,88.6268068 25.9659429,89.0126802 25.2084889,88.7379626 C24.4538095,88.4635208 24.0653716,87.6319208 24.3428273,86.8808606 C24.6175084,86.1295245 25.4554245,85.7436511 26.2101039,86.0183687 C26.9647833,86.2930863 27.3532213,87.1246862 27.0785401,87.8754707" id="Fill-14" fill="#FFFFFE"></path>
                    <path d="M26.2517223,87.5756534 C26.1435145,87.8738158 25.8105677,88.0268964 25.5109156,87.9179471 C25.2112635,87.808722 25.0586629,87.4788403 25.1668706,87.1809537 C25.2778529,86.8827913 25.6080251,86.7294349 25.9076772,86.83866 C26.2073293,86.9476092 26.3627045,87.277491 26.2517223,87.5756534" id="Fill-15" fill="#0A0B09"></path>
                    <path d="M119.252088,121.389639 C118.974633,122.140699 119.363071,122.972575 120.11775,123.247017 C120.875204,123.521735 121.710346,123.135585 121.987801,122.384525 C122.262482,121.633465 121.874044,120.801865 121.119365,120.527147 C120.364686,120.25243 119.52677,120.638579 119.252088,121.389639" id="Fill-18" fill="#FFFFFE"></path>
                    <path d="M120.076132,121.689732 C119.965149,121.987619 120.120525,122.317777 120.420177,122.426726 C120.719829,122.535951 121.052776,122.382594 121.160983,122.084432 C121.271966,121.786545 121.11659,121.456388 120.816938,121.347439 C120.517286,121.238214 120.187114,121.39157 120.076132,121.689732" id="Fill-19" fill="#126A71"></path>
                </g>
                <g id="clock-middle" transform="translate(79.453012, 127.216952) rotate(-4.000000) translate(-79.453012, -127.216952) translate(65.416182, 113.262950)">
                    <path d="M23.964193,4.0874587 C29.4439425,9.53795525 29.4439425,18.3727741 23.9614185,23.8216157 C18.4788945,29.2707332 9.59198937,29.2701815 4.10946535,23.819685 C-1.37028412,18.3700159 -1.37028412,9.53519705 4.1122399,4.08663124 C9.59476392,-1.36276202 18.481669,-1.36193456 23.964193,4.0874587" id="Fill-21" fill="#126A71"></path>
                    <path d="M25.6677708,18.1824577 C23.3177213,24.5677112 16.2065325,27.8502556 9.78343378,25.5148801 C3.3631096,23.1797805 0.0586125751,16.1104912 2.40866209,9.72523764 C4.75871161,3.34025992 11.8699004,0.0577155414 18.2902246,2.39281517 C24.7133233,4.72819063 28.0178204,11.7977558 25.6677708,18.1824577" id="Fill-22" fill="#FFFFFE"></path>
                    <polyline id="Fill-23" fill="#0A0B09" points="17.4523085 5.72583477 16.7697675 5.47732015 18.0682601 1.94846773 18.750801 2.19725817 17.4523085 5.72583477"></polyline>
                    <polyline id="Fill-24" fill="#0A0B09" points="10.0081729 25.9600551 9.32285737 25.7115404 10.6213499 22.182688 11.3066654 22.4314784 10.0081729 25.9600551"></polyline>
                    <polyline id="Fill-25" fill="#0A0B09" points="12.5829615 3.56781215 11.8643513 3.69275902 11.5064335 1.6602349 12.2250437 1.53528804 12.5829615 3.56781215"></polyline>
                    <polyline id="Fill-26" fill="#0A0B09" points="16.5672249 26.2480121 15.8513893 26.3726831 15.4934715 24.3409864 16.2120816 24.2157638 16.5672249 26.2480121"></polyline>
                    <polyline id="Fill-27" fill="#0A0B09" points="7.5526902 5.68225507 6.9950043 6.14728909 5.66321709 4.56462884 6.22090299 4.10042229 7.5526902 5.68225507"></polyline>
                    <polyline id="Fill-28" fill="#0A0B09" points="22.4132158 23.3427907 21.8527554 23.8078247 20.5209682 22.2257161 21.0814286 21.7609579 22.4132158 23.3427907"></polyline>
                    <polyline id="Fill-29" fill="#0A0B09" points="3.59062324 15.4010799 3.7154783 16.1149043 1.67063001 16.4701616 1.54577496 15.7560613 3.59062324 15.4010799"></polyline>
                    <polyline id="Fill-30" fill="#0A0B09" points="26.4030284 11.438637 26.530658 12.1521856 24.4858097 12.5077187 24.3609546 11.7938943 26.4030284 11.438637"></polyline>
                    <polyline id="Fill-31" fill="#0A0B09" points="5.71593367 20.4003334 6.18483375 20.9563883 4.59223821 22.279777 4.12611269 21.7239979 5.71593367 20.4003334"></polyline>
                    <polyline id="Fill-32" fill="#0A0B09" points="23.4814202 5.62819418 23.9503202 6.18480073 22.3577247 7.50846517 21.8915992 6.95268608 23.4814202 5.62819418"></polyline>
                    <polyline id="Fill-33" fill="#0A0B09" points="5.76032658 10.5587684 5.51061647 11.2392185 1.95918391 9.94865256 2.21166857 9.26847825 5.76032658 10.5587684"></polyline>
                    <polyline id="Fill-34" fill="#0A0B09" points="26.1144745 17.9595944 25.8647644 18.6400445 22.3161064 17.3497544 22.5658165 16.6695801 26.1144745 17.9595944"></polyline>
                    <polyline id="Fill-35" fill="#0A0B09" points="12.610707 12.436557 13.5929001 11.9158071 17.9545032 20.0318367 16.9750847 20.5528624 12.610707 12.436557"></polyline>
                    <polyline id="Fill-36" fill="#0A0B09" points="14.0590256 11.6645343 14.8525489 11.8209247 12.6606491 22.8545877 11.8671259 22.6987489 14.0590256 11.6645343"></polyline>
                </g>
                <g id="clock-left" transform="translate(47.893125, 117.757205) rotate(-4.000000) translate(-47.893125, -117.757205) translate(33.483240, 103.432686)">
                    <path d="M28.258294,18.2732815 C26.0636196,25.8768359 18.0839946,30.2714901 10.4373163,28.0897469 C2.78786355,25.9085553 -1.63200526,17.9781531 0.562669081,10.3745987 C2.75734342,2.77242344 10.7341939,-1.62195493 18.3836467,0.558960826 C26.030325,2.73987658 30.4501938,10.6705545 28.258294,18.2732815" id="Fill-37" fill="#126A71"></path>
                    <path d="M26.3466244,18.6641197 C23.9355347,25.217624 16.635676,28.5862244 10.0461039,26.1896168 C3.45375715,23.7930091 0.0632488762,16.5380923 2.47433864,9.984588 C4.88542841,3.43191119 12.1852871,0.06275905 18.7748592,2.45936674 C25.3672059,4.85597443 28.7577142,12.1114429 26.3466244,18.6641197" id="Fill-38" fill="#FFFFFE"></path>
                    <polyline id="Fill-39" fill="#0A0B09" points="17.9147466 5.88009738 17.2127838 5.62468724 18.544571 2.00315899 19.2465338 2.25856913 17.9147466 5.88009738"></polyline>
                    <polyline id="Fill-40" fill="#0A0B09" points="10.2736175 26.646652 9.57165466 26.3912418 10.9062164 22.7697136 11.6081793 23.0251237 10.2736175 26.646652"></polyline>
                    <polyline id="Fill-41" fill="#0A0B09" points="12.91777 3.66525566 12.1797379 3.79323655 11.8134965 1.70720318 12.548754 1.57894647 12.91777 3.66525566"></polyline>
                    <polyline id="Fill-42" fill="#0A0B09" points="17.0074666 26.9420561 16.2694345 27.0703129 15.903193 24.9848311 16.6412251 24.8565744 17.0074666 26.9420561"></polyline>
                    <polyline id="Fill-43" fill="#0A0B09" points="7.75432003 5.8354144 7.17998679 6.31230871 5.8149049 4.68827533 6.38923813 4.21193265 7.75432003 5.8354144"></polyline>
                    <polyline id="Fill-44" fill="#0A0B09" points="23.0060582 23.9604323 22.4317249 24.4376025 21.066643 22.8138449 21.6382017 22.3369506 23.0060582 23.9604323"></polyline>
                    <polyline id="Fill-45" fill="#0A0B09" points="3.68681992 15.8096493 3.81722408 16.5422296 1.71688467 16.9068648 1.58925506 16.1740087 3.68681992 15.8096493"></polyline>
                    <polyline id="Fill-46" fill="#0A0B09" points="27.1013038 11.7429462 27.231708 12.4755264 25.1341431 12.8401616 25.003739 12.1075814 27.1013038 11.7429462"></polyline>
                    <polyline id="Fill-47" fill="#0A0B09" points="5.87039603 20.9404695 6.35039434 21.5111429 4.71618045 22.8692849 4.23618214 22.2988873 5.87039603 20.9404695"></polyline>
                    <polyline id="Fill-48" fill="#0A0B09" points="24.1047826 5.78025022 24.5847809 6.35092363 22.950567 7.7093415 22.4705687 7.13921973 24.1047826 5.78025022"></polyline>
                    <polyline id="Fill-49" fill="#0A0B09" points="5.91478894 10.8401844 5.65675517 11.5385629 2.01376223 10.214071 2.271796 9.51569249 5.91478894 10.8401844"></polyline>
                    <polyline id="Fill-50" fill="#0A0B09" points="26.8044263 18.43574 26.5491671 19.1341185 22.9061741 17.8096266 23.1614333 17.1115239 26.8044263 18.43574"></polyline>
                    <polyline id="Fill-51" fill="#0A0B09" points="12.6930309 15.5994738 12.2685238 14.5472171 21.0888395 11.0349139 21.5133467 12.0877223 12.6930309 15.5994738"></polyline>
                    <polyline id="Fill-52" fill="#0A0B09" points="15.7561415 16.2548242 14.9986875 16.592429 10.2541956 6.05689857 11.0116496 5.7192938 15.7561415 16.2548242"></polyline>
                </g>
                <g id="clock-right" transform="translate(111.341592, 136.006616) rotate(-4.000000) translate(-111.341592, -136.006616) translate(96.932360, 121.681830)">
                    <path d="M18.486334,28.0601542 C10.8563031,30.2989924 2.84338334,25.9639155 0.59321786,18.3780136 C-1.65972217,10.7921118 2.70188095,2.82833531 10.3319118,0.58922135 C17.9619428,-1.64906515 25.9748625,2.68546009 28.225028,10.2710861 C30.477968,17.8572638 26.1191394,25.8215919 18.486334,28.0601542" id="Fill-53" fill="#126A71"></path>
                    <path d="M26.3466531,18.6645915 C23.9355633,25.2180958 16.6357047,28.5866963 10.043358,26.1900886 C3.45378581,23.7934809 0.0632775328,16.5382883 2.4743673,9.98505987 C4.88545706,3.43210723 12.1853157,0.0632309184 18.7748879,2.45956278 C25.3672346,4.85644629 28.7577428,12.1119147 26.3466531,18.6645915" id="Fill-54" fill="#FFFFFE"></path>
                    <polyline id="Fill-55" fill="#0A0B09" points="17.9147753 5.88056925 17.2128124 5.62515911 18.5445997 2.00363086 19.2465625 2.259041 17.9147753 5.88056925"></polyline>
                    <polyline id="Fill-56" fill="#0A0B09" points="10.2736462 26.6471238 9.57168332 26.3917137 10.9034705 22.7701854 11.6082079 23.0255956 10.2736462 26.6471238"></polyline>
                    <polyline id="Fill-57" fill="#0A0B09" points="12.9177987 3.66572752 12.1797666 3.79370842 11.8135251 1.70767505 12.5487826 1.57941833 12.9177987 3.66572752"></polyline>
                    <polyline id="Fill-58" fill="#0A0B09" points="17.0074952 26.942528 16.2694632 27.0705089 15.9032217 24.9850272 16.6412538 24.8570463 17.0074952 26.942528"></polyline>
                    <polyline id="Fill-59" fill="#0A0B09" points="7.75434868 6.38752804 7.18001545 6.86442235 5.81493355 5.24038897 6.38926679 4.7640463 7.75434868 6.38752804"></polyline>
                    <polyline id="Fill-60" fill="#0A0B09" points="23.0060868 23.9609042 22.4317536 24.4377985 21.0638971 22.8143168 21.6382304 22.3374225 23.0060868 23.9609042"></polyline>
                    <polyline id="Fill-61" fill="#0A0B09" points="3.68684857 15.8101212 3.81447818 16.5427015 1.71691332 16.9073367 1.58928371 16.1744806 3.68684857 15.8101212"></polyline>
                    <polyline id="Fill-62" fill="#0A0B09" points="27.1013325 11.743418 27.2317367 12.4757225 25.1313972 12.8406335 25.0037676 12.1080532 27.1013325 11.743418"></polyline>
                    <polyline id="Fill-63" fill="#0A0B09" points="5.87042469 20.9409413 6.350423 21.5116147 4.71620911 22.8697568 4.2362108 22.2993592 5.87042469 20.9409413"></polyline>
                    <polyline id="Fill-64" fill="#0A0B09" points="24.1020367 5.78044627 24.5848096 6.3513955 22.9478211 7.70981337 22.4705974 7.1396916 24.1020367 5.78044627"></polyline>
                    <polyline id="Fill-65" fill="#0A0B09" points="5.9148176 10.8403804 5.65678382 11.5387589 2.01379089 10.214267 2.27182466 9.51588854 5.9148176 10.8403804"></polyline>
                    <polyline id="Fill-66" fill="#0A0B09" points="26.8044549 18.4362118 26.5464212 19.1345903 22.9062028 17.8100984 23.161462 17.1119958 26.8044549 18.4362118"></polyline>
                    <polyline id="Fill-67" fill="#0A0B09" points="16.3970928 15.1269128 15.7090027 16.0318812 8.12336472 10.3439028 8.81145478 9.43865869 16.3970928 15.1269128"></polyline>
                    <polyline id="Fill-68" fill="#0A0B09" points="13.0176827 12.4255231 13.7695876 12.0710932 18.755466 22.4957437 18.0035611 22.8507251 13.0176827 12.4255231"></polyline>
                </g>
                <g id="cog-left" transform="translate(58.814708, 139.067700) rotate(-4.000000) translate(-58.814708, -139.067700) translate(48.245056, 128.560591)">
                    <path d="M20.4928533,14.1154521 C18.4896234,19.5637421 12.4216679,22.364979 6.93914391,20.3721731 C1.45939444,18.3793672 -1.35955515,12.3474402 0.646449331,6.89915021 C2.64967926,1.4505844 8.71763475,-1.35092835 14.2001588,0.642153383 C19.6799082,2.63495929 22.4988578,8.66688627 20.4928533,14.1154521" id="Fill-69" fill="#126A71"></path>
                    <path d="M8.99786497,14.7754915 C6.55348053,13.8862449 5.27440989,11.254362 6.14007158,8.89692089 C7.00850783,6.53947977 9.6942787,5.34903682 12.1386631,6.23855918 C14.5858222,7.12808154 15.8648928,9.75996445 14.9992311,12.1174056 C14.1307949,14.4745709 11.445024,15.664738 8.99786497,14.7754915 Z M16.9663918,13.3704599 L17.3132114,12.4219118 L16.2783017,12.0451405 C16.3199201,11.8884742 16.3559893,11.731808 16.3837349,11.5745901 L17.4769102,11.6802295 L17.5601469,10.6710008 L16.4669716,10.5661889 C16.464197,10.404282 16.4558734,10.2429268 16.439226,10.0826749 L17.5185286,9.90973519 L17.3298587,8.90933283 L16.2477816,9.08254835 C16.2033887,8.9261579 16.1534467,8.77169821 16.095181,8.6197209 L17.0884723,8.18006241 L16.6389941,7.25661408 L15.6457028,7.69599675 C15.5624661,7.55560392 15.4709057,7.41879676 15.3765708,7.28557527 L16.2117124,6.60926245 L15.5347205,5.82482785 L14.699579,6.50058902 C14.580273,6.38557171 14.4581925,6.2744159 14.3305629,6.16850068 L14.9492891,5.30380219 L14.0891765,4.71271803 L13.4676758,5.57934726 C13.3233989,5.49825592 13.1763474,5.42185353 13.0237467,5.35151921 L13.3927628,4.3530476 L12.4077951,3.99503209 L12.0387791,4.9935037 C11.8778548,4.949924 11.7169305,4.91323982 11.5532317,4.88317534 L11.6392429,3.82154075 L10.5987842,3.72141777 L10.5127729,4.78084579 C10.3462995,4.77919087 10.1798261,4.78581057 10.0161273,4.79767087 L9.8163592,3.74569 L8.78699867,3.91035507 L8.9895413,4.9631634 C8.82861702,5.00370907 8.67046729,5.04977116 8.51509211,5.10272877 L8.04341747,4.13101178 L7.1000682,4.54832878 L7.57174284,5.52059741 C7.43024044,5.59948219 7.29151261,5.68498666 7.15555933,5.77573173 L6.43972371,4.95019982 L5.64620049,5.59258666 L6.35926156,6.41756694 C6.24273018,6.52982604 6.13174791,6.64677409 6.0235402,6.76923857 L5.12180928,6.14836575 L4.5308287,6.97196692 L5.43533418,7.59421884 C5.35487204,7.73212928 5.27995901,7.87390122 5.20782053,8.02036211 L4.17291089,7.64359078 L3.82331675,8.59213881 L4.86100095,8.96891014 C4.8193826,9.12530059 4.78331336,9.28224267 4.75556779,9.43946058 L3.6596179,9.334097 L3.57915576,10.342774 L4.67233109,10.4481376 C4.67233109,10.6100444 4.68342932,10.7711238 4.70007666,10.9313758 L3.61799955,11.1043155 L3.80944396,12.1047178 L4.88874651,11.9317781 C4.93591398,12.0878927 4.985856,12.2423524 5.04412169,12.3943297 L4.05083039,12.8337124 L4.50030858,13.7577124 L5.49359987,13.3180539 C5.57683657,13.4584467 5.66839694,13.5949781 5.76273187,13.7284754 L4.92759031,14.405064 L5.60458214,15.188947 L6.43972371,14.5134616 C6.55902964,14.6282031 6.68111014,14.7396347 6.80873975,14.8452741 L6.18723905,15.7102484 L7.04735162,16.3016084 L7.67162688,15.4347034 C7.81590382,15.5160705 7.96295533,15.5919213 8.11555595,15.6625314 L7.74653991,16.661003 L8.73150753,17.0187427 L9.09774902,16.0202711 C9.26144786,16.0641266 9.42237215,16.1008108 9.58607099,16.1305995 L9.50005974,17.1925099 L10.5405185,17.2923571 L10.6265298,16.232929 C10.7930032,16.2348598 10.9594766,16.2282401 11.1231754,16.2163798 L11.3229435,17.2680848 L12.3495295,17.1039714 L12.1497614,16.0506114 C12.3106857,16.0106174 12.4688354,15.9645553 12.6242106,15.911046 L13.0958852,16.8833147 L14.0392345,16.465446 L13.5675598,15.4934532 C13.7090622,15.4145685 13.8477901,15.329064 13.9837433,15.2383189 L14.6968044,16.063575 L15.4931022,15.4211882 L14.7800411,14.5967595 C14.8937979,14.4842246 15.0075548,14.3675524 15.1129879,14.2448121 L16.0174934,14.8654091 L16.608474,14.0418079 L15.7039685,13.4198318 C15.7844306,13.2819214 15.8593437,13.1401494 15.9287076,12.9936885 L16.9663918,13.3704599 L16.9663918,13.3704599 Z" id="Fill-70" fill="#FFFFFE"></path>
                    <path d="M10.2103462,8.00408868 C9.98838171,8.60510239 10.3157794,9.27589879 10.9400547,9.50262356 C11.5615554,9.72934833 12.2468709,9.42622117 12.4688354,8.82520746 C12.6880254,8.22419375 12.3634022,7.55339735 11.739127,7.32639676 C11.1148517,7.09994781 10.4323108,7.40335079 10.2103462,8.00408868" id="Fill-71" fill="#E5E5E0"></path>
                    <path d="M10.9289564,13.009962 C11.1481464,12.4089482 10.8235233,11.7381518 10.199248,11.5111513 C9.57497277,11.2847023 8.89243182,11.5881053 8.67046729,12.1888432 C8.44850275,12.7898569 8.77590044,13.4609291 9.4001757,13.6873781 C10.0216764,13.9141028 10.7069919,13.6109757 10.9289564,13.009962" id="Fill-72" fill="#FFFFFE"></path>
                    <path d="M9.5278053,10.1281853 C9.74699528,9.52717162 9.42237215,8.85637522 8.79809689,8.62965045 C8.17382164,8.40292568 7.49128069,8.70632866 7.26931616,9.30706655 C7.04735162,9.90808026 7.37474931,10.5788767 7.99902457,10.8058773 C8.62052526,11.0323262 9.30584077,10.7289232 9.5278053,10.1281853" id="Fill-73" fill="#FFFFFE"></path>
                    <path d="M13.1402781,10.2084492 C12.5160029,9.98144862 11.8334619,10.2851274 11.6114974,10.8858653 C11.3895328,11.4866032 11.7169305,12.1576754 12.3412058,12.3844002 C12.9627065,12.611125 13.648022,12.307722 13.8699865,11.7067083 C14.0891765,11.1059704 13.7645534,10.4348982 13.1402781,10.2084492" id="Fill-74" fill="#FFFFFE"></path>
                </g>
                <g id="cog-right" transform="translate(90.716551, 148.243551) rotate(-4.000000) translate(-90.716551, -148.243551) translate(80.146807, 137.736496)">
                    <path d="M20.4944881,14.1153445 C18.4884836,19.5636345 12.4205281,22.3648714 6.94077864,20.3720655 C1.45825461,18.3792596 -1.35792043,12.3473326 0.645309507,6.89876683 C2.65131399,1.45047685 8.71926948,-1.35076008 14.1990189,0.642045829 C19.6787684,2.63485174 22.497718,8.66677872 20.4944881,14.1153445" id="Fill-75" fill="#126A71"></path>
                    <path d="M8.9994997,14.7756597 C6.5523407,13.8861374 5.27327007,11.2539786 6.14170631,8.89653752 C7.007368,6.5390964 9.69313888,5.34920509 12.1402979,6.23872745 C14.5874569,7.12797399 15.8665275,9.75985689 14.9980913,12.117298 C14.129655,14.4747391 11.4438841,15.6646304 8.9994997,14.7756597 Z M16.965252,13.3703523 L17.3148461,12.4218043 L16.2799365,12.0450329 C16.3215548,11.8886425 16.3548495,11.7319762 16.3825951,11.5744825 L17.478545,11.6801219 L17.5617817,10.6711691 L16.4686063,10.5660813 C16.4658318,10.4041745 16.4547335,10.2428193 16.4408607,10.0825673 L17.5201633,9.90962764 L17.3287189,8.90922528 L16.2494163,9.0824408 C16.2050234,8.92632617 16.1550814,8.77159066 16.0968157,8.61961335 L17.0873325,8.18023067 L16.6378543,7.25650652 L15.6473375,7.69616502 C15.5613263,7.55577219 15.4725405,7.41896503 15.375431,7.28546772 L16.2105725,6.6091549 L15.5335807,5.82499612 L14.6984391,6.50075729 C14.5819078,6.38573998 14.4570527,6.27430834 14.3294231,6.16866894 L14.9509238,5.30369464 L14.0908112,4.71261048 L13.466536,5.57951553 C13.3250336,5.49814837 13.1779821,5.4220218 13.0253815,5.35168748 L13.3916229,4.35321587 L12.4066553,3.99520035 L12.0404138,4.99367196 C11.8794895,4.94981644 11.7157907,4.91340809 11.5520919,4.88334361 L11.6408777,3.82170902 L10.6004189,3.72158603 L10.5116331,4.78073824 C10.3451597,4.77935914 10.1814609,4.78570302 10.0149875,4.79783914 L9.81521937,3.74558245 L8.78863339,3.91024752 L8.98840148,4.96333167 C8.82747719,5.00360152 8.66932746,5.04966361 8.51395228,5.10262122 L8.04227764,4.13090423 L7.09892837,4.54849705 L7.57337756,5.52048986 C7.42910061,5.59937463 7.29037278,5.68515493 7.1544195,5.7759 L6.44135843,4.95036809 L5.64783522,5.59275493 L6.36089629,6.41745938 C6.24436491,6.52971849 6.13060808,6.64639072 6.02517493,6.76913102 L5.12066945,6.1482582 L4.52968887,6.97213519 L5.43419435,7.59438711 C5.35373221,7.73202173 5.27881918,7.87379367 5.20945526,8.02053038 L4.17454562,7.64348323 L3.82495147,8.59230708 L4.85986112,8.96880259 C4.81824277,9.12519303 4.78494809,9.28241094 4.75720252,9.43935302 L3.66125263,9.33398944 L3.57801593,10.3426664 L4.67119126,10.44803 C4.67396582,10.6099369 4.68228949,10.7710163 4.69893683,10.9312682 L3.61963428,11.1042079 L3.80830413,12.1046103 L4.89038124,11.9316706 C4.93477415,12.088061 4.98471617,12.2422449 5.04298186,12.3942222 L4.05246512,12.8338807 L4.49916875,13.7576048 L5.49246004,13.3182222 C5.57569674,13.4583392 5.66725712,13.5948705 5.7643666,13.7286436 L4.92645048,14.4049565 L5.60621687,15.1891152 L6.44135843,14.5133541 C6.55788981,14.6283714 6.67997031,14.739803 6.81037447,14.8454424 L6.18887377,15.7101409 L7.04898635,16.3015009 L7.67048705,15.4345958 C7.814764,15.515963 7.9618155,15.5920896 8.11441612,15.6626997 L7.74817463,16.6611713 L8.7303677,17.018911 L9.09938374,16.0201636 C9.26030803,16.0642949 9.42400688,16.1007033 9.58493116,16.1307677 L9.49891991,17.1924023 L10.5393787,17.2925253 L10.6253899,16.2330973 C10.7946379,16.2347522 10.9583367,16.2281325 11.1248101,16.2159964 L11.3245782,17.2682531 L12.3511642,17.1038638 L12.1513961,16.0507797 C12.3095458,16.0105098 12.4676956,15.9641719 12.6230707,15.9112143 L13.0975199,16.8832071 L14.0408692,16.4656143 L13.56642,15.4933457 C13.710697,15.4144609 13.8494248,15.3289564 13.9853781,15.2382114 L14.6984391,16.0637433 L15.4919624,15.4213564 L14.7789013,14.596652 C14.8954327,14.484117 15.0064149,14.3674448 15.1146227,14.2449803 L16.0163536,14.8655773 L16.6101087,14.0419762 L15.7028287,13.4200001 C15.7860654,13.2820896 15.8609784,13.1400419 15.9303423,12.9938568 L16.965252,13.3703523 L16.965252,13.3703523 Z" id="Fill-76" fill="#FFFFFE"></path>
                    <path d="M10.2092064,8.00425695 C9.99001644,8.60527066 10.3146396,9.27579124 10.9389148,9.50279183 C11.5631901,9.7295166 12.2485056,9.4258378 12.4676956,8.82537573 C12.6896601,8.22436202 12.3622624,7.5532898 11.7407617,7.32656503 C11.1164865,7.10011608 10.431171,7.40324323 10.2092064,8.00425695" id="Fill-77" fill="#E5E5E0"></path>
                    <path d="M10.9278166,13.0098544 C11.1497811,12.4091165 10.8223834,11.7380443 10.2008827,11.5113195 C9.57660749,11.2845948 8.89129199,11.5879977 8.67210201,12.1890114 C8.45013748,12.7900252 8.77476061,13.4608216 9.39903587,13.6872705 C10.0233111,13.9142711 10.7086266,13.6108681 10.9278166,13.0098544" id="Fill-78" fill="#FFFFFE"></path>
                    <path d="M9.52666547,10.1280778 C9.74863001,9.52706407 9.42123232,8.85626767 8.79973162,8.62981872 C8.17545636,8.40281813 7.49014086,8.70622111 7.27095088,9.30723482 C7.04898635,9.90797271 7.37360948,10.5790449 7.99788474,10.8057697 C8.62215999,11.0322186 9.3074755,10.7290915 9.52666547,10.1280778" id="Fill-79" fill="#FFFFFE"></path>
                    <path d="M13.1419128,10.2083417 C12.5176376,9.98161689 11.8323221,10.284744 11.6131321,10.8857578 C11.3911676,11.4867715 11.7157907,12.1578437 12.340066,12.3845685 C12.9643412,12.6110174 13.6496567,12.3076144 13.8688467,11.7068765 C14.0908112,11.1058628 13.7634135,10.4347906 13.1419128,10.2083417" id="Fill-80" fill="#FFFFFE"></path>
                </g>
                <g id="zaps" transform="translate(101.664601, 9.188613) rotate(-4.000000) translate(-101.664601, -9.188613) translate(91.832959, 0.665058)" fill="#126A71">
                    <polyline id="Fill-81" points="13.2984502 14.5608605 11.2480528 6.67072815 8.66494055 8.87867436 5.73223412 0.541988043 7.27488765 0 9.21707733 7.00833292 12.2524424 4.76204762 13.656368 14.4524628 13.2984502 14.5608605"></polyline>
                    <polyline id="Fill-82" points="16.5973981 14.6427793 16.2894223 14.5729966 18.1206298 7.92543737 15.2878074 8.46632213 16.6612129 1.12038444 18.0235203 1.36834742 16.4836413 7.32414784 19.6632833 6.94241173 16.5973981 14.6427793"></polyline>
                    <polyline id="Fill-83" points="10.7486326 17.0471099 6.36205849 11.8473346 5.21339202 14.4290181 1.19949929e-24 9.2093836 0.965545729 8.25090602 4.95535825 12.8262229 6.4258733 10.0547746 10.9789208 16.8399684 10.7486326 17.0471099"></polyline>
                </g>
            </g>
        </g>
    </g>
</svg>