<?xml version="1.0" encoding="UTF-8"?>
<svg width="850px" height="440px" viewBox="0 0 850 440" version="1.1" xmlns="http://www.w3.org/2000/svg" xmlns:xlink="http://www.w3.org/1999/xlink">
    <title>featured</title>
    <defs>
        <radialGradient cx="49.999%" cy="49.9995%" fx="49.999%" fy="49.9995%" r="177.797392%" gradientTransform="translate(0.499990,0.499995),scale(0.390270,1.000000),rotate(180.000000),translate(-0.499990,-0.499995)" id="radialGradient-1">
            <stop stop-color="#DAEFF3" offset="0%"></stop>
            <stop stop-color="#6EC1D4" offset="100%"></stop>
        </radialGradient>
    </defs>
    <g id="Page-1" stroke="none" stroke-width="1" fill="none" fill-rule="evenodd">
        <g id="featured" fill-rule="nonzero">
            <polygon id="BluSky" fill="url(#radialGradient-1)" points="0 440 850 437.786073 831.617142 108.270313 12.6672608 108.270313"></polygon>
            <g id="Group" transform="translate(22.500447, 116.778287)">
                <path d="M821.658391,75.4418166 L700.545561,75.4418166 C700.545561,75.4418166 727.656959,73.3468086 761.101976,73.3468086 C794.544559,73.3468086 821.658391,75.4418166 821.658391,75.4418166" id="Fill-9" fill="#A6D4D1"></path>
                <path d="M700.545561,75.4418166 C700.545561,75.4418166 727.656959,76.8400958 761.101976,76.8400958 C794.542125,76.8400958 821.658391,75.4418166 821.658391,75.4418166 L700.545561,75.4418166 Z" id="Fill-10" fill="#DEF0EE"></path>
                <path d="M707.344101,68.8626718 C698.0311,67.2980456 693.211512,58.3297721 696.602262,48.8383493 C700.002749,39.3421048 710.430584,32.9100204 719.879897,34.4770575 C720.595533,34.5975988 721.272222,34.7735891 721.936741,34.9760985 C721.98299,34.8362706 721.992726,34.7012643 722.043843,34.5662581 C723.791552,29.8145196 729.049284,26.5984774 733.781243,27.3844068 C735.385338,27.6471868 736.692469,28.365613 737.690464,29.3516409 C745.228981,20.8583002 756.834937,15.9763771 767.525659,17.7435127 C782.011197,20.139874 789.075057,33.859886 783.349972,48.3875248 C782.685453,50.0823356 781.865149,51.7096433 780.928007,53.2694478 C783.693185,51.8253629 786.779668,51.1889048 789.70063,51.6783025 C796.197337,52.7655852 799.31303,59.0168575 796.669559,65.6345755 C796.03425,67.2281316 795.119015,68.693914 794.016352,69.9909385 C795.167698,69.6220821 796.350687,69.4726108 797.499599,69.6654769 C800.440035,70.164518 802.131758,72.5657009 801.883477,75.4418166 L746.334078,75.4418166 C728.56976,72.4403379 711.479697,69.5618114 707.344101,68.8626718" id="Fill-11" fill="#A6D4D1"></path>
                <path d="M706.058878,68.8626718 C696.473253,67.2980456 689.986283,58.3297721 691.563603,48.8383493 C693.148225,39.3421048 702.195905,32.9100204 711.783964,34.4770575 C712.514204,34.5975988 713.215235,34.7735891 713.904095,34.9760985 C713.923568,34.8362706 713.908964,34.7012643 713.930871,34.5662581 C714.721965,29.8145196 719.25189,26.5984774 724.044702,27.3844068 C725.670705,27.6471868 727.09224,28.365613 728.270361,29.3516409 C733.94433,20.8583002 744.289405,15.9763771 755.096965,17.7435127 C769.765063,20.139874 779.696335,33.859886 777.27437,48.3875248 C776.99201,50.0823356 776.541695,51.7096433 775.962371,53.2694478 C778.374599,51.8253629 781.295561,51.1889048 784.294416,51.6783025 C790.976117,52.7655852 795.501174,59.0168575 794.396077,65.6345755 C794.13319,67.2281316 793.5563,68.693914 792.757904,69.9909385 C793.816753,69.6220821 794.968099,69.4726108 796.155957,69.6654769 C799.208362,70.164518 801.457503,72.5657009 801.883477,75.4418166 L746.334078,75.4418166 C727.956358,72.4403379 710.323482,69.5618114 706.058878,68.8626718" id="Fill-12" fill="#FFFFFE"></path>
                <path d="M432.204067,59.6701914 L307.734565,59.6701914 C307.734565,59.6701914 335.595676,57.5173236 369.968099,57.5173236 C404.338087,57.5173236 432.204067,59.6701914 432.204067,59.6701914" id="Fill-13" fill="#A6D4D1"></path>
                <path d="M432.204067,59.6701914 L307.734565,59.6701914 C307.734565,59.6701914 335.595676,61.104633 369.968099,61.104633 C404.335653,61.104633 432.204067,59.6701914 432.204067,59.6701914" id="Fill-14" fill="#DEF0EE"></path>
                <path d="M119.679124,68.3780957 L0,68.3780957 C0,68.3780957 26.7910653,66.1697789 59.8407789,66.1697789 C92.8870848,66.1697789 119.679124,68.3780957 119.679124,68.3780957" id="Fill-21" fill="#A6D4D1"></path>
                <path d="M119.679124,68.3780957 L0,68.3780957 C0,68.3780957 26.7910653,69.8535214 59.8407789,69.8535214 C92.8870848,69.8535214 119.679124,68.3780957 119.679124,68.3780957" id="Fill-22" fill="#DEF0EE"></path>
                <path d="M22.0617841,87.9946672 C21.7360968,78.0958148 29.7278494,68.8334205 39.9112973,67.300135 C40.6851088,67.1844153 41.444559,67.133788 42.194516,67.1120905 C42.18624,66.9698518 42.1409651,66.8396672 42.1363402,66.6974284 C41.9759307,61.7480022 45.9730241,57.1143942 51.064748,56.3477515 C52.7927406,56.0873822 54.4055985,56.3381082 55.8176403,56.9384039 C59.910882,46.7116791 69.5512744,38.5606757 81.0277348,36.8393457 C96.6096077,34.4960226 109.643184,44.8794512 110.135123,60.0242615 C110.194759,61.7913971 110.063803,63.5488894 109.788259,65.275041 C111.973869,63.069135 114.844201,61.5020979 118.030727,61.0223435 C125.128666,59.9543475 131.063087,64.6819777 131.288975,71.5817623 C131.343499,73.2428216 131.054811,74.8773618 130.497394,76.4178797 C131.514619,75.7115077 132.664018,75.1955908 133.925143,75.0075464 C137.938789,74.402429 141.291566,77.0784461 141.420089,80.9767521 C141.547151,84.8798798 138.401031,88.5274598 134.388603,89.1277556 C131.842741,89.5086661 99.0473941,94.4388057 72.8268901,98.3780957 L26.2930412,98.3780957 C23.7734679,95.7093111 22.1949313,92.131645 22.0617841,87.9946672" id="Fill-23" fill="#A6D4D1"></path>
                <path d="M20.7782646,87.9946672 C19.2330756,78.0958148 26.0790808,68.8334205 36.0770475,67.300135 C36.8355241,67.1844153 37.5866982,67.133788 38.3354382,67.1120905 C38.3069588,66.9698518 38.2485395,66.8396672 38.2261455,66.6974284 C37.4557417,61.7480022 40.878866,57.1143942 45.8778494,56.3477515 C47.5727377,56.0873822 49.2165092,56.3381082 50.7020619,56.9384039 C53.5344215,46.7116791 62.1668385,38.5606757 73.4305556,36.8393457 C88.7247137,34.4960226 103.037185,44.8794512 105.402434,60.0242615 C105.678222,61.7913971 105.76366,63.5488894 105.702076,65.275041 C107.61555,63.069135 110.294559,61.5020979 113.421449,61.0223435 C120.386483,59.9543475 126.905584,64.6819777 127.982446,71.5817623 C128.241438,73.2428216 128.153565,74.8773618 127.785037,76.4178797 C128.715607,75.7115077 129.804396,75.1955908 131.04045,75.0075464 C134.97815,74.402429 138.6627,77.0784461 139.272451,80.9767521 C139.879768,84.8798798 137.183963,88.5274598 133.246506,89.1277556 C130.74811,89.5086661 98.5612973,94.4388057 72.8268901,98.3780957 L26.2930412,98.3780957 C23.4453465,95.7093111 21.4235538,92.131645 20.7782646,87.9946672" id="clouss" fill="#FFFFFE"></path>
            </g>
            <g id="Sun" transform="translate(428.923586, 0.000000)">
                <path d="M195.266323,142.321197 L0,142.321197 C0,142.321197 43.7097652,139.809116 97.6307274,139.809116 C151.554124,139.809116 195.266323,142.321197 195.266323,142.321197" id="Fill-25" fill="#A6D4D1"></path>
                <path d="M195.266323,142.321197 L0,142.321197 C0,142.321197 43.7097652,143.997445 97.6307274,143.997445 C151.554124,143.997445 195.266323,142.321197 195.266323,142.321197" id="Fill-26" fill="#DEF0EE"></path>
                <path d="M190.376146,82.0599439 C196.398196,36.8121109 164.128866,0 118.440149,0 C72.7587343,0 30.6920103,36.8121109 24.6699599,82.0599439 C21.5031501,105.862031 28.9443013,127.318143 43.3446449,142.321197 L155.665378,142.321197 C174.062572,127.318143 187.209336,105.862031 190.376146,82.0599439" id="Fill-27" fill="#90CBC9"></path>
                <path d="M182.35567,82.0599439 C182.35567,36.8121109 145.193729,0 99.5050115,0 C53.8187285,0 16.6519187,36.8121109 16.6519187,82.0599439 C16.6519187,105.862031 26.9458763,127.318143 43.3446449,142.321197 L155.665378,142.321197 C172.066581,127.318143 182.35567,105.862031 182.35567,82.0599439" id="Fill-28" fill="#FFFFFE"></path>
                <path d="M170.260453,82.0599439 C170.260453,43.3548522 138.585052,11.9798776 99.5050115,11.9798776 C60.4274055,11.9798776 28.7495705,43.3548522 28.7495705,82.0599439 C28.7495705,107.696188 42.6557847,130.104576 63.3946163,142.321197 L135.617841,142.321197 C156.356672,130.104576 170.260453,107.696188 170.260453,82.0599439" id="Fill-29" fill="#F8CC24"></path>
                <path d="M36.5972222,49.9964373 C31.5926403,59.6067139 28.7495705,70.5002732 28.7495705,82.0599439 C28.7495705,83.1947198 28.7812142,84.3234686 28.8347652,85.4488423 C66.8876002,59.4514567 83.9508878,69.4571087 99.5050115,82.0599439 C92.3973368,63.4442671 82.6754009,46.3259544 36.5972222,49.9964373" id="Fill-30" fill="#FCEB24"></path>
                <path d="M62.8785796,78.3718619 C53.5826174,81.6443174 43.0817583,89.3570326 31.4563288,101.242888 C34.8957617,113.235784 41.4703608,123.913816 50.2624571,132.356529 C54.3298969,116.312963 59.5267755,104.43892 65.9236827,97.0027269 C75.3462199,85.4760846 87.4243986,83.7713894 99.5050115,82.0599439 C88.1838488,77.5584491 76.8578179,73.0545436 62.8785796,78.3718619" id="Fill-31" fill="#FCEB24"></path>
                <path d="M99.5050115,82.0599439 C80.9958477,88.9898638 63.9715063,98.4624822 66.9922681,142.321197 L96.6741123,142.321197 C78.534937,111.321829 87.935567,96.0680496 99.5050115,82.0599439" id="Fill-33" fill="#FCEB24"></path>
                <path d="M103.226804,45.7844829 C99.9236827,36.5768143 92.1368843,26.1777154 80.136598,14.6604753 C68.0267755,18.0681782 57.2459908,24.5815074 48.7240836,33.2865187 C64.9232532,37.3159736 76.9089347,42.4626054 84.4182417,48.8004264 C96.0558419,58.1329758 97.7767755,70.0952544 99.5050115,82.0599439 C104.049542,70.843816 108.596506,59.63034 103.226804,45.7844829" id="Fill-34" fill="#FCEB24"></path>
                <path d="M170.175258,78.6720098 C132.119989,104.669636 115.061569,94.6601271 99.5050115,82.0599439 C106.612686,100.67321 116.337056,117.791522 162.415235,114.12345 C167.417383,104.510763 170.260453,93.6172037 170.260453,82.0599439 C170.260453,80.9227571 170.231243,79.7949726 170.175258,78.6720098" id="Fill-35" fill="#FCEB24"></path>
                <path d="M136.131443,85.7468204 C145.42984,82.4743649 155.928265,74.7604442 167.556128,62.8757942 C164.116695,50.8816927 157.539662,40.2048667 148.75,31.7609478 C144.68256,47.8045141 139.483247,59.6797619 133.083906,67.11475 C123.661369,78.6438031 111.58319,80.3494627 99.5050115,82.0599439 C110.828608,86.5590277 122.149771,91.0629333 136.131443,85.7468204" id="Fill-36" fill="#FCEB24"></path>
                <path d="M128.03551,59.0158204 C132.273339,50.1905088 134.191438,37.3842 133.928551,20.8370121 C122.933562,14.7638998 110.660653,11.8197988 98.4169531,12.00712 C106.992411,26.2001361 111.79496,38.236427 112.581186,47.976406 C114.148769,62.726323 106.82689,72.3918075 99.5050115,82.0599439 C110.72394,77.3113395 121.947738,72.5673156 128.03551,59.0158204" id="Fill-37" fill="#FCEB24"></path>
                <path d="M150.288373,130.832164 C134.089204,126.801503 122.101088,121.653666 114.594215,115.319461 C102.956615,105.986912 101.230813,94.0222225 99.5050115,82.0599439 C94.9629153,93.2746253 90.4159508,104.489548 95.7832188,118.334199 C98.3877434,125.599465 103.798826,133.608953 111.855813,142.321197 L135.581329,142.321197 C140.989977,139.142764 145.93614,135.277004 150.288373,130.832164" id="Fill-32" fill="#FCEB24"></path>
            </g>
            <g id="life" transform="translate(368.000000, 203.000000)">
                <path d="M89.1145033,20.3264938 C86.3125403,37.2246351 85.8376674,50.3106928 85.4159126,69.1668477 C85.0334646,86.2462869 86.3640648,108.0727 89.8289376,118.458633 C91.0772051,122.198802 85.1115474,124.471064 84.305751,121.906912 C80.3511323,109.321236 78.6216171,87.8652738 79.068869,68.9716508 C79.5017788,49.6157188 80.0239263,36.16344 82.869446,19 L89.1145033,20.3264938" id="Fill-66" fill="#2C1C1C"></path>
                <path d="M33.4316088,49.0065031 C34.0393923,52.0309781 34.3779722,55.3887171 34.3779722,58.924071 C34.3779722,72.2213444 29.5921954,83 23.6886896,83 C17.7857769,83 13,72.2213444 13,58.924071 C13,43.3334933 22.6741358,49.0065031 33.4316088,49.0065031 Z M82.5683911,49.0065031 C81.9606076,52.0309781 81.6220276,55.3887171 81.6220276,58.924071 C81.6220276,72.2213444 86.4078047,83 92.3113102,83 C98.2142229,83 103,72.2213444 103,58.924071 C103,43.3334933 93.3258642,49.0065031 82.5683911,49.0065031 L82.5683911,49.0065031 Z" id="Fill-67" fill="#E4874C"></path>
                <path d="M83.2232505,49.1161346 C80.5886878,65.8492183 77.9325393,86.4244494 77.9617085,105.013986 C77.9902946,123.049623 80.5023469,139.125177 88,147.55098 L82.8317997,152.352621 C73.9818621,142.408066 71.0194373,124.649972 70.9885177,105.013986 C70.9581821,85.931897 73.6563338,64.9945479 76.3317333,48 L83.2232505,49.1161346 Z M32.0902124,60.266759 C35.0112169,76.4703643 38.0092281,96.3779394 38.2431652,114.299224 C38.4852696,132.851238 35.708361,149.372888 26.8129193,158 L22,152.835049 C29.2432977,145.810072 31.4887434,131.141301 31.2699743,114.383202 C31.0430379,96.9955657 28.0969479,77.4751232 25.2261144,61.5508501 L32.0902124,60.266759 L32.0902124,60.266759 Z" id="Fill-68" fill="#2C1C1C"></path>
                <path d="M33.3190752,58 C35.7443792,81.1837332 32.2450978,139.886958 13.7557569,156 L9,150.691051 C24.945173,136.795162 28.2799659,78.8829713 26.1716324,58.7228422 L33.3190752,58" id="Fill-69" fill="#2C1C1C"></path>
                <path d="M109.922581,164.742827 C109.922581,139.480095 86.9000743,119 58.5000318,119 C30.0993953,119 7.07688927,139.480095 7.07688927,164.742827 C7.07688927,166.70794 6.95580566,189.308843 7.01753457,191.479544 C7.19856645,197.816718 8.94596919,204 19.8535848,204 L97.1156143,204 C108.055281,204 109.802684,197.828139 109.982529,191.485555 C110.044258,189.315455 109.922581,166.712749 109.922581,164.742827" id="Fill-70" fill="#E4874C"></path>
                <path d="M79,72 C78.3096968,88.8652792 77.6187978,105.729962 76.9284946,122.59524 C76.6226867,130.056893 68.2991086,138.125673 58.4566255,137.998516 C48.8454353,137.873747 39.349296,129.661692 39.0601794,122.555243 C38.3734529,105.703694 37.6867264,88.8515488 37,72 C51.0003977,72 65.0001986,72 79,72" id="Fill-71" fill="#E4874C"></path>
                <path d="M94.4146344,21 C96.7181275,29.0332697 98,37.9517662 98,47.3433297 C98,54.3021458 97.3208781,61.0019577 96.0513427,67.2724615 C93.7478497,78.6526808 91.1611933,90.927588 85.4996881,98.488973 C71.6011838,117.051532 43.4164407,116.137922 29.7347148,97.8964566 C24.1930547,90.5077409 21.457767,79.1393483 19.1155007,68.0749014 C17.7396321,61.5737776 17,54.5995867 17,47.3433297 C17,37.9517662 18.2830473,29.0332697 20.5859528,21 L94.4146344,21" id="Fill-72" fill="#E5915A"></path>
                <path d="M91.2092268,130 C85.7474061,147.096247 73.1594584,159.063799 58.5000318,159.063799 C43.8406048,159.063799 31.2520639,147.096247 25.7902432,130 C14.3626802,138.32764 7.07688927,150.927702 7.07688927,165.032657 C7.07688927,166.982099 6.95580566,189.417679 7.01753457,191.571193 C7.19856645,197.862274 8.94596919,204 19.8535848,204 L97.1156143,204 C108.055281,204 109.802684,197.873611 109.982529,191.578354 C110.044258,189.424242 109.922581,166.987469 109.922581,165.032657 C109.922581,150.927702 102.636196,138.328237 91.2092268,130 Z" id="Fill-73" fill="#136E75"></path>
                <path d="M90.920257,130 C85.5902225,147.752492 73.306005,160.179422 59.0002896,160.179422 C44.6945744,160.179422 32.4097774,147.752492 27.0797428,130 C26.0157053,130.825323 24.988159,131.69154 24,132.594933 C29.9880349,151.693841 43.4063765,165 59.0002896,165 C74.5942025,165 88.0119651,151.693841 94,132.595553 C93.0124203,131.69154 91.984874,130.825323 90.920257,130 Z" id="Fill-74" fill="#EDF6F5"></path>
                <path d="M57.3920806,116 C42.0496687,114.457524 31.263629,106.257147 23.7275393,93.068861 C20.4119701,87.2661866 21.0800949,78.5870043 21.0150721,78.3945017 C20.8713059,77.965355 22.4539265,86.1099433 26.1214544,91.4528175 C32.7496102,101.110454 38.3654377,105.969619 48.6682799,107.24725 C51.946267,107.6531 52.9508404,106.192776 53.9971713,102.695231 C54.5030375,101.00562 55.5284899,101.10555 57.4481553,100.992745 C59.3672246,101.10555 60.2817199,101.00562 60.7875861,102.695231 C61.8339175,106.192776 62.8384904,107.6531 66.1158814,107.24725 C76.4193199,105.969619 81.8108482,100.765911 88.4396011,91.1082745 C92.1071288,85.764787 94.1371542,76.5859552 93.9927918,77.0144887 C93.9283654,77.207605 94.3727875,87.2661866 91.0572185,93.068861 C83.5211287,106.257147 72.7350892,114.457524 57.3920806,116" id="Fill-75" fill="#413333"></path>
                <path d="M26.9811567,45.3928648 L26.9846896,48.0451071 C27.0459259,82.2787463 27.6765432,129.78196 8.20807555,144.709186 C6.02535081,146.382967 2.27285434,140.349712 4.09817039,138.876045 C17.2563438,128.256323 19.5232686,95.6110429 19.8865654,66.1801131 C17.9670395,86.8676037 16.4702803,110.44329 6.14429078,128.761086 C5.19807052,130.439644 -0.923215167,126.940357 0.11898141,125.028234 C10.2212225,106.492405 11.401201,83.7422585 13.0852023,62.8916908 C13.9560547,52.114268 14.0337778,41.2950309 13.0057127,31.1525933 C31.1128479,29.2721295 10.4897206,45.3928648 26.9811567,45.3928648" id="Fill-76" fill="#413333"></path>
                <path d="M98.9099784,30 C99.9047649,42.6515153 101.367518,58.5599386 103.825629,74.2393697 C106.158606,89.1238542 109.38009,103.734853 113.92891,114.958432 C114.707711,116.879354 108.856128,120.707556 107.681926,117.820239 C102.858269,105.964857 99.4870803,90.7641734 97.073538,75.3665327 C96.6432827,72.6227806 96.2433111,69.8713164 95.8707664,67.129344 C95.9867582,75.3428032 96.3844442,83.616773 97.2215274,91.4778456 C99.044826,108.477838 103.10568,123.444783 110.305738,131.354501 C111.950765,133.160929 107.886483,139.037601 105.367233,136.271898 C96.935262,127.013144 92.401299,110.614701 90.4322962,92.246096 C88.4198683,73.3536568 88.8718361,52.3249473 89.7117764,35.2015608 L92.4864361,35.3427529 C92.3510168,33.7196381 92.2235976,32.137457 92.1030346,30.6021424 L98.9099784,30" id="Fill-77" fill="#413333"></path>
                <path d="M11.568734,67 C-7.12868185,62.3076333 5.629333,30.3485858 15.6312631,18.4893923 C30.4111139,0.966976929 60.4204393,-4.21290071 79.3688906,3.42834144 C97.1387724,10.5939778 104.026922,27.7896001 99.7864289,48.0864821 C69.0811573,39.4720039 37.7924947,54.5009109 11.568734,67 Z" id="Fill-78" fill="#000000"></path>
                <path d="M11.5679867,67 C2.18055038,64.6579558 0.723228962,55.4844568 2.86413017,45.4375731 C36.3159325,21.2467078 58.0956098,11.4347384 97.3655013,20.1064553 C101.179995,27.9781612 102.000291,37.6682354 99.7869061,48.1985578 C69.0812086,39.6351264 37.7921113,54.5749772 11.5679867,67 Z" id="Fill-79" fill="#EDF6F5"></path>
                <path d="M13.4382547,68 C9.92567997,67.0919238 7.52140756,65.1947258 6,62.6295181 C40.594022,36.5310756 62.5334503,25.9436068 102.978223,35.4185441 C103.100974,39.5776437 102.704983,43.9590041 101.785529,48.4914035 C71.0351559,39.6058868 39.7005344,55.1076508 13.4382547,68 Z" id="Fill-80" fill="#17A1AC"></path>
                <path d="M109.935872,105.02561 C110.338315,104.935521 110.758832,105.084339 110.900409,105.452677 C111.584201,107.239631 112.268594,109.026584 112.952988,110.813538 C113.094566,111.182446 112.908406,111.650567 112.501746,111.726401 C110.071426,112.177416 107.979085,112.96997 106.059047,113.937 C105.693354,114.12117 105.235485,113.878272 105.09451,113.509934 C104.410116,111.72298 103.725723,109.936026 103.041329,108.148503 C102.900353,107.780164 103.13712,107.437484 103.492571,107.23621 C105.53792,106.077028 107.729064,105.518818 109.935872,105.02561 Z" id="Fill-82" fill="#EDF6F5"></path>
                <path d="M21.4719691,117.697883 C21.8325634,117.847233 22.0750223,118.210712 21.9788263,118.610179 C21.5141603,120.547534 21.0494943,122.484289 20.5842658,124.421044 C20.4886324,124.820511 20.0909098,125.107216 19.7286279,124.961464 C17.7968326,124.183523 15.8397225,123.444569 13.5298939,123.270027 C13.1439848,123.241237 12.9268407,122.757198 13.0224741,122.357731 C13.4877027,120.420976 13.9523686,118.484221 14.4170346,116.546866 C14.5132306,116.147399 14.8884512,115.962061 15.2726725,116.006446 C17.4975562,116.261361 19.5289228,116.893551 21.4719691,117.697883 Z" id="Fill-83" fill="#17A1AC"></path>
                <path d="M14.4356426,108.821432 C14.8283662,108.977306 15.0872912,109.341803 14.9726952,109.734155 C14.4176788,111.637244 13.8626626,113.540332 13.3076463,115.442828 C13.1930504,115.83518 12.7489134,116.10959 12.3537121,115.957272 C10.243907,115.144711 8.10622704,114.370081 5.56653209,114.145456 C5.14283661,114.107525 4.9148835,113.625085 5.02947951,113.232139 C5.58449575,111.329051 6.13951204,109.426556 6.69452832,107.52406 C6.80912428,107.131115 7.22600594,106.956867 7.64846251,107.009023 C10.0915253,107.311881 12.3140681,107.9822 14.4356426,108.821432 Z" id="Fill-84" fill="#EDF6F5"></path>
            </g>
        </g>
    </g>
</svg>