<?xml version="1.0" encoding="UTF-8"?>
<svg width="512px" height="216px" viewBox="0 0 512 216" version="1.1" xmlns="http://www.w3.org/2000/svg" xmlns:xlink="http://www.w3.org/1999/xlink">
    <title>featured-image</title>
    <g id="Page-1" stroke="none" stroke-width="1" fill="none" fill-rule="evenodd">
        <g id="featured-image" fill="#134448" fill-rule="nonzero">
            <path d="M258.878016,41.1855427 L249.0453,75.8135012 L239,79 L251.824278,39.0621663 L256.099037,38 C258.66447,38.4244841 259.305107,39.4866503 258.878016,41.1855427 Z M231.719826,93.0257201 L233,99 L169.407124,68.4900767 C167.912787,67.636471 167.700545,66.5697039 168.340152,64.8634526 C170.047691,63.7966855 171.968433,63.7966855 173.035405,64.4371298 L231.719826,92.1740348 L231.719826,93.0257201 L231.719826,93.0257201 Z M232.110696,89 L204.239946,42.0162492 C203.591404,40.5285133 204.239946,39.4646147 206.400454,39.0398207 C208.560962,38.8274237 210.072929,39.4646147 211.154155,40.9533073 L236,81.9842013 L232.110696,89 L232.110696,89 Z M251,76.7899027 L297.188502,57.4255798 C299.113184,56.5742429 301.252467,57 303.388863,58.7021063 C305.100867,60.6173749 305.100867,61.8939014 303.388863,62.9578331 L265.968247,79.7681454 L267.678326,80.4068874 L331.187036,93.8128098 C334.395479,94.6641467 336.534763,96.3668205 337.175682,98.9198735 C337.601999,101.686479 336.106521,102.750411 332.470798,102.111669 L279.439091,91.0462044 L339.741282,130.412635 C343.590644,132.965688 345.087084,135.732293 343.162403,138.925046 C341.880565,141.691651 338.886723,141.691651 334.610081,138.925046 L281.149171,102.750411 L280.936493,97.8559418 C279.011812,89.5570831 274.734208,84.0248298 267.678326,80.4068874 L265.112726,79.7681454 L265.968247,79.7681454 C262.759803,78.279024 258.697763,77.2141347 254.206519,76.7889451 L251,76.7889451 L251,76.7899027 L251,76.7899027 Z M175.724742,132.41536 L236.436658,104 C239.665933,108.736216 244.186724,112.395183 250,114.547744 L184.767293,147.484258 C178.954017,150.282975 174.648317,149.205725 171.419042,144.254447 C168.620918,138.873044 169.912435,134.998046 175.724742,132.41536 L175.724742,132.41536 Z M318.081668,177.354452 C313.747999,179.084896 310.278528,177.354452 307.02852,171.94499 L273,113.737032 C276.90157,111.573247 279.936016,108.32757 281.020653,104 L320.032453,166.750737 C323.284412,172.1602 322.417288,175.406851 318.081668,177.354452 Z M270,115 L254.655035,182.10175 C253.163603,188.357886 249.327123,190.516413 243.360436,187.927734 C237.179865,185.337113 234.835775,181.455065 236.540132,175.412548 L254.016261,115 L259.982948,116.078778 L270,115 L270,115 Z" id="flashIconBlack"></path>
        </g>
    </g>
</svg>