<?xml version="1.0" encoding="UTF-8"?>
<svg width="512px" height="216px" viewBox="0 0 512 216" version="1.1" xmlns="http://www.w3.org/2000/svg" xmlns:xlink="http://www.w3.org/1999/xlink">
    <title>featured-image</title>
    <g id="Page-1" stroke="none" stroke-width="1" fill="none" fill-rule="evenodd">
        <g id="featured-image" fill-rule="nonzero">
            <g id="Npm-logo" transform="translate(117.000000, 54.000000)">
                <path d="M0,0 L278,0 L278,92.5714286 L139,92.5714286 L139,108 L77.2222222,108 L77.2222222,92.5714286 L0,92.5714286 L0,0 Z M15.4444444,77.1428571 L46.3333333,77.1428571 L46.3333333,30.8571429 L61.7777778,30.8571429 L61.7777778,77.1428571 L77.2222222,77.1428571 L77.2222222,15.4285714 L15.4444444,15.4285714 L15.4444444,77.1428571 Z M92.6666667,15.4285714 L92.6666667,92.5714286 L123.555556,92.5714286 L123.555556,77.1428571 L154.444444,77.1428571 L154.444444,15.4285714 L92.6666667,15.4285714 Z M123.555556,30.8571429 L139,30.8571429 L139,61.7142857 L123.555556,61.7142857 L123.555556,30.8571429 Z M169.888889,15.4285714 L169.888889,77.1428571 L200.777778,77.1428571 L200.777778,30.8571429 L216.222222,30.8571429 L216.222222,77.1428571 L231.666667,77.1428571 L231.666667,30.8571429 L247.111111,30.8571429 L247.111111,77.1428571 L262.555556,77.1428571 L262.555556,15.4285714 L169.888889,15.4285714 Z" id="Shape" fill="#CB3837"></path>
                <polygon id="Path" fill="#FFFFFF" points="16 77 47 77 47 30.5 62.5 30.5 62.5 77 78 77 78 15 16 15"></polygon>
                <path d="M93,16 L93,93 L124,93 L124,77.6 L155,77.6 L155,16 L93,16 Z M139.5,62.2 L124,62.2 L124,31.4 L139.5,31.4 L139.5,62.2 Z" id="Shape" fill="#FFFFFF"></path>
                <polygon id="Path" fill="#FFFFFF" points="170 15 170 77 201 77 201 30.5 216.5 30.5 216.5 77 232 77 232 30.5 247.5 30.5 247.5 77 263 77 263 15"></polygon>
            </g>
        </g>
    </g>
</svg>