<?xml version="1.0" encoding="UTF-8"?>
<svg width="850px" height="420px" viewBox="0 0 850 420" version="1.1" xmlns="http://www.w3.org/2000/svg" xmlns:xlink="http://www.w3.org/1999/xlink">
    <title>home</title>
    <defs>
        <radialGradient cx="49.999%" cy="49.9995%" fx="49.999%" fy="49.9995%" r="177.797292%" gradientTransform="translate(0.499990,0.499995),scale(0.390270,1.000000),rotate(180.000000),translate(-0.499990,-0.499995)" id="radialGradient-1">
            <stop stop-color="#DAEFF3" offset="0%"></stop>
            <stop stop-color="#6EC1D4" offset="100%"></stop>
        </radialGradient>
    </defs>
    <g id="Page-1" stroke="none" stroke-width="1" fill="none" fill-rule="evenodd">
        <g id="home" fill-rule="nonzero">
            <polygon id="BluSky" fill="url(#radialGradient-1)" points="0 420 850 417.786073 831.617142 88.270313 38.8940959 102.19057"></polygon>
            <g id="Cloud1" transform="translate(103.827797, 114.162084)">
                <path d="M130.331041,58.0580195 L9.21821134,58.0580195 C9.21821134,58.0580195 36.3296088,55.9630115 69.774626,55.9630115 C103.217209,55.9630115 130.331041,58.0580195 130.331041,58.0580195" id="Cloud1Fill-9" fill="#A6D4D1"></path>
                <path d="M9.21821134,58.0580195 C9.21821134,58.0580195 36.3296088,59.4562987 69.774626,59.4562987 C103.214775,59.4562987 130.331041,58.0580195 130.331041,58.0580195 L9.21821134,58.0580195 Z" id="Cloud1Fill-10" fill="#DEF0EE"></path>
                <path d="M16.0167509,51.4788748 C6.70374971,49.9142486 1.88416208,40.945975 5.27491237,31.4545522 C8.6753992,21.9583078 19.1032343,15.5262234 28.552547,17.0932604 C29.2681827,17.2138018 29.9448723,17.3897921 30.6093912,17.5923015 C30.6556398,17.4524736 30.6653763,17.3174673 30.7164931,17.182461 C32.4642022,12.4307225 37.7219341,9.21468037 42.4538929,10.0006097 C44.057988,10.2633898 45.3651186,10.981816 46.363114,11.9678439 C53.9016306,3.47450315 65.5075871,-1.40741994 76.1983087,0.359715678 C90.6838471,2.75607694 97.7477074,16.4760889 92.0226214,31.0037277 C91.3581025,32.6985386 90.537799,34.3258462 89.6006569,35.8856508 C92.3658345,34.4415659 95.4523179,33.8051078 98.3732801,34.2945055 C104.869987,35.3817881 107.98568,41.6330605 105.342209,48.2507785 C104.7069,49.8443346 103.791665,51.3101169 102.689002,52.6071415 C103.840348,52.238285 105.023337,52.0888138 106.172249,52.2816799 C109.112684,52.7807209 110.804408,55.1819039 110.556127,58.0580195 L55.006728,58.0580195 C37.2424095,55.0565409 20.1523465,52.1780144 16.0167509,51.4788748" id="Cloud1Fill-11" fill="#A6D4D1"></path>
                <path d="M14.7315275,51.4788748 C5.14590321,49.9142486 -1.34106701,40.945975 0.236252574,31.4545522 C1.82087457,21.9583078 10.868555,15.5262234 20.4566134,17.0932604 C21.186854,17.2138018 21.8878849,17.3897921 22.5767451,17.5923015 C22.5962182,17.4524736 22.5816134,17.3174673 22.6035206,17.182461 C23.3946146,12.4307225 27.9245401,9.21468037 32.7173522,10.0006097 C34.3433545,10.2633898 35.7648895,10.981816 36.9430109,11.9678439 C42.61698,3.47450315 52.9620544,-1.40741994 63.7696146,0.359715678 C78.4377131,2.75607694 88.3689846,16.4760889 85.9470201,31.0037277 C85.6646604,32.6985386 85.2143454,34.3258462 84.6350212,35.8856508 C87.0472492,34.4415659 89.9682114,33.8051078 92.9670659,34.2945055 C99.6487669,35.3817881 104.173824,41.6330605 103.068727,48.2507785 C102.80584,49.8443346 102.22895,51.3101169 101.430554,52.6071415 C102.489403,52.238285 103.640749,52.0888138 104.828607,52.2816799 C107.881012,52.7807209 110.130153,55.1819039 110.556127,58.0580195 L55.006728,58.0580195 C36.6290075,55.0565409 18.9961323,52.1780144 14.7315275,51.4788748" id="Cloud1Fill-12" fill="#FFFFFE"></path>
            </g>
            <g id="Sun" transform="translate(458.923586, 0.000000)">
                <path d="M195.266323,142.321197 L0,142.321197 C0,142.321197 43.7097652,139.809116 97.6307274,139.809116 C151.554124,139.809116 195.266323,142.321197 195.266323,142.321197" id="Fill-25" fill="#A6D4D1"></path>
                <path d="M195.266323,142.321197 L0,142.321197 C0,142.321197 43.7097652,143.997445 97.6307274,143.997445 C151.554124,143.997445 195.266323,142.321197 195.266323,142.321197" id="Fill-26" fill="#DEF0EE"></path>
                <path d="M190.376146,82.0599439 C196.398196,36.8121109 164.128866,0 118.440149,0 C72.7587343,0 30.6920103,36.8121109 24.6699599,82.0599439 C21.5031501,105.862031 28.9443013,127.318143 43.3446449,142.321197 L155.665378,142.321197 C174.062572,127.318143 187.209336,105.862031 190.376146,82.0599439" id="Fill-27" fill="#90CBC9"></path>
                <path d="M182.35567,82.0599439 C182.35567,36.8121109 145.193729,0 99.5050115,0 C53.8187285,0 16.6519187,36.8121109 16.6519187,82.0599439 C16.6519187,105.862031 26.9458763,127.318143 43.3446449,142.321197 L155.665378,142.321197 C172.066581,127.318143 182.35567,105.862031 182.35567,82.0599439" id="Fill-28" fill="#FFFFFE"></path>
                <path d="M170.260453,82.0599439 C170.260453,43.3548522 138.585052,11.9798776 99.5050115,11.9798776 C60.4274055,11.9798776 28.7495705,43.3548522 28.7495705,82.0599439 C28.7495705,107.696188 42.6557847,130.104576 63.3946163,142.321197 L135.617841,142.321197 C156.356672,130.104576 170.260453,107.696188 170.260453,82.0599439" id="Fill-29" fill="#F8CC24"></path>
                <path d="M36.5972222,49.9964373 C31.5926403,59.6067139 28.7495705,70.5002732 28.7495705,82.0599439 C28.7495705,83.1947198 28.7812142,84.3234686 28.8347652,85.4488423 C66.8876002,59.4514567 83.9508878,69.4571087 99.5050115,82.0599439 C92.3973368,63.4442671 82.6754009,46.3259544 36.5972222,49.9964373" id="Fill-30" fill="#FCEB24"></path>
                <path d="M62.8785796,78.3718619 C53.5826174,81.6443174 43.0817583,89.3570326 31.4563288,101.242888 C34.8957617,113.235784 41.4703608,123.913816 50.2624571,132.356529 C54.3298969,116.312963 59.5267755,104.43892 65.9236827,97.0027269 C75.3462199,85.4760846 87.4243986,83.7713894 99.5050115,82.0599439 C88.1838488,77.5584491 76.8578179,73.0545436 62.8785796,78.3718619" id="Fill-31" fill="#FCEB24"></path>
                <path d="M99.5050115,82.0599439 C80.9958477,88.9898638 63.9715063,98.4624822 66.9922681,142.321197 L96.6741123,142.321197 C78.534937,111.321829 87.935567,96.0680496 99.5050115,82.0599439" id="Fill-33" fill="#FCEB24"></path>
                <path d="M103.226804,45.7844829 C99.9236827,36.5768143 92.1368843,26.1777154 80.136598,14.6604753 C68.0267755,18.0681782 57.2459908,24.5815074 48.7240836,33.2865187 C64.9232532,37.3159736 76.9089347,42.4626054 84.4182417,48.8004264 C96.0558419,58.1329758 97.7767755,70.0952544 99.5050115,82.0599439 C104.049542,70.843816 108.596506,59.63034 103.226804,45.7844829" id="Fill-34" fill="#FCEB24"></path>
                <path d="M170.175258,78.6720098 C132.119989,104.669636 115.061569,94.6601271 99.5050115,82.0599439 C106.612686,100.67321 116.337056,117.791522 162.415235,114.12345 C167.417383,104.510763 170.260453,93.6172037 170.260453,82.0599439 C170.260453,80.9227571 170.231243,79.7949726 170.175258,78.6720098" id="Fill-35" fill="#FCEB24"></path>
                <path d="M136.131443,85.7468204 C145.42984,82.4743649 155.928265,74.7604442 167.556128,62.8757942 C164.116695,50.8816927 157.539662,40.2048667 148.75,31.7609478 C144.68256,47.8045141 139.483247,59.6797619 133.083906,67.11475 C123.661369,78.6438031 111.58319,80.3494627 99.5050115,82.0599439 C110.828608,86.5590277 122.149771,91.0629333 136.131443,85.7468204" id="Fill-36" fill="#FCEB24"></path>
                <path d="M128.03551,59.0158204 C132.273339,50.1905088 134.191438,37.3842 133.928551,20.8370121 C122.933562,14.7638998 110.660653,11.8197988 98.4169531,12.00712 C106.992411,26.2001361 111.79496,38.236427 112.581186,47.976406 C114.148769,62.726323 106.82689,72.3918075 99.5050115,82.0599439 C110.72394,77.3113395 121.947738,72.5673156 128.03551,59.0158204" id="Fill-37" fill="#FCEB24"></path>
                <path d="M150.288373,130.832164 C134.089204,126.801503 122.101088,121.653666 114.594215,115.319461 C102.956615,105.986912 101.230813,94.0222225 99.5050115,82.0599439 C94.9629153,93.2746253 90.4159508,104.489548 95.7832188,118.334199 C98.3877434,125.599465 103.798826,133.608953 111.855813,142.321197 L135.581329,142.321197 C140.989977,139.142764 145.93614,135.277004 150.288373,130.832164" id="Fill-32" fill="#FCEB24"></path>
            </g>
            <g id="npm" transform="translate(286.000000, 200.000000)">
                <path d="M0,0 L278,0 L278,92.5714286 L139,92.5714286 L139,108 L77.2222222,108 L77.2222222,92.5714286 L0,92.5714286 L0,0 Z M15.4444444,77.1428571 L46.3333333,77.1428571 L46.3333333,30.8571429 L61.7777778,30.8571429 L61.7777778,77.1428571 L77.2222222,77.1428571 L77.2222222,15.4285714 L15.4444444,15.4285714 L15.4444444,77.1428571 Z M92.6666667,15.4285714 L92.6666667,92.5714286 L123.555556,92.5714286 L123.555556,77.1428571 L154.444444,77.1428571 L154.444444,15.4285714 L92.6666667,15.4285714 Z M123.555556,30.8571429 L139,30.8571429 L139,61.7142857 L123.555556,61.7142857 L123.555556,30.8571429 Z M169.888889,15.4285714 L169.888889,77.1428571 L200.777778,77.1428571 L200.777778,30.8571429 L216.222222,30.8571429 L216.222222,77.1428571 L231.666667,77.1428571 L231.666667,30.8571429 L247.111111,30.8571429 L247.111111,77.1428571 L262.555556,77.1428571 L262.555556,15.4285714 L169.888889,15.4285714 Z" id="Shape" fill="#CB3837"></path>
                <polygon id="Path" fill="#FFFFFF" points="16 77 47 77 47 30.5 62.5 30.5 62.5 77 78 77 78 15 16 15"></polygon>
                <path d="M93,16 L93,93 L124,93 L124,77.6 L155,77.6 L155,16 L93,16 Z M139.5,62.2 L124,62.2 L124,31.4 L139.5,31.4 L139.5,62.2 Z" id="Shape" fill="#FFFFFF"></path>
                <polygon id="Path" fill="#FFFFFF" points="170 15 170 77 201 77 201 30.5 216.5 30.5 216.5 77 232 77 232 30.5 247.5 30.5 247.5 77 263 77 263 15"></polygon>
            </g>
        </g>
    </g>
</svg>