<?xml version="1.0" encoding="UTF-8"?>
<svg width="850px" height="440px" viewBox="0 0 850 440" version="1.1" xmlns="http://www.w3.org/2000/svg" xmlns:xlink="http://www.w3.org/1999/xlink">
    <title>featured</title>
    <defs>
        <radialGradient cx="49.999%" cy="49.9995%" fx="49.999%" fy="49.9995%" r="177.797392%" gradientTransform="translate(0.499990,0.499995),scale(0.390270,1.000000),rotate(180.000000),translate(-0.499990,-0.499995)" id="radialGradient-1">
            <stop stop-color="#DAEFF3" offset="0%"></stop>
            <stop stop-color="#6EC1D4" offset="100%"></stop>
        </radialGradient>
    </defs>
    <g id="Page-1" stroke="none" stroke-width="1" fill="none" fill-rule="evenodd">
        <g id="featured" fill-rule="nonzero">
            <polygon id="BluSky" fill="url(#radialGradient-1)" points="0 440 850 437.786073 831.617142 108.270313 12.6672608 108.270313"></polygon>
            <g id="Group" transform="translate(22.500447, 116.778287)">
                <path d="M821.658391,75.4418166 L700.545561,75.4418166 C700.545561,75.4418166 727.656959,73.3468086 761.101976,73.3468086 C794.544559,73.3468086 821.658391,75.4418166 821.658391,75.4418166" id="Fill-9" fill="#A6D4D1"></path>
                <path d="M700.545561,75.4418166 C700.545561,75.4418166 727.656959,76.8400958 761.101976,76.8400958 C794.542125,76.8400958 821.658391,75.4418166 821.658391,75.4418166 L700.545561,75.4418166 Z" id="Fill-10" fill="#DEF0EE"></path>
                <path d="M707.344101,68.8626718 C698.0311,67.2980456 693.211512,58.3297721 696.602262,48.8383493 C700.002749,39.3421048 710.430584,32.9100204 719.879897,34.4770575 C720.595533,34.5975988 721.272222,34.7735891 721.936741,34.9760985 C721.98299,34.8362706 721.992726,34.7012643 722.043843,34.5662581 C723.791552,29.8145196 729.049284,26.5984774 733.781243,27.3844068 C735.385338,27.6471868 736.692469,28.365613 737.690464,29.3516409 C745.228981,20.8583002 756.834937,15.9763771 767.525659,17.7435127 C782.011197,20.139874 789.075057,33.859886 783.349972,48.3875248 C782.685453,50.0823356 781.865149,51.7096433 780.928007,53.2694478 C783.693185,51.8253629 786.779668,51.1889048 789.70063,51.6783025 C796.197337,52.7655852 799.31303,59.0168575 796.669559,65.6345755 C796.03425,67.2281316 795.119015,68.693914 794.016352,69.9909385 C795.167698,69.6220821 796.350687,69.4726108 797.499599,69.6654769 C800.440035,70.164518 802.131758,72.5657009 801.883477,75.4418166 L746.334078,75.4418166 C728.56976,72.4403379 711.479697,69.5618114 707.344101,68.8626718" id="Fill-11" fill="#A6D4D1"></path>
                <path d="M706.058878,68.8626718 C696.473253,67.2980456 689.986283,58.3297721 691.563603,48.8383493 C693.148225,39.3421048 702.195905,32.9100204 711.783964,34.4770575 C712.514204,34.5975988 713.215235,34.7735891 713.904095,34.9760985 C713.923568,34.8362706 713.908964,34.7012643 713.930871,34.5662581 C714.721965,29.8145196 719.25189,26.5984774 724.044702,27.3844068 C725.670705,27.6471868 727.09224,28.365613 728.270361,29.3516409 C733.94433,20.8583002 744.289405,15.9763771 755.096965,17.7435127 C769.765063,20.139874 779.696335,33.859886 777.27437,48.3875248 C776.99201,50.0823356 776.541695,51.7096433 775.962371,53.2694478 C778.374599,51.8253629 781.295561,51.1889048 784.294416,51.6783025 C790.976117,52.7655852 795.501174,59.0168575 794.396077,65.6345755 C794.13319,67.2281316 793.5563,68.693914 792.757904,69.9909385 C793.816753,69.6220821 794.968099,69.4726108 796.155957,69.6654769 C799.208362,70.164518 801.457503,72.5657009 801.883477,75.4418166 L746.334078,75.4418166 C727.956358,72.4403379 710.323482,69.5618114 706.058878,68.8626718" id="Fill-12" fill="#FFFFFE"></path>
                <path d="M432.204067,59.6701914 L307.734565,59.6701914 C307.734565,59.6701914 335.595676,57.5173236 369.968099,57.5173236 C404.338087,57.5173236 432.204067,59.6701914 432.204067,59.6701914" id="Fill-13" fill="#A6D4D1"></path>
                <path d="M432.204067,59.6701914 L307.734565,59.6701914 C307.734565,59.6701914 335.595676,61.104633 369.968099,61.104633 C404.335653,61.104633 432.204067,59.6701914 432.204067,59.6701914" id="Fill-14" fill="#DEF0EE"></path>
                <path d="M119.679124,68.3780957 L0,68.3780957 C0,68.3780957 26.7910653,66.1697789 59.8407789,66.1697789 C92.8870848,66.1697789 119.679124,68.3780957 119.679124,68.3780957" id="Fill-21" fill="#A6D4D1"></path>
                <path d="M119.679124,68.3780957 L0,68.3780957 C0,68.3780957 26.7910653,69.8535214 59.8407789,69.8535214 C92.8870848,69.8535214 119.679124,68.3780957 119.679124,68.3780957" id="Fill-22" fill="#DEF0EE"></path>
                <path d="M22.0617841,87.9946672 C21.7360968,78.0958148 29.7278494,68.8334205 39.9112973,67.300135 C40.6851088,67.1844153 41.444559,67.133788 42.194516,67.1120905 C42.18624,66.9698518 42.1409651,66.8396672 42.1363402,66.6974284 C41.9759307,61.7480022 45.9730241,57.1143942 51.064748,56.3477515 C52.7927406,56.0873822 54.4055985,56.3381082 55.8176403,56.9384039 C59.910882,46.7116791 69.5512744,38.5606757 81.0277348,36.8393457 C96.6096077,34.4960226 109.643184,44.8794512 110.135123,60.0242615 C110.194759,61.7913971 110.063803,63.5488894 109.788259,65.275041 C111.973869,63.069135 114.844201,61.5020979 118.030727,61.0223435 C125.128666,59.9543475 131.063087,64.6819777 131.288975,71.5817623 C131.343499,73.2428216 131.054811,74.8773618 130.497394,76.4178797 C131.514619,75.7115077 132.664018,75.1955908 133.925143,75.0075464 C137.938789,74.402429 141.291566,77.0784461 141.420089,80.9767521 C141.547151,84.8798798 138.401031,88.5274598 134.388603,89.1277556 C131.842741,89.5086661 99.0473941,94.4388057 72.8268901,98.3780957 L26.2930412,98.3780957 C23.7734679,95.7093111 22.1949313,92.131645 22.0617841,87.9946672" id="Fill-23" fill="#A6D4D1"></path>
                <path d="M20.7782646,87.9946672 C19.2330756,78.0958148 26.0790808,68.8334205 36.0770475,67.300135 C36.8355241,67.1844153 37.5866982,67.133788 38.3354382,67.1120905 C38.3069588,66.9698518 38.2485395,66.8396672 38.2261455,66.6974284 C37.4557417,61.7480022 40.878866,57.1143942 45.8778494,56.3477515 C47.5727377,56.0873822 49.2165092,56.3381082 50.7020619,56.9384039 C53.5344215,46.7116791 62.1668385,38.5606757 73.4305556,36.8393457 C88.7247137,34.4960226 103.037185,44.8794512 105.402434,60.0242615 C105.678222,61.7913971 105.76366,63.5488894 105.702076,65.275041 C107.61555,63.069135 110.294559,61.5020979 113.421449,61.0223435 C120.386483,59.9543475 126.905584,64.6819777 127.982446,71.5817623 C128.241438,73.2428216 128.153565,74.8773618 127.785037,76.4178797 C128.715607,75.7115077 129.804396,75.1955908 131.04045,75.0075464 C134.97815,74.402429 138.6627,77.0784461 139.272451,80.9767521 C139.879768,84.8798798 137.183963,88.5274598 133.246506,89.1277556 C130.74811,89.5086661 98.5612973,94.4388057 72.8268901,98.3780957 L26.2930412,98.3780957 C23.4453465,95.7093111 21.4235538,92.131645 20.7782646,87.9946672" id="clouss" fill="#FFFFFE"></path>
            </g>
            <g id="Sun" transform="translate(428.923586, 0.000000)">
                <path d="M195.266323,142.321197 L0,142.321197 C0,142.321197 43.7097652,139.809116 97.6307274,139.809116 C151.554124,139.809116 195.266323,142.321197 195.266323,142.321197" id="Fill-25" fill="#A6D4D1"></path>
                <path d="M195.266323,142.321197 L0,142.321197 C0,142.321197 43.7097652,143.997445 97.6307274,143.997445 C151.554124,143.997445 195.266323,142.321197 195.266323,142.321197" id="Fill-26" fill="#DEF0EE"></path>
                <path d="M190.376146,82.0599439 C196.398196,36.8121109 164.128866,0 118.440149,0 C72.7587343,0 30.6920103,36.8121109 24.6699599,82.0599439 C21.5031501,105.862031 28.9443013,127.318143 43.3446449,142.321197 L155.665378,142.321197 C174.062572,127.318143 187.209336,105.862031 190.376146,82.0599439" id="Fill-27" fill="#90CBC9"></path>
                <path d="M182.35567,82.0599439 C182.35567,36.8121109 145.193729,0 99.5050115,0 C53.8187285,0 16.6519187,36.8121109 16.6519187,82.0599439 C16.6519187,105.862031 26.9458763,127.318143 43.3446449,142.321197 L155.665378,142.321197 C172.066581,127.318143 182.35567,105.862031 182.35567,82.0599439" id="Fill-28" fill="#FFFFFE"></path>
                <path d="M170.260453,82.0599439 C170.260453,43.3548522 138.585052,11.9798776 99.5050115,11.9798776 C60.4274055,11.9798776 28.7495705,43.3548522 28.7495705,82.0599439 C28.7495705,107.696188 42.6557847,130.104576 63.3946163,142.321197 L135.617841,142.321197 C156.356672,130.104576 170.260453,107.696188 170.260453,82.0599439" id="Fill-29" fill="#F8CC24"></path>
                <path d="M36.5972222,49.9964373 C31.5926403,59.6067139 28.7495705,70.5002732 28.7495705,82.0599439 C28.7495705,83.1947198 28.7812142,84.3234686 28.8347652,85.4488423 C66.8876002,59.4514567 83.9508878,69.4571087 99.5050115,82.0599439 C92.3973368,63.4442671 82.6754009,46.3259544 36.5972222,49.9964373" id="Fill-30" fill="#FCEB24"></path>
                <path d="M62.8785796,78.3718619 C53.5826174,81.6443174 43.0817583,89.3570326 31.4563288,101.242888 C34.8957617,113.235784 41.4703608,123.913816 50.2624571,132.356529 C54.3298969,116.312963 59.5267755,104.43892 65.9236827,97.0027269 C75.3462199,85.4760846 87.4243986,83.7713894 99.5050115,82.0599439 C88.1838488,77.5584491 76.8578179,73.0545436 62.8785796,78.3718619" id="Fill-31" fill="#FCEB24"></path>
                <path d="M99.5050115,82.0599439 C80.9958477,88.9898638 63.9715063,98.4624822 66.9922681,142.321197 L96.6741123,142.321197 C78.534937,111.321829 87.935567,96.0680496 99.5050115,82.0599439" id="Fill-33" fill="#FCEB24"></path>
                <path d="M103.226804,45.7844829 C99.9236827,36.5768143 92.1368843,26.1777154 80.136598,14.6604753 C68.0267755,18.0681782 57.2459908,24.5815074 48.7240836,33.2865187 C64.9232532,37.3159736 76.9089347,42.4626054 84.4182417,48.8004264 C96.0558419,58.1329758 97.7767755,70.0952544 99.5050115,82.0599439 C104.049542,70.843816 108.596506,59.63034 103.226804,45.7844829" id="Fill-34" fill="#FCEB24"></path>
                <path d="M170.175258,78.6720098 C132.119989,104.669636 115.061569,94.6601271 99.5050115,82.0599439 C106.612686,100.67321 116.337056,117.791522 162.415235,114.12345 C167.417383,104.510763 170.260453,93.6172037 170.260453,82.0599439 C170.260453,80.9227571 170.231243,79.7949726 170.175258,78.6720098" id="Fill-35" fill="#FCEB24"></path>
                <path d="M136.131443,85.7468204 C145.42984,82.4743649 155.928265,74.7604442 167.556128,62.8757942 C164.116695,50.8816927 157.539662,40.2048667 148.75,31.7609478 C144.68256,47.8045141 139.483247,59.6797619 133.083906,67.11475 C123.661369,78.6438031 111.58319,80.3494627 99.5050115,82.0599439 C110.828608,86.5590277 122.149771,91.0629333 136.131443,85.7468204" id="Fill-36" fill="#FCEB24"></path>
                <path d="M128.03551,59.0158204 C132.273339,50.1905088 134.191438,37.3842 133.928551,20.8370121 C122.933562,14.7638998 110.660653,11.8197988 98.4169531,12.00712 C106.992411,26.2001361 111.79496,38.236427 112.581186,47.976406 C114.148769,62.726323 106.82689,72.3918075 99.5050115,82.0599439 C110.72394,77.3113395 121.947738,72.5673156 128.03551,59.0158204" id="Fill-37" fill="#FCEB24"></path>
                <path d="M150.288373,130.832164 C134.089204,126.801503 122.101088,121.653666 114.594215,115.319461 C102.956615,105.986912 101.230813,94.0222225 99.5050115,82.0599439 C94.9629153,93.2746253 90.4159508,104.489548 95.7832188,118.334199 C98.3877434,125.599465 103.798826,133.608953 111.855813,142.321197 L135.581329,142.321197 C140.989977,139.142764 145.93614,135.277004 150.288373,130.832164" id="Fill-32" fill="#FCEB24"></path>
            </g>
            <g id="work" transform="translate(374.000000, 203.000000)">
                <path d="M18.13282,41.3309113 C14.313693,40.2202038 10.4945659,39.1101019 6.67605812,38 C1.31491287,57.8152883 -9.30209936,134.967672 27.1124443,133.990806 C33.8211524,131.265516 39.2912918,133.082376 46,130.357085 C40.6747732,105.376462 19.3212268,67.0576585 18.13282,41.3309113" id="Fill-162" fill="#2A2A2A"></path>
                <path d="M84.2570227,41.6322546 C88.0104013,40.5221805 92.0680909,39.1100742 95.8208607,38 C100.86452,64.7501235 100.104959,84.5486653 92.1167812,109.977474 C88.9768947,119.971167 78.6059575,127.32102 73.9104304,132.12085 C67.3172166,129.397114 58.5938225,136.055137 52,133.3314 C57.2341584,108.365021 83.0890749,67.3443315 84.2570227,41.6322546" id="Fill-163" fill="#2A2A2A"></path>
                <path d="M70.0498161,74 C71.2072325,80.5272551 72.4103516,87.9047398 70.6647304,95.4032551 C69.1589026,101.869694 68.1528406,113.288176 68.056686,120.284502 C88.3334306,126.42518 102.922809,143.532731 102.922809,163.6769 C102.922809,165.649528 103.043893,188.290795 102.982758,190.463936 C102.802913,196.817172 101.054918,203 90.1152575,203 L12.8538707,203 C1.94566849,203 0.198266842,196.805731 0.0178286271,190.457313 C-0.0444937775,188.284171 0.0765897608,165.644711 0.0765897608,163.6769 C0.0765897608,143.577289 14.6018659,126.502255 34.8085716,120.326652 C34.6851138,113.333336 34.0565477,101.686039 32.3346687,95.4032551 C30.2922742,87.9541155 31.7915734,80.5272551 32.9489895,74 L70.0498161,74" id="Fill-164" fill="#F5A479"></path>
                <path d="M75.9014908,121 C74.7424415,121 73.8029822,121.926472 73.8029822,123.0695 C73.8029822,124.211931 74.7424415,125.139 75.9014908,125.139 C77.0605406,125.139 78,124.211931 78,123.0695 C78,121.926472 77.0605406,121 75.9014908,121 Z M41.2485678,146.713941 C42.4076174,146.713941 43.3476817,147.64101 43.3476817,148.783441 C43.3476817,149.926469 42.4076174,150.852941 41.2485678,150.852941 C40.090123,150.852941 39.1506636,149.926469 39.1506636,148.783441 C39.1506636,147.64101 40.090123,146.713941 41.2485678,146.713941 Z M36.942662,140.614016 C38.1011067,140.614016 39.0405661,141.54049 39.0405661,142.683516 C39.0405661,143.826544 38.1011067,144.753016 36.942662,144.753016 C35.7836124,144.753016 34.844153,143.826544 34.844153,142.683516 C34.844153,141.54049 35.7836124,140.614016 36.942662,140.614016 Z M33.3088356,133.746307 C34.4672803,133.746307 35.4073447,134.672779 35.4073447,135.815807 C35.4073447,136.958834 34.4672803,137.885307 33.3088356,137.885307 C32.149786,137.885307 31.2103266,136.958834 31.2103266,135.815807 C31.2103266,134.672779 32.149786,133.746307 33.3088356,133.746307 Z M30.690085,127.279492 C31.8491347,127.279492 32.7885941,128.205965 32.7885941,129.348991 C32.7885941,130.49202 31.8491347,131.418492 30.690085,131.418492 C29.5310354,131.418492 28.591576,130.49202 28.591576,129.348991 C28.591576,128.205965 29.5310354,127.279492 30.690085,127.279492 Z M29.098509,121 C30.2569538,121 31.1970181,121.926472 31.1970181,123.0695 C31.1970181,124.211931 30.2569538,125.139 29.098509,125.139 C27.9394594,125.139 27,124.211931 27,123.0695 C27,121.926472 27.9394594,121 29.098509,121 Z M63.7514321,146.713941 C62.5923828,146.713941 61.6529234,147.64101 61.6529234,148.783441 C61.6529234,149.926469 62.5923828,150.852941 63.7514321,150.852941 C64.9104819,150.852941 65.8499413,149.926469 65.8499413,148.783441 C65.8499413,147.64101 64.9104819,146.713941 63.7514321,146.713941 Z M48.4514321,151.861 C47.2923828,151.861 46.3529234,152.788069 46.3529234,153.9305 C46.3529234,155.073528 47.2923828,156 48.4514321,156 C49.6104819,156 50.5499413,155.073528 50.5499413,153.9305 C50.5499413,152.788069 49.6104819,151.861 48.4514321,151.861 Z M56.6114321,150.831588 C55.4523828,150.831588 54.5129234,151.758657 54.5129234,152.901088 C54.5129234,154.044116 55.4523828,154.970588 56.6114321,154.970588 C57.7704819,154.970588 58.7099413,154.044116 58.7099413,152.901088 C58.7099413,151.758657 57.7704819,150.831588 56.6114321,150.831588 Z M68.057943,140.614016 C66.8988932,140.614016 65.9594338,141.54049 65.9594338,142.683516 C65.9594338,143.826544 66.8988932,144.753016 68.057943,144.753016 C69.2169923,144.753016 70.1558469,143.826544 70.1558469,142.683516 C70.1558469,141.54049 69.2169923,140.614016 68.057943,140.614016 Z M71.6911642,133.746307 C70.5327197,133.746307 69.5926555,134.672779 69.5926555,135.815807 C69.5926555,136.958834 70.5327197,137.885307 71.6911642,137.885307 C72.850214,137.885307 73.7896734,136.958834 73.7896734,135.815807 C73.7896734,134.672779 72.850214,133.746307 71.6911642,133.746307 Z M74.309915,127.279492 C73.1508651,127.279492 72.2114058,128.205965 72.2114058,129.348991 C72.2114058,130.49202 73.1508651,131.418492 74.309915,131.418492 C75.4689648,131.418492 76.4084242,130.49202 76.4084242,129.348991 C76.4084242,128.205965 75.4689648,127.279492 74.309915,127.279492 L74.309915,127.279492 Z" id="Fill-165" fill="#5F5F5F"></path>
                <path d="M102.938381,163.949426 C103.095466,166.016809 102.909928,189.018676 102.84828,191.232634 C102.669261,197.70279 100.923539,204 89.9981009,204 L12.8371597,204 C1.94313896,204 0.198009078,197.691138 0.0178054507,191.225887 C-0.044435933,189.011929 0.0764901812,165.953641 0.0764901812,163.949426 C0.0764901812,152.758815 4.41145447,142.488745 11.6385685,134.449806 C16.6564096,151.464784 32.1177624,163.876445 50.8251517,163.876445 C69.531948,163.876445 85.8468968,150.531364 90.5345625,133 C98.3194775,141.180608 102.054553,152.32093 102.938381,163.949426 Z" id="Fill-166" fill="#136E75"></path>
                <path d="M22,151.650344 C29.5113506,159.347896 40.0581468,164.136686 51.7387429,164.136686 C64.2327043,164.136686 75.4281563,158.657012 83,150 C80.7533629,164.505523 66.3912964,185.582039 52.3526601,189 C39.7155509,186.189676 24.9120633,166.17045 22,151.650344" id="Fill-167" fill="#3F3F3F"></path>
                <path d="M18.7175463,84 C12.9565516,82.6056939 7.54500319,74.2253503 6.1837452,64.0941167 C5.24985894,57.1467601 7.95776387,55.2538399 12.4445579,55 C13.043,65.5941897 15.2626541,75.4631222 18.7175463,84 Z M86.2824537,84 C92.0434483,82.6056939 97.4549965,74.2253503 98.8162547,64.0941167 C99.7501413,57.1467601 97.042236,55.2538399 92.5554421,55 C91.9569998,65.5941897 89.7373461,75.4631222 86.2824537,84 L86.2824537,84 Z" id="Fill-168" fill="#F49A6A"></path>
                <path d="M103,163.908978 C103,160.410211 102.63048,156.962324 101.814926,153.621584 C100.123913,146.693486 96.5473394,140.257429 91.8028929,135 C89.2850568,142.672148 87.6865715,151.699507 87.6865715,160.713698 C87.6865715,161.981514 87.6622531,183.549964 87.6432728,203 L90.0519735,203 C100.983952,203 102.730719,196.853662 102.909844,190.538522 C102.97153,188.377606 103,165.869964 103,163.908978 Z M11.3169412,135.478874 C4.28419971,143.271338 0.0765359719,153.154084 0.0765359719,163.908978 C0.0765359719,165.865176 -0.0444625307,188.371022 0.0178161069,190.531936 C0.198127609,196.842289 1.94430213,203 12.844844,203 L15.2837943,203 C15.2654072,183.549964 15.2410889,161.981514 15.2410889,160.713698 C15.2410889,151.699507 13.8341847,143.151022 11.3169412,135.478874 L11.3169412,135.478874 Z" id="Fill-169" fill="#15868F"></path>
                <path d="M84.6592206,24.3265797 C85.683343,30.0112306 94,38.0612942 94,44.2596367 C94,80.5669926 75.1959847,110 52,110 C34.3919117,110 19.3145824,93.0390591 13.0723684,68.9861351 C11.0911385,61.3531034 10,53.0057677 10,44.2596367 C10,34.6046667 13.8430497,25.4360319 16.231248,17.177452 C28.465281,17.4832352 82.3252439,11.3706094 84.6592206,24.3265797" id="Fill-170" fill="#FBBB91"></path>
                <path d="M9.40466029,54.1789696 C9.44007823,54.1120708 11.9685588,53.9904366 13.6362035,51.8885986 C17.3496844,47.2081169 13.8757248,44.9451137 20.4352472,36.9421954 C27.1616541,28.7361481 43.5367479,29.5334599 51.679272,22.4026584 C56.5525405,28.1036505 64.4369335,26.883052 71.1567368,28.9216401 C78.5867002,31.1755208 84.4126511,38.6310855 86.2639885,41.1014748 C90.4745214,46.7167151 88.4088753,50.211872 93.0738378,55 C95.8544461,47.2798811 96.491969,46.9070724 95.6617485,38.6189221 C93.3968012,16.0034862 77.9713888,-4.42375141 50.9036792,0.8344925 C28.0591086,-3.49568292 17.2002086,10.5536686 10.5014158,30.3611803 C9.68500233,32.7762261 8.00174972,36.3735558 7.56893052,38.9120603 C5.96251689,48.3301919 8.13861908,42.2983548 9.40466029,54.1789696" id="Fill-171" fill="#2A2A2A"></path>
                <path d="M66,24 C64.1444761,13.2114286 60.00318,4.38132404 51.0355074,4 C50.9223151,8.190662 51.0681019,13.984669 51.6417676,18.175331 C52.1917279,22.1903832 62.2385794,22.9574913 66,24" id="Fill-172" fill="#3B3B3B"></path>
                <path d="M32.2745937,25.9824701 C33.7684873,26.1366127 39.6646793,25.2719695 44.0332245,23.4770521 C47.7060777,21.9681413 50.6176078,20.3225495 50.6394848,18.9202138 C50.6976154,15.0889293 51.3464278,9.03100783 50.7488703,5.29064322 C50.0963076,1.20767281 48.8436871,0.453217441 48.2880086,5.73440508 C47.6967018,11.3624134 45.3102223,16.8651809 38.1551592,21.0438884 C34.5204346,23.1663585 30.9738435,25.5477401 32.2745937,25.9824701" id="Fill-173" fill="#1F1F1F"></path>
                <path d="M16.1777328,129 C17.7676546,126.231516 25.0587665,123.791548 23.8695475,117.758742 C20.9800031,103.099935 6.45830521,80.4384516 4.61899475,72 C3.59341946,77.8538386 3.82599527,93.1028709 5.43833414,104.74129 C6.37368121,111.495484 7.960801,115.814613 9.55184379,119.552709 C11.5475124,124.240194 14.2341835,128.373613 16.1777328,129" id="Fill-174" fill="#3B3B3B"></path>
                <path d="M17,39.5589696 C13.0295627,46.7466338 13.9978632,66.3598843 14.4684121,75 C11.1010646,69.9731226 9.07938271,46.4925306 10.4169455,40.2060534 C13.1551582,45.8527242 14.2617874,33.9122989 17,39.5589696" id="Fill-175" fill="#2A2A2A"></path>
                <path d="M36.3040185,57 C43.6798089,57 48.7974728,61.1886721 49.7004846,64.3723442 C45.5927366,63.4797916 39.2770294,60.7710937 34.2895618,61.6080079 C31.8212102,62.0226584 28.2509693,63.4786205 30.9193929,65.9512958 C31.16366,66.1773621 31.4359968,66.3800021 31.7304312,66.5621437 C26.0573436,67.6737353 21,65.0013479 21,59.4715042 C22.8084124,60.4507353 25.725881,58.5889079 28.2706779,58.0190563 C30.7557519,57.4620895 32.3521477,57 36.3040185,57 Z M68.6959814,57 C61.3201912,57 56.2031247,61.1886721 55.2995158,64.3723442 C59.4072636,63.4797916 65.723568,60.7710937 70.7110353,61.6080079 C73.1793868,62.0226584 76.7490309,63.4786205 74.0812044,65.9512958 C73.7688531,66.2406142 73.4105152,66.4918642 73.0187319,66.70856 C78.8154462,68.0192769 84,64.786409 84,59.4715042 C82.1921849,60.4507353 79.2747162,58.5889079 76.7299194,58.0190563 C74.2448455,57.4620895 72.6484496,57 68.6959814,57 L68.6959814,57 Z" id="Fill-177" fill="#4D4D4D"></path>
            </g>
        </g>
    </g>
</svg>